<svg width="53" height="52" viewBox="0 0 53 52" fill="none" xmlns="http://www.w3.org/2000/svg">
<g clip-path="url(#clip0)">
<path d="M11.6958 23.2061C12.8279 23.0443 13.9705 22.9626 15.1145 22.9614C26.75 22.9614 36.3166 31.3079 37.3143 41.9569C49.1552 42.3167 58.5457 47.4397 58.5457 53.714C58.5457 60.2185 48.4656 65.4998 36.0231 65.4998C23.5807 65.4998 13.4859 60.2185 13.4859 53.714C13.4859 48.6773 19.5604 44.3601 28.1586 42.6908C27.9317 38.1339 26.2047 33.7718 23.2366 30.2588C20.2684 26.7458 16.2191 24.2712 11.6958 23.2061V23.2061Z" stroke="black" stroke-miterlimit="3.86"/>
<path d="M2.93122 1.014L-5.57666 20.6719L22.827 32.4967L31.3349 12.8388L2.93122 1.014Z" fill="white"/>
<path d="M5.28865 1.9952L31.3352 12.8387L22.8273 32.4966L1.65375 23.6818" stroke="black" stroke-linecap="round" stroke-linejoin="round"/>
<path d="M24.3726 19.0472L24.0352 5.07397" stroke="black" stroke-miterlimit="3.86" stroke-linecap="round"/>
<path d="M45.7653 1.41895H8.02717C4.49405 1.41895 1.62988 4.22803 1.62988 7.69321V44.7056C1.62988 48.1708 4.49405 50.9799 8.02717 50.9799H45.7653C49.2984 50.9799 52.1626 48.1708 52.1626 44.7056V7.69321C52.1626 4.22803 49.2984 1.41895 45.7653 1.41895Z" stroke="black" stroke-miterlimit="3.86"/>
</g>
<defs>
<clipPath id="clip0">
<rect width="52" height="51" fill="white" transform="translate(0.896484 0.699463)"/>
</clipPath>
</defs>
</svg>
