<svg width="53" height="53" viewBox="0 0 53 53" fill="none" xmlns="http://www.w3.org/2000/svg">
<g clip-path="url(#clip0)">
<path d="M37.1823 8.8868C37.1823 8.35858 31.1372 2.16671 31.1372 2.16671C31.1372 2.16671 21.1891 0.567383 20.6609 0.567383C20.1327 0.567383 8.7173 8.03578 8.7173 8.03578L-7.24658 21.9015L10.8742 24.836L31.8415 12.7751C34.4092 12.8631 37.1823 9.42969 37.1823 8.8868Z" fill="black"/>
<path d="M7.96866 20.0821C7.62817 19.4862 7.53737 18.7798 7.71607 18.1173C7.89478 17.4547 8.32846 16.8898 8.92238 16.5459L25.5465 6.93533C26.1432 6.59874 26.8483 6.5101 27.5098 6.6885C28.1712 6.8669 28.7361 7.29806 29.0826 7.88905L39.0454 25.2028L17.9754 37.3812L7.96866 20.0821Z" stroke="black" stroke-miterlimit="10"/>
<path d="M19.9709 40.8879C20.8715 42.1131 21.5335 43.4969 21.9224 44.9669C22.0691 45.7006 22.1278 51.3055 22.1425 51.9658L19.9709 40.8879ZM23.8738 38.643L24.2994 39.3473C25.2471 40.6304 25.9486 42.0781 26.3682 43.617C26.647 44.9963 26.5883 51.6283 26.5883 51.6283V51.9658L23.8738 38.643ZM27.7621 36.3981L28.7745 37.9974C29.7196 39.2855 30.4162 40.7384 30.8287 42.2818C31.0051 43.3582 31.0788 44.4489 31.0488 45.5392V51.9658L27.7621 36.3981ZM31.7091 34.1678C32.428 35.327 32.9856 36.222 33.1763 36.6475C34.1248 37.9355 34.8263 39.3882 35.2452 40.9319C35.4213 42.0083 35.495 43.099 35.4653 44.1893V51.9658L31.7091 34.1678ZM35.4653 31.9229L37.5635 35.2976C38.5085 36.5857 39.2051 38.0387 39.6176 39.5821C39.7938 40.6584 39.8675 41.7491 39.8377 42.8394V51.9658L35.4653 31.9229ZM39.3535 29.6927C40.6007 31.6882 41.6278 33.3315 41.9946 33.9624C42.9423 35.2455 43.6438 36.6932 44.0635 38.2322C44.2396 39.3086 44.3133 40.3992 44.2836 41.4895V51.9658L39.3535 29.6927ZM7.96866 20.0821C7.62817 19.4862 7.53737 18.7798 7.71607 18.1173C7.89478 17.4547 8.32846 16.8898 8.92238 16.5459L25.5465 6.93533C26.1432 6.59874 26.8483 6.5101 27.5098 6.6885C28.1712 6.8669 28.7361 7.29806 29.0827 7.88905L39.0454 25.2028L17.9754 37.3812L7.96866 20.0821Z" stroke="black" stroke-linecap="round" stroke-linejoin="round"/>
<path d="M45.7653 1.43311H8.02717C4.49405 1.43311 1.62988 4.29727 1.62988 7.8304V45.5685C1.62988 49.1017 4.49405 51.9658 8.02717 51.9658H45.7653C49.2984 51.9658 52.1626 49.1017 52.1626 45.5685V7.8304C52.1626 4.29727 49.2984 1.43311 45.7653 1.43311Z" stroke="black" stroke-miterlimit="3.86"/>
</g>
<defs>
<clipPath id="clip0">
<rect width="52" height="52" fill="white" transform="translate(0.896484 0.699463)"/>
</clipPath>
</defs>
</svg>
