<svg width="51" height="51" viewBox="0 0 51 51" fill="none" xmlns="http://www.w3.org/2000/svg">
<g clip-path="url(#clip0)">
<path d="M44.5666 0.699463H7.22633C3.73045 0.699463 0.896484 3.53343 0.896484 7.02931V44.3696C0.896484 47.8655 3.73045 50.6995 7.22633 50.6995H44.5666C48.0625 50.6995 50.8965 47.8655 50.8965 44.3696V7.02931C50.8965 3.53343 48.0625 0.699463 44.5666 0.699463Z" fill="white"/>
<path d="M44.5666 0.699463H7.22633C3.73045 0.699463 0.896484 3.53343 0.896484 7.02931V44.3696C0.896484 47.8655 3.73045 50.6995 7.22633 50.6995H44.5666C48.0625 50.6995 50.8965 47.8655 50.8965 44.3696V7.02931C50.8965 3.53343 48.0625 0.699463 44.5666 0.699463Z" stroke="black" stroke-miterlimit="3.86"/>
<path d="M35.5221 32.131C34.1055 32.1329 32.7025 31.8558 31.393 31.3155C30.0836 30.7751 28.8934 29.9822 27.8904 28.9819C26.8874 27.9816 26.0912 26.7935 25.5474 25.4855C25.0035 24.1775 24.7226 22.7752 24.7207 21.3586" stroke="black" stroke-width="2" stroke-miterlimit="3.86" stroke-linecap="round"/>
<path d="M46.2945 33.3503H7.00879V36.0652H46.2945V33.3503Z" fill="white"/>
<path d="M46.2945 33.3503H7.00879V36.0652H46.2945V33.3503Z" stroke="black" stroke-linecap="square" stroke-linejoin="round"/>
<path d="M8.92482 20.8505C8.92482 19.305 9.38328 17.7944 10.2422 16.5096C11.1011 15.2248 12.3218 14.2237 13.7498 13.633C15.1779 13.0422 16.7491 12.8884 18.2646 13.1909C19.7802 13.4935 21.1719 14.2388 22.2636 15.3326C23.3554 16.4264 24.0981 17.8195 24.3979 19.3356C24.6976 20.8517 24.5409 22.4226 23.9475 23.8496C23.3541 25.2765 22.3507 26.4954 21.0643 27.3519C19.778 28.2084 18.2664 28.664 16.721 28.6612C15.696 28.6612 14.681 28.459 13.7342 28.0663C12.7873 27.6736 11.9273 27.0981 11.2031 26.3726C10.479 25.6471 9.90503 24.7859 9.51409 23.8384C9.12315 22.8908 8.92291 21.8755 8.92482 20.8505Z" fill="white"/>
<path d="M23.9442 23.8415C25.595 19.8561 23.7025 15.2871 19.7171 13.6363C15.7318 11.9856 11.1628 13.8781 9.51197 17.8635C7.86118 21.8488 9.75372 26.4178 13.7391 28.0686C17.7244 29.7194 22.2934 27.8269 23.9442 23.8415Z" stroke="black" stroke-width="0.71" stroke-miterlimit="3.86"/>
<path d="M15.066 20.8505C15.0573 20.518 15.1482 20.1904 15.327 19.9099C15.5057 19.6293 15.7642 19.4086 16.0693 19.2759C16.3743 19.1433 16.7121 19.1048 17.0392 19.1654C17.3662 19.226 17.6678 19.3829 17.9051 19.6161C18.1424 19.8492 18.3046 20.1479 18.371 20.4739C18.4374 20.7998 18.4049 21.1382 18.2776 21.4456C18.1504 21.7529 17.9343 22.0153 17.6569 22.199C17.3796 22.3827 17.0537 22.4793 16.721 22.4765C16.2821 22.4765 15.8611 22.3022 15.5507 21.9918C15.2404 21.6814 15.066 21.2604 15.066 20.8215" fill="black"/>
<path d="M24.7495 22.0409C24.7467 19.9062 25.3772 17.8187 26.5614 16.0426C27.7456 14.2665 29.4301 12.8816 31.4017 12.0634C33.3734 11.2452 35.5434 11.0303 37.6372 11.4461C39.731 11.8618 41.6544 12.8895 43.1639 14.3989C44.6733 15.9084 45.701 17.8317 46.1167 19.9255C46.5325 22.0193 46.3176 24.1894 45.4994 26.161C44.6812 28.1327 43.2963 29.8172 41.5202 31.0014C39.7441 32.1856 37.6566 32.8161 35.5219 32.8133C32.6661 32.8094 29.9283 31.6732 27.9089 29.6539C25.8895 27.6345 24.7534 24.8967 24.7495 22.0409Z" fill="white"/>
<path d="M46.1601 24.7945C47.707 19.0236 44.2827 13.0914 38.5118 11.5445C32.7408 9.99768 26.8086 13.422 25.2618 19.1929C23.7149 24.9638 27.1392 30.8961 32.9101 32.4429C38.6811 33.9897 44.6133 30.5655 46.1601 24.7945Z" stroke="black" stroke-width="1.00424" stroke-miterlimit="3.86"/>
<path d="M33.228 22.0409C33.228 21.5872 33.3626 21.1437 33.6146 20.7665C33.8667 20.3893 34.2249 20.0953 34.6441 19.9217C35.0632 19.7481 35.5244 19.7026 35.9694 19.7911C36.4143 19.8797 36.8231 20.0981 37.1439 20.4189C37.4647 20.7397 37.6831 21.1484 37.7716 21.5934C37.8601 22.0384 37.8147 22.4996 37.6411 22.9187C37.4675 23.3379 37.1735 23.6961 36.7963 23.9482C36.419 24.2002 35.9756 24.3348 35.5219 24.3348C34.9135 24.3348 34.3301 24.0931 33.8999 23.6629C33.4697 23.2327 33.228 22.6493 33.228 22.0409Z" fill="black"/>
<path d="M2.17383 36.0654H45.031" stroke="black" stroke-miterlimit="3.86"/>
<path d="M33.2428 15.4789L31.5732 14.8691L32.1975 13.156M27.7695 19.4713C28.2764 17.9574 29.2089 16.6216 30.4554 15.6241L27.7695 19.4713ZM31.6749 14.8401C32.8555 14.1985 34.1784 13.864 35.5221 13.8674L31.6749 14.8401ZM29.2939 19.181L27.5663 19.6165L27.1162 17.8453L29.2939 19.181Z" stroke="black" stroke-width="0.5" stroke-linecap="round" stroke-linejoin="round"/>
<path d="M19.6973 13.127H28.771L27.0724 15.0433L25.8239 16.9307L25.1415 19.3116L24.8366 19.6891L24.2124 17.4969L23.2687 16.0451L21.9621 14.6804L19.6973 13.127Z" fill="black"/>
<path d="M13.0044 19.0503L11.4655 19.9504L10.4783 18.3679M9.81048 39.3319H3.55322H9.81048ZM8.54742 38.0543L9.81048 39.3174L8.51838 40.6095L8.54742 38.0543ZM19.6392 16.2483C20.254 16.6362 20.7834 17.1451 21.1952 17.7441C21.607 18.3431 21.8926 19.0197 22.0346 19.7326L19.6392 16.2483ZM11.422 19.7326C11.5801 19.0072 11.8877 18.3227 12.3252 17.7227C12.7626 17.1228 13.3203 16.6207 13.9626 16.2483L11.422 19.7326ZM20.5828 19.0503L22.1217 19.9504L23.0364 18.3679L20.5828 19.0503Z" stroke="black" stroke-width="0.5" stroke-linecap="round" stroke-linejoin="round"/>
</g>
<defs>
<clipPath id="clip0">
<rect width="50" height="50" fill="white" transform="translate(0.896484 0.699463)"/>
</clipPath>
</defs>
</svg>
