<svg width="52" height="53" viewBox="0 0 52 53" fill="none" xmlns="http://www.w3.org/2000/svg">
<g clip-path="url(#clip0)">
<path d="M-87.0296 228.375C-113.71 214.642 -127.956 205.589 -150.348 185.135C-180.568 157.257 -207.795 117.318 -229.007 81.6926C-266.264 26.7581 -245.858 -26.1663 -242.519 -86.1482C-238.878 -152.058 -221.898 -189.723 -187.691 -244.613C-163.227 -284.141 -133.856 -297.215 -99.8084 -326.149C-45.1532 -370.989 1.21301 -368.7 64.5601 -365.516C148.658 -361.378 164.675 -364.753 243.305 -320.72C293.787 -285.389 309.818 -248.208 343.463 -200.17C375.021 -155.125 377.424 -90.6821 372.503 -23.4078C366.387 61.6938 357.882 123.202 282.562 175.847C219.359 220.027 141.837 284.572 59.3939 273.377C0.0617828 265.424 -33.1803 256.371 -87.0296 228.375ZM-80.0359 214.334C-27.9997 241.331 3.52988 250.003 61.4085 257.765C138.211 268.182 214.869 204.048 273.827 162.862C342.901 114.618 351.018 59.933 357.105 -24.567C362.012 -91.9146 358.904 -151.016 330.885 -191.014C298.996 -236.499 282.677 -273.959 235.203 -307.31C159.768 -349.508 144.701 -345.796 63.7974 -349.772C0.479095 -352.971 -40.4187 -354.702 -90.0517 -313.986C-121.524 -287.252 -152.147 -272.477 -174.61 -236.22C-207.982 -182.606 -223.624 -147.553 -227.064 -85.2385C-230.115 -30.304 -249.959 23.3394 -216.012 73.2265C-215.897 73.4172 -176.567 139.811 -139.972 173.529C-118.861 192.868 -105.809 201.158 -80.0359 214.436" fill="#EB1C24"/>
<path d="M-211.652 111.596C-221.48 95.2649 -226.776 76.792 -236.245 32.4511L-239.281 17.617C-247.916 -106.895 -232.633 -248.678 -99.5495 -308.894C-55.3418 -328.717 -28.9496 -336.538 17.3447 -348.804C81.512 -365.868 132.152 -369.346 190.65 -331.74C212.566 -317.83 231.562 -301.25 250.874 -283.907C319.632 -221.753 365.566 -172.966 368.876 -76.2735C371.754 5.32132 353.881 56.7198 308.638 124.009C291.225 150.009 268.704 167.631 245.996 188.29C215.704 215.772 195.859 238.837 153.695 250.062C100.45 264.558 66.9056 259.115 13.3297 249.269C-26.4601 241.933 -47.9739 237.531 -85.9649 225.441C-118.588 215.053 -142.189 205.882 -163.89 176.214C-179.115 154.587 -198.067 134.294 -211.724 111.654L-211.652 111.596ZM-198.556 103.423C-185.116 125.74 -166.35 145.754 -151.384 167.029C-132.777 192.413 -113.307 200.292 -81.3743 210.46C-44.146 222.198 -23.0351 226.6 16.0063 233.819C69.2513 243.606 99.8743 248.492 149.694 234.89C188.549 224.531 207.544 202.097 235.663 176.581C257.436 156.787 279.267 139.943 295.902 115.146C339.577 50.161 356.126 2.01999 353.464 -75.7306C350.37 -165.483 308.853 -210.411 240.657 -272.095C221.949 -288.866 203.659 -304.933 182.476 -318.387C129.231 -352.692 83.5699 -350.139 21.3021 -333.559C-24.0713 -321.527 -49.9166 -313.912 -93.2465 -294.486C-210.644 -241.4 -233.209 -119.162 -223.956 15.3721L-221.077 29.1351C-211.537 73.7547 -206.687 89.5865 -198.427 103.306" fill="#F6961D"/>
<path d="M-165.026 -31.4485C-165.796 -26.2469 -166.19 -20.9946 -166.206 -15.7341C-164.695 18.5413 -148.938 65.5966 -136.087 86.8867C-114.501 122.791 -50.6073 167.66 -9.32094 184.372C60.5738 212.661 150.989 202.801 211.185 168.672C266.473 137.317 307.27 57.9521 310.623 -29.4091C314.12 -121.099 266.804 -171.573 221.906 -213.038C181.469 -250.38 104.508 -281.295 26.2812 -275.808C1.5583 -274.076 -45.3116 -243.836 -68.394 -230.953C-91.9369 -217.748 -138.908 -172.409 -148.52 -146.996C-162.623 -109.625 -160.421 -70.4339 -165.026 -31.4485ZM-180.424 -33.3267C-175.647 -73.7939 -177.661 -113.806 -162.997 -152.66C-151.614 -182.827 -101.19 -230.616 -75.8627 -244.76C-49.672 -259.433 -3.66545 -289.497 25.1731 -291.522C107.429 -297.288 188.534 -265.111 232.224 -224.717C277.928 -182.563 329.835 -127.833 326.122 -28.7928C322.654 62.1779 280.216 147.588 218.754 182.494C154.832 218.735 59.5809 229.241 -14.9476 199.074C-57.8602 181.702 -125.107 135.116 -149.168 95.1914C-163.314 71.7151 -179.935 22.0921 -181.575 -14.9711C-181.63 -21.11 -181.245 -27.2449 -180.424 -33.3267Z" fill="#95268F"/>
<path d="M183.656 -278.082C154.659 -296.305 94.2477 -321.777 51.7525 -316.524C-27.5105 -306.708 -107.004 -262.749 -148.966 -218.804C-175.33 -191.19 -220.473 -121.378 -222.07 -65.8707C-224.315 11.8945 -189.159 89.6598 -151.312 128.41C-128.964 151.314 -74.6395 185.414 -38.7207 193.748C156.213 238.91 311.084 136.202 294.017 -42.101C283.728 -149.622 247.593 -237.864 183.656 -278.082ZM191.758 -291.493C262.027 -247.328 299.025 -152.733 309.472 -43.6123C327.907 149.671 158.53 255.608 -42.2752 209.051C-81.5181 199.954 -138.346 164.109 -162.393 139.459C-203.204 97.5977 -240.001 15.7534 -237.641 -66.399C-235.871 -127.731 -187.576 -201.153 -160.162 -229.853C-115.667 -276.321 -32.9645 -321.924 49.8242 -332.165C97.6295 -338.034 161.826 -310.288 191.686 -291.507" fill="#FFF200"/>
<path d="M-203.305 43.5142C-210.004 33.3398 -214.309 21.7254 -215.882 9.57626L-216.703 -7.26801C-209.939 -71.8278 -228.129 -114.951 -186.209 -174.287C-127.107 -258.024 -84.2379 -314.485 16.136 -340.837C110.423 -365.59 203.918 -308.249 272.46 -243.997C307.414 -211.145 332.569 -181.462 340.959 -131.355C350.399 -74.4395 355.911 -37.2149 341.031 20.1846C327.806 71.539 307.53 97.6417 278.576 139.796C254.817 174.497 238.729 191.518 200.32 209.536C146.946 234.582 111.401 246.349 51.5078 239.732C-2.75879 233.863 -39.7568 233.291 -87.6628 201.832C-141.699 166.222 -161.054 128.19 -186.957 70.9521C-191.418 61.0334 -197.52 52.5526 -203.305 43.4702V43.5142ZM-190.354 34.9013C-184.151 44.644 -177.719 53.7264 -172.941 64.3788C-147.326 121.045 -129.467 155.525 -79.302 188.598C-33.9718 218.369 1.68788 218.471 53.0908 224.076C109.113 230.268 141.722 219.674 193.801 195.23C229.044 178.694 243.175 163.904 265.855 130.773C293.6 90.3788 313.343 65.2298 326.036 16.179C340.023 -37.7578 335.059 -72.1359 325.662 -128.714C318.15 -173.671 296.06 -200.375 261.94 -232.406C194.046 -296.085 106.034 -348.232 19.9351 -325.636C-74.6394 -300.751 -114.746 -248.575 -173.675 -165.102C-212.083 -110.725 -195.074 -66.7951 -201.218 -6.81311L-200.571 8.03564C-199.289 17.6885 -195.804 26.9001 -190.397 34.9307" fill="#008C44"/>
<path d="M104.191 -277.333C90.3622 -277.671 76.8495 -277.48 68.431 -277.788C40.1681 -278.214 13.488 -270.584 -14.372 -267.429C-27.6944 -265.792 -40.6393 -261.82 -52.6364 -255.691C-77.9637 -242.779 -117.897 -199.377 -137.54 -168.858C-162.551 -129.814 -175.503 -60.926 -168.912 -3.33569C-158.349 89.7772 -98.6573 174.908 -13.192 198.238C70.9782 221.23 169.021 182.259 215.876 125.784C227.705 111.522 246.096 88.0311 258.746 68.311C292.578 15.4893 299.701 -67.8222 279.526 -126.293C270.891 -154.728 269.452 -167.244 250.5 -191.161C226.971 -220.858 210.379 -235.692 177.267 -253.725C167.97 -258.802 149.478 -271.479 140.197 -273.871C131.562 -276.101 118.136 -276.996 104.22 -277.333H104.191ZM104.508 -293.077C118.352 -292.74 133.289 -291.859 143.924 -289.145C156.242 -285.961 172.849 -273.973 184.491 -267.62C219.618 -248.546 237.735 -232.2 262.458 -201.065C282.907 -175.256 284.965 -161.683 294.118 -131.223C315.703 -68.5264 308.249 19.6417 271.611 76.9092C258.659 97.1722 239.75 121.323 227.605 135.952C177.252 196.726 73.1943 238.147 -17.2213 213.453C-110.17 188.084 -173.229 96.4679 -184.31 -1.51627C-191.16 -61.7917 -177.92 -134.642 -150.406 -177.515C-130.259 -208.944 -88.5264 -255.06 -59.5439 -269.806C-45.9093 -276.735 -31.2006 -281.203 -16.0701 -283.012C12.5239 -286.254 39.6788 -293.899 68.7332 -293.473C77.0941 -293.151 90.722 -293.356 104.566 -293.004" fill="#10489C"/>
<path d="M-149.47 -189.444C-136.144 -211.321 -121.38 -232.816 -107.651 -254.4L-99.5349 -261.193C-54.9243 -329.891 20.4821 -314.543 87.7289 -311.227C200.824 -305.564 280.447 -249.719 328.626 -145.617C370.733 -54.4259 370.46 27.9026 318.236 114.559C304.781 136.847 291.758 155.012 276.216 175.789C236.182 228.977 191.513 249.152 126.555 249.152C59.6099 249.152 20.5828 242.813 -42.8506 219.807C-77.2727 207.394 -99.6356 199.015 -126.186 171.944C-149.211 148.468 -154.449 127.295 -169.286 99.5493C-209.579 24.1317 -216.156 -41.7487 -183.777 -121.333C-174.267 -145.005 -162.784 -167.801 -149.456 -189.473L-149.47 -189.444ZM-136.331 -181.154C-149.191 -160.209 -160.264 -138.178 -169.43 -115.303C-199.837 -40.5749 -193.894 20.3168 -155.658 92.0075C-142.145 117.274 -135.857 139.723 -115.192 160.808C-90.7279 185.751 -71.6317 192.691 -37.6269 204.958C23.9933 227.348 61.3367 233.423 126.54 233.423C187.11 233.423 227.072 215.214 263.941 166.222C279.166 145.871 291.902 128.073 305.069 106.313C354.299 24.6452 354.817 -52.0049 314.61 -138.897C268.819 -237.864 194.204 -290.128 86.9519 -295.498C24.8136 -298.623 -47.2685 -314.367 -87.8929 -250.556L-95.9948 -243.777C-111.58 -219.318 -124.56 -200.478 -136.288 -181.125" fill="#00AEEF"/>
<path d="M44.9029 1.43311H7.89048C4.4253 1.43311 1.61621 4.29727 1.61621 7.8304V45.5685C1.61621 49.1017 4.4253 51.9658 7.89048 51.9658H44.9029C48.3681 51.9658 51.1772 49.1017 51.1772 45.5685V7.8304C51.1772 4.29727 48.3681 1.43311 44.9029 1.43311Z" stroke="black" stroke-miterlimit="3.86"/>
<path d="M44.9172 36.2073V33.2728H37.5924V28.0053H43.8954V25.1588H37.5924V20.0673H44.9172V17.1328H34.5416V36.2073H44.9172ZM31.8218 28.8709C31.658 28.3383 31.3995 27.8409 31.0591 27.4037C30.6541 26.9139 30.1668 26.5015 29.62 26.1858C28.9309 25.7836 28.1964 25.4683 27.4327 25.2468L25.9936 24.7332C25.5726 24.5789 25.1677 24.3823 24.7848 24.1463C24.4758 23.9518 24.2069 23.6976 23.9934 23.398C23.7889 23.1078 23.6828 22.7575 23.6912 22.4003C23.6825 22.0891 23.7353 21.7793 23.8466 21.4894C23.9578 21.1995 24.1252 20.9354 24.3387 20.7129C24.5851 20.4794 24.8753 20.2991 25.1919 20.1831C25.5085 20.0671 25.8449 20.0178 26.1807 20.038C26.8121 20.016 27.4382 20.1613 27.9981 20.4596C28.558 20.7579 29.0326 21.199 29.3754 21.74L31.7067 19.7445C31.2125 18.9104 30.513 18.2225 29.6776 17.749C28.6219 17.2248 27.4546 16.9777 26.2814 17.0301C25.4775 17.0126 24.6774 17.1469 23.9214 17.4262C23.2582 17.6769 22.6514 18.0611 22.137 18.556C21.6344 19.0353 21.2414 19.6214 20.9857 20.2727C20.7103 20.9669 20.5733 21.7102 20.5828 22.459C20.574 23.1045 20.6614 23.7476 20.8418 24.3664C21.0234 24.9162 21.3234 25.4175 21.7197 25.8337C22.1641 26.3032 22.6851 26.6905 23.2594 26.9782C23.9946 27.3528 24.7602 27.6621 25.5475 27.9025C26.0224 28.0493 26.4685 28.2107 26.8859 28.3721C27.2599 28.5195 27.6132 28.7168 27.9364 28.959C28.2065 29.1814 28.4314 29.4555 28.5983 29.766C28.7666 30.1175 28.8505 30.5047 28.843 30.8958C28.8719 31.2541 28.8202 31.6144 28.6919 31.9493C28.5635 32.2842 28.3619 32.5848 28.1023 32.8282C27.8428 33.0716 27.5322 33.2514 27.1942 33.3538C26.8562 33.4563 26.4997 33.4788 26.1519 33.4195C25.4149 33.4377 24.6889 33.2336 24.0653 32.8326C23.4818 32.4133 22.9914 31.8734 22.6263 31.2479L20.0935 33.1114C20.6559 34.0833 21.4537 34.8917 22.4104 35.459C23.5477 36.1044 24.8369 36.4191 26.1375 36.3687C27.7075 36.4595 29.2521 35.9345 30.4547 34.9014C30.9879 34.3761 31.404 33.7399 31.6747 33.0361C31.9453 32.3323 32.0642 31.5773 32.0233 30.8224C32.0266 30.1744 31.9492 29.5285 31.793 28.9003L31.8218 28.8709ZM19.1438 20.0967V17.1621H7.87598V20.0086H11.9773V36.1486H15.0425V20.0086L19.1438 20.0967Z" fill="black"/>
</g>
<defs>
<clipPath id="clip0">
<rect width="51" height="52" fill="white" transform="translate(0.896484 0.699463)"/>
</clipPath>
</defs>
</svg>
