<svg width="53" height="53" viewBox="0 0 53 53" fill="none" xmlns="http://www.w3.org/2000/svg">
<g clip-path="url(#clip0)">
<path d="M45.7653 1.43311H8.02717C4.49405 1.43311 1.62988 4.29727 1.62988 7.8304V45.5685C1.62988 49.1017 4.49405 51.9658 8.02717 51.9658H45.7653C49.2984 51.9658 52.1626 49.1017 52.1626 45.5685V7.8304C52.1626 4.29727 49.2984 1.43311 45.7653 1.43311Z" stroke="black" stroke-miterlimit="3.86"/>
<path d="M11.6957 16.8392C11.6776 16.7746 11.6776 16.7061 11.6957 16.6415C11.7138 16.5768 11.7494 16.5183 11.7984 16.4724C11.8918 16.3459 12.0257 16.255 12.1778 16.215C12.3299 16.175 12.4912 16.1881 12.6348 16.2523C13.2657 16.4284 13.207 17.1767 13.1043 17.5729C12.8695 18.4239 11.8865 18.4826 11.2555 18.3212C10.8034 18.1382 10.4411 17.7852 10.2463 17.3381C10.0516 16.8909 10.0399 16.3852 10.2138 15.9295C10.4284 15.3644 10.8553 14.9054 11.4035 14.6505C11.9517 14.3956 12.5778 14.3649 13.1483 14.565C13.8462 14.8168 14.4157 15.3351 14.732 16.0063C15.0483 16.6774 15.0856 17.4466 14.8357 18.1451C14.6931 18.6598 14.4128 19.1258 14.025 19.493C13.6372 19.8601 13.1565 20.1145 12.6348 20.2286C12.0774 20.3151 11.5568 20.5604 11.1352 20.9352C10.7137 21.3099 10.409 21.7981 10.2578 22.3415C10.0137 23.0387 10.0502 23.8035 10.3596 24.4743C10.6689 25.1451 11.227 25.6694 11.9158 25.9363C12.4863 26.1364 13.1124 26.1057 13.6606 25.8508C14.2088 25.5959 14.6357 25.1369 14.8503 24.5718C15.0234 24.1142 15.0096 23.607 14.812 23.1596C14.6143 22.7121 14.2487 22.3603 13.7939 22.1801C13.1776 22.004 12.1799 22.0774 11.9598 22.9284C11.8424 23.3246 11.7984 24.0729 12.4147 24.2343C12.5498 24.3038 12.7044 24.3257 12.8536 24.2964C13.0027 24.2671 13.1375 24.1884 13.2363 24.0729C13.3537 23.8968 13.3537 23.9115 13.339 23.7061M13.3684 30.9104C13.3835 30.8455 13.382 30.7779 13.364 30.7138C13.3461 30.6497 13.3123 30.5911 13.2657 30.5435C13.1693 30.4292 13.037 30.351 12.8904 30.3217C12.7438 30.2924 12.5916 30.3137 12.4587 30.3821C11.8278 30.5435 11.8865 31.2918 11.9892 31.7027C12.2239 32.5537 13.207 32.6124 13.8379 32.4363C14.2925 32.2564 14.6573 31.9038 14.8526 31.4556C15.0478 31.0073 15.0575 30.5001 14.8797 30.0447C14.6622 29.4822 14.2341 29.0266 13.6862 28.7745C13.1383 28.5225 12.5138 28.4939 11.9451 28.6948C11.2473 28.9466 10.6777 29.4649 10.3614 30.1361C10.0451 30.8072 10.0079 31.5764 10.2578 32.2749C10.405 32.7972 10.6941 33.2684 11.093 33.6362C11.4919 34.004 11.9849 34.254 12.5174 34.3584C13.0747 34.4449 13.5953 34.6902 14.0169 35.065C14.4385 35.4397 14.7431 35.9279 14.8944 36.4713C15.1395 37.1719 15.0983 37.941 14.7796 38.6114C14.4609 39.2818 13.8905 39.7993 13.1923 40.0514C12.622 40.2555 11.9943 40.2267 11.4451 39.9713C10.8958 39.7159 10.4693 39.2544 10.2578 38.6869C10.0679 38.2483 10.0568 37.7529 10.2267 37.3062C10.3966 36.8595 10.7341 36.4968 11.1675 36.2952C11.7837 36.1338 12.7815 36.1925 13.0016 37.0435C13.119 37.4544 13.163 38.2027 12.5467 38.3641C12.3413 38.3641 11.9598 38.5255 11.7251 38.188C11.676 38.1421 11.6405 38.0837 11.6224 38.019C11.6042 37.9543 11.6042 37.8859 11.6223 37.8212L13.3684 30.9104Z" stroke="black" stroke-width="0.57" stroke-miterlimit="3.86" stroke-linecap="round"/>
<path d="M18.9585 16.7953C18.9585 16.5899 18.9585 16.5899 19.0465 16.4285C19.1477 16.3167 19.2815 16.2395 19.429 16.2079C19.5764 16.1763 19.7301 16.1919 19.8682 16.2524C20.4844 16.4285 20.4404 17.1768 20.323 17.5729C20.103 18.424 19.1052 18.4826 18.489 18.3212C18.2626 18.2338 18.0559 18.1023 17.8808 17.9343C17.7057 17.7664 17.5656 17.5654 17.4687 17.3429C17.3718 17.1205 17.32 16.881 17.3163 16.6384C17.3126 16.3958 17.3571 16.1549 17.4472 15.9296C17.6587 15.362 18.0853 14.9006 18.6345 14.6452C19.1837 14.3898 19.8114 14.361 20.3817 14.565C20.7286 14.6883 21.0478 14.8787 21.3211 15.1253C21.5944 15.372 21.8164 15.67 21.9744 16.0025C22.1325 16.335 22.2235 16.6953 22.2423 17.063C22.261 17.4306 22.2072 17.7983 22.0838 18.1452C21.9354 18.6693 21.6441 19.1418 21.2424 19.5098C20.8408 19.8778 20.3446 20.1267 19.8095 20.2287C19.2548 20.3178 18.7373 20.5643 18.3186 20.9388C17.8998 21.3133 17.5974 21.8002 17.4472 22.3416C17.1975 23.044 17.2364 23.8168 17.5555 24.4906C17.8745 25.1644 18.4476 25.6843 19.1492 25.9364C19.7197 26.1365 20.3458 26.1058 20.894 25.8509C21.4422 25.596 21.8691 25.137 22.0838 24.5718C22.2616 24.1164 22.2519 23.6091 22.0566 23.1609C21.8614 22.7127 21.4966 22.3601 21.042 22.1802C20.4258 22.0041 19.428 22.0775 19.1933 22.9285C19.0905 23.3246 19.0465 24.0729 19.6628 24.2343C19.7985 24.3013 19.9524 24.3218 20.1009 24.2926C20.2494 24.2635 20.3842 24.1863 20.4844 24.0729C20.5274 24.0233 20.5577 23.9641 20.5731 23.9002C20.5884 23.8364 20.5882 23.7699 20.5725 23.7061M20.5578 30.9104C20.5729 30.8456 20.5714 30.778 20.5534 30.7138C20.5355 30.6497 20.5017 30.5912 20.4551 30.5436C20.3563 30.4281 20.2214 30.3494 20.0723 30.3201C19.9232 30.2908 19.7686 30.3127 19.6334 30.3822C19.0172 30.5436 19.0612 31.2919 19.1786 31.7027C19.3987 32.5538 20.3964 32.6124 21.0127 32.4364C21.4674 32.2562 21.8331 31.9044 22.0307 31.4569C22.2284 31.0095 22.2422 30.5022 22.0691 30.0447C21.8516 29.4822 21.4235 29.0266 20.8756 28.7746C20.3277 28.5226 19.7032 28.4939 19.1346 28.6948C18.4364 28.947 17.866 29.4645 17.5473 30.1349C17.2286 30.8053 17.1873 31.5743 17.4325 32.275C17.5809 32.7991 17.8722 33.2716 18.2739 33.6396C18.6755 34.0076 19.1717 34.2565 19.7068 34.3585C20.2615 34.4476 20.779 34.6941 21.1977 35.0686C21.6165 35.4431 21.9189 35.93 22.0691 36.4714C22.319 37.1699 22.2818 37.9391 21.9654 38.6102C21.6491 39.2813 21.0796 39.7996 20.3817 40.0515C19.8112 40.2516 19.1852 40.2209 18.637 39.966C18.0888 39.7111 17.6618 39.2521 17.4472 38.6869C17.2733 38.2313 17.285 37.7256 17.4798 37.2784C17.6745 36.8313 18.0369 36.4783 18.489 36.2953C19.1199 36.1339 20.103 36.1926 20.3377 37.0436C20.4404 37.4544 20.4991 38.2027 19.8682 38.3641C19.7327 38.4258 19.5809 38.442 19.4354 38.4103C19.29 38.3785 19.1587 38.3006 19.0612 38.1881C19.0121 38.1422 18.9766 38.0837 18.9585 38.019C18.9404 37.9544 18.9404 37.8859 18.9585 37.8212L20.5578 30.9104Z" stroke="black" stroke-width="0.57" stroke-miterlimit="3.86" stroke-linecap="round"/>
<path d="M26.1334 16.7952C26.1152 16.7305 26.1153 16.6621 26.1334 16.5974C26.1515 16.5328 26.187 16.4743 26.2361 16.4284C26.4708 16.0909 26.8523 16.2083 27.0577 16.2523C27.674 16.4284 27.6153 17.1767 27.5126 17.5729C27.2778 18.4239 26.2948 18.4826 25.6785 18.3212C25.2237 18.141 24.8581 17.7892 24.6604 17.3417C24.4628 16.8943 24.449 16.3871 24.6221 15.9295C24.8367 15.3644 25.2636 14.9054 25.8118 14.6505C26.36 14.3956 26.9861 14.3649 27.5566 14.565C28.2545 14.8168 28.824 15.3351 29.1403 16.0063C29.4566 16.6774 29.4939 17.4466 29.244 18.1451C29.0968 18.6674 28.8077 19.1386 28.4088 19.5064C28.0099 19.8742 27.5168 20.1242 26.9844 20.2286C26.427 20.3151 25.9064 20.5604 25.4848 20.9352C25.0633 21.3099 24.7586 21.7981 24.6074 22.3415C24.3641 23.0406 24.4027 23.8069 24.7149 24.478C25.0272 25.1491 25.5886 25.6722 26.2801 25.9363C26.8506 26.1364 27.4767 26.1057 28.0249 25.8508C28.5731 25.5959 29 25.1369 29.2146 24.5718C29.3877 24.1142 29.3739 23.607 29.1763 23.1596C28.9786 22.7121 28.6129 22.3603 28.1582 22.1801C27.5419 22.004 26.5442 22.0774 26.3241 22.9284C26.2214 23.3246 26.1627 24.0729 26.779 24.2343C26.9141 24.3038 27.0687 24.3257 27.2178 24.2964C27.367 24.2671 27.5018 24.1884 27.6006 24.0729C27.718 23.8968 27.718 23.9115 27.7033 23.7061M27.7327 30.9104C27.7478 30.8455 27.7463 30.7779 27.7283 30.7138C27.7104 30.6497 27.6765 30.5911 27.63 30.5435C27.5336 30.4292 27.4013 30.351 27.2547 30.3217C27.1081 30.2924 26.9559 30.3137 26.823 30.3821C26.192 30.5435 26.2507 31.2918 26.3534 31.7027C26.5882 32.5537 27.5713 32.6124 28.2022 32.4363C28.6568 32.2564 29.0216 31.9038 29.2168 31.4556C29.4121 31.0073 29.4218 30.5001 29.244 30.0447C29.0265 29.4822 28.5984 29.0266 28.0505 28.7745C27.5026 28.5225 26.8781 28.4939 26.3094 28.6948C25.6116 28.9466 25.042 29.4649 24.7257 30.1361C24.4094 30.8072 24.3721 31.5764 24.6221 32.2749C24.7693 32.7972 25.0584 33.2684 25.4573 33.6362C25.8562 34.004 26.3492 34.254 26.8817 34.3584C27.439 34.4449 27.9596 34.6902 28.3812 35.065C28.8027 35.4397 29.1074 35.9279 29.2586 36.4713C29.3841 36.818 29.4395 37.1861 29.4216 37.5544C29.4038 37.9226 29.3131 38.2836 29.1548 38.6166C28.9966 38.9496 28.7738 39.2478 28.4995 39.4941C28.2251 39.7404 27.9046 39.9298 27.5566 40.0514C26.9863 40.2555 26.3586 40.2267 25.8094 39.9713C25.2601 39.7159 24.8336 39.2544 24.6221 38.6869C24.532 38.4616 24.4875 38.2207 24.4912 37.9781C24.4949 37.7354 24.5467 37.496 24.6436 37.2735C24.7405 37.0511 24.8805 36.8501 25.0557 36.6822C25.2308 36.5142 25.4375 36.3827 25.6638 36.2952C26.2801 36.1338 27.2778 36.1925 27.4979 37.0435C27.6153 37.4544 27.6593 38.2027 27.0431 38.3641C26.9049 38.4246 26.7513 38.4402 26.6038 38.4086C26.4564 38.377 26.3226 38.2998 26.2214 38.188C26.104 38.0266 26.104 38.0266 26.1334 37.8212L27.7327 30.9104Z" stroke="black" stroke-width="0.57" stroke-miterlimit="3.86" stroke-linecap="round"/>
<path d="M33.1763 16.7953C33.1763 16.5899 33.1763 16.5899 33.2643 16.4285C33.3655 16.3167 33.4993 16.2395 33.6468 16.2079C33.7942 16.1763 33.9479 16.1919 34.086 16.2524C34.7023 16.4285 34.6582 17.1768 34.5555 17.5729C34.3208 18.424 33.323 18.4826 32.7068 18.3212C32.2602 18.133 31.9054 17.7768 31.7187 17.3295C31.5321 16.8822 31.5286 16.3795 31.709 15.9296C31.9206 15.362 32.3471 14.9006 32.8963 14.6452C33.4456 14.3898 34.0733 14.361 34.6436 14.565C34.9905 14.6883 35.3096 14.8787 35.5829 15.1253C35.8562 15.372 36.0782 15.67 36.2363 16.0025C36.3943 16.335 36.4853 16.6953 36.5041 17.063C36.5229 17.4306 36.469 17.7983 36.3456 18.1452C36.1984 18.6674 35.9093 19.1386 35.5104 19.5064C35.1115 19.8742 34.6185 20.1243 34.086 20.2287C33.5287 20.3152 33.008 20.5605 32.5865 20.9352C32.1649 21.3099 31.8603 21.7982 31.709 22.3416C31.5868 22.6931 31.5354 23.0654 31.5579 23.4369C31.5803 23.8084 31.6762 24.1718 31.8399 24.5061C32.0036 24.8403 32.232 25.1388 32.5117 25.3843C32.7915 25.6298 33.1171 25.8175 33.4698 25.9364C34.0401 26.1404 34.6678 26.1116 35.217 25.8562C35.7662 25.6008 36.1928 25.1394 36.4043 24.5718C36.5822 24.1164 36.5724 23.6091 36.3772 23.1609C36.1819 22.7127 35.8171 22.3601 35.3625 22.1802C34.7463 22.0041 33.7485 22.0775 33.5285 22.9285C33.4111 23.3246 33.3671 24.0729 33.9833 24.2343C34.119 24.3013 34.273 24.3218 34.4214 24.2926C34.5699 24.2635 34.7047 24.1863 34.805 24.0729C34.9224 23.8969 34.9224 23.9115 34.893 23.7061M34.9224 30.9104C34.9374 30.8456 34.9359 30.778 34.918 30.7138C34.9 30.6497 34.8662 30.5912 34.8196 30.5436C34.7209 30.4281 34.586 30.3494 34.4369 30.3201C34.2877 30.2908 34.1331 30.3127 33.998 30.3822C33.3817 30.5436 33.4404 31.2919 33.5431 31.7027C33.7632 32.5538 34.761 32.6124 35.3772 32.4364C35.832 32.2562 36.1976 31.9044 36.3953 31.4569C36.5929 31.0095 36.6067 30.5022 36.4336 30.0447C36.2162 29.4822 35.7881 29.0266 35.2402 28.7746C34.6923 28.5226 34.0677 28.4939 33.4991 28.6948C33.1455 28.8109 32.8183 28.9958 32.5366 29.239C32.2549 29.4822 32.0241 29.7788 31.8577 30.1117C31.6912 30.4446 31.5924 30.8072 31.5669 31.1785C31.5414 31.5498 31.5897 31.9224 31.709 32.275C31.8574 32.7991 32.1487 33.2716 32.5504 33.6396C32.952 34.0076 33.4482 34.2565 33.9833 34.3585C34.538 34.4476 35.0555 34.6941 35.4742 35.0686C35.893 35.4431 36.1954 35.93 36.3456 36.4714C36.469 36.8182 36.5229 37.1859 36.5041 37.5536C36.4853 37.9212 36.3943 38.2816 36.2363 38.614C36.0782 38.9465 35.8562 39.2446 35.5829 39.4912C35.3096 39.7379 34.9905 39.9282 34.6436 40.0515C34.0731 40.2516 33.447 40.2209 32.8988 39.966C32.3506 39.7111 31.9237 39.2521 31.709 38.6869C31.536 38.2294 31.5498 37.7222 31.7474 37.2747C31.9451 36.8273 32.3107 36.4755 32.7655 36.2953C33.3817 36.1339 34.3648 36.1926 34.5996 37.0436C34.7023 37.4544 34.761 38.2027 34.1447 38.3641C33.9393 38.3641 33.5578 38.5255 33.323 38.1881C33.2661 38.1473 33.2221 38.0911 33.1961 38.0261C33.1701 37.9611 33.1632 37.89 33.1763 37.8212L34.9224 30.9104Z" stroke="black" stroke-width="0.57" stroke-miterlimit="3.86" stroke-linecap="round"/>
<path d="M40.4835 16.7952C40.4654 16.7305 40.4654 16.6621 40.4835 16.5974C40.5016 16.5328 40.5371 16.4743 40.5862 16.4284C40.821 16.0909 41.2025 16.2083 41.4079 16.2523C42.0241 16.4284 41.9654 17.1767 41.8627 17.5729C41.628 18.4239 40.6449 18.4826 40.0286 18.3212C39.5739 18.141 39.2082 17.7892 39.0106 17.3417C38.8129 16.8943 38.7991 16.3871 38.9722 15.9295C39.1868 15.3644 39.6138 14.9054 40.162 14.6505C40.7102 14.3956 41.3362 14.3649 41.9067 14.565C42.6049 14.8171 43.1753 15.3347 43.494 16.005C43.8127 16.6754 43.854 17.4445 43.6088 18.1451C43.4604 18.6693 43.1691 19.1418 42.7674 19.5098C42.3658 19.8777 41.8696 20.1267 41.3345 20.2286C40.7772 20.3151 40.2565 20.5604 39.835 20.9352C39.4134 21.3099 39.1088 21.7981 38.9575 22.3415C38.7158 23.0443 38.7585 23.8138 39.0765 24.4855C39.3946 25.1572 39.9627 25.6779 40.6596 25.9363C41.2301 26.1364 41.8561 26.1057 42.4043 25.8508C42.9525 25.5959 43.3795 25.1369 43.5941 24.5718C43.7672 24.1142 43.7534 23.607 43.5557 23.1596C43.3581 22.7121 42.9924 22.3603 42.5377 22.1801C41.9214 22.004 40.9383 22.0774 40.7036 22.9284C40.6009 23.3246 40.5422 24.0729 41.1584 24.2343C41.2936 24.3038 41.4482 24.3257 41.5973 24.2964C41.7464 24.2671 41.8813 24.1884 41.9801 24.0729C42.0975 23.8968 42.0975 23.9115 42.0828 23.7061M42.0975 30.9104C42.112 30.8466 42.1116 30.7803 42.0963 30.7167C42.0811 30.653 42.0513 30.5938 42.0094 30.5435C41.9092 30.4302 41.7744 30.353 41.6259 30.3238C41.4774 30.2947 41.3235 30.3152 41.1878 30.3821C40.5715 30.5435 40.6155 31.2918 40.7183 31.7027C40.953 32.5537 41.9508 32.6124 42.567 32.4363C43.0216 32.2564 43.3864 31.9038 43.5817 31.4556C43.7769 31.0073 43.7866 30.5001 43.6088 30.0447C43.3944 29.4798 42.9667 29.0217 42.4177 28.7692C41.8688 28.5167 41.2427 28.49 40.6742 28.6948C40.3262 28.8164 40.0057 29.0058 39.7314 29.2521C39.457 29.4984 39.2343 29.7966 39.076 30.1296C38.9177 30.4626 38.827 30.8236 38.8092 31.1919C38.7914 31.5601 38.8468 31.9282 38.9722 32.2749C39.1194 32.7972 39.4085 33.2684 39.8074 33.6362C40.2063 34.004 40.6994 34.254 41.2318 34.3584C41.7891 34.4449 42.3098 34.6902 42.7313 35.065C43.1529 35.4397 43.4575 35.9279 43.6088 36.4713C43.7342 36.818 43.7896 37.1861 43.7718 37.5544C43.754 37.9226 43.6633 38.2836 43.505 38.6166C43.3467 38.9496 43.1239 39.2478 42.8496 39.4941C42.5752 39.7404 42.2548 39.9298 41.9067 40.0514C41.3364 40.2555 40.7087 40.2267 40.1595 39.9713C39.6103 39.7159 39.1837 39.2544 38.9722 38.6869C38.8821 38.4616 38.8376 38.2207 38.8413 37.9781C38.845 37.7354 38.8968 37.496 38.9937 37.2735C39.0906 37.0511 39.2307 36.8501 39.4058 36.6822C39.5809 36.5142 39.7876 36.3827 40.014 36.2952C40.6302 36.1338 41.628 36.1925 41.848 37.0435C41.9654 37.4544 42.0094 38.2027 41.3932 38.3641C41.2551 38.4246 41.1014 38.4402 40.954 38.4086C40.8065 38.377 40.6727 38.2998 40.5715 38.188C40.4541 38.0266 40.4541 38.0266 40.4835 37.8212L42.0975 30.9104Z" stroke="black" stroke-width="0.57" stroke-miterlimit="3.86" stroke-linecap="round"/>
<path d="M8.93701 8.91626V44.4975" stroke="black" stroke-linecap="round"/>
<path d="M16.1265 8.91626V44.4975" stroke="black" stroke-linecap="round"/>
<path d="M23.3018 8.91626V44.4975" stroke="black" stroke-linecap="round"/>
<path d="M30.4912 8.91626V44.4975" stroke="black" stroke-linecap="round"/>
<path d="M37.6807 8.91626V44.4975" stroke="black" stroke-linecap="round"/>
<path d="M44.856 8.91626V44.4975" stroke="black" stroke-linecap="round"/>
</g>
<defs>
<clipPath id="clip0">
<rect width="52" height="52" fill="white" transform="translate(0.896484 0.699463)"/>
</clipPath>
</defs>
</svg>
