<svg width="53" height="53" viewBox="0 0 53 53" fill="none" xmlns="http://www.w3.org/2000/svg">
<g clip-path="url(#clip0)">
<path d="M24.1821 8.9896L27.9237 17.3237M29.9632 7.31692L26.6031 16.2966L29.9632 7.31692ZM27.5275 4.93994L26.6325 15.5043L27.5275 4.93994Z" stroke="black" stroke-width="0.67" stroke-miterlimit="3.86" stroke-linecap="round"/>
<path d="M22.9935 17.3529C22.9209 15.5533 23.5405 13.7943 24.7249 12.4375H29.1267C30.3 13.7883 30.914 15.5357 30.8434 17.3235C30.8434 20.5808 29.0974 23.1926 26.9405 23.1926C24.7836 23.1926 23.0375 20.5515 23.0375 17.3235" fill="white"/>
<path d="M22.9935 17.3529C22.9209 15.5533 23.5405 13.7943 24.7249 12.4375H29.1267C30.3 13.7883 30.914 15.5357 30.8434 17.3235C30.8434 20.5808 29.0974 23.1926 26.9405 23.1926C24.7836 23.1926 22.9935 20.6102 22.9935 17.3529Z" stroke="black" stroke-width="0.67" stroke-linecap="round" stroke-linejoin="round"/>
<path d="M45.7653 1.43311H8.02717C4.49405 1.43311 1.62988 4.29727 1.62988 7.8304V45.5685C1.62988 49.1017 4.49405 51.9658 8.02717 51.9658H45.7653C49.2984 51.9658 52.1626 49.1017 52.1626 45.5685V7.8304C52.1626 4.29727 49.2984 1.43311 45.7653 1.43311Z" stroke="black" stroke-miterlimit="3.86"/>
<path d="M7.80744 22.9873H45.9564M2.59863 43.6024H51.1946H2.59863ZM41.6867 23.0607L43.8876 43.2503L41.6867 23.0607ZM12.1065 22.9873L9.90563 43.2503L12.1065 22.9873ZM11.8278 27.7266H41.9801H11.8278Z" stroke="black" stroke-miterlimit="3.86" stroke-linecap="round"/>
</g>
<defs>
<clipPath id="clip0">
<rect width="52" height="52" fill="white" transform="translate(0.896484 0.699463)"/>
</clipPath>
</defs>
</svg>
