<svg width="53" height="53" viewBox="0 0 53 53" fill="none" xmlns="http://www.w3.org/2000/svg">
<g clip-path="url(#clip0)">
<path d="M45.7653 1.43311H8.02717C4.49405 1.43311 1.62988 4.29727 1.62988 7.8304V45.5685C1.62988 49.1017 4.49405 51.9658 8.02717 51.9658H45.7653C49.2984 51.9658 52.1626 49.1017 52.1626 45.5685V7.8304C52.1626 4.29727 49.2984 1.43311 45.7653 1.43311Z" stroke="black" stroke-miterlimit="3.86"/>
<path d="M15.8774 26.3768H37.8865M34.6438 8.16797V26.3768L36.1111 46.6984L34.6438 8.16797ZM19.0908 8.16797V26.3768L17.6235 46.6984L19.0908 8.16797ZM19.0908 32.5393H34.7172H19.0908Z" stroke="black" stroke-miterlimit="3.86" stroke-linecap="round"/>
<path d="M36.0817 7.61035H17.7115C17.0227 7.61035 16.4644 8.16873 16.4644 8.85753V10.9411C16.4644 11.6298 17.0227 12.1882 17.7115 12.1882H36.0817C36.7705 12.1882 37.3289 11.6298 37.3289 10.9411V8.85753C37.3289 8.16873 36.7705 7.61035 36.0817 7.61035Z" fill="white"/>
<path d="M36.0817 7.61035H17.7115C17.0227 7.61035 16.4644 8.16873 16.4644 8.85753V10.9411C16.4644 11.6298 17.0227 12.1882 17.7115 12.1882H36.0817C36.7705 12.1882 37.3289 11.6298 37.3289 10.9411V8.85753C37.3289 8.16873 36.7705 7.61035 36.0817 7.61035Z" stroke="black" stroke-miterlimit="10"/>
<path d="M36.0817 7.61035H17.7115C17.0227 7.61035 16.4644 8.16873 16.4644 8.85753V10.9411C16.4644 11.6298 17.0227 12.1882 17.7115 12.1882H36.0817C36.7705 12.1882 37.3289 11.6298 37.3289 10.9411V8.85753C37.3289 8.16873 36.7705 7.61035 36.0817 7.61035Z" stroke="black" stroke-linecap="square" stroke-linejoin="round"/>
<path d="M24.9155 25.8631V12.8191M29.1559 25.8631V12.8191V25.8631Z" stroke="black" stroke-miterlimit="3.86" stroke-linecap="round"/>
</g>
<defs>
<clipPath id="clip0">
<rect width="52" height="52" fill="white" transform="translate(0.896484 0.699463)"/>
</clipPath>
</defs>
</svg>
