<svg width="53" height="53" viewBox="0 0 53 53" fill="none" xmlns="http://www.w3.org/2000/svg">
<g clip-path="url(#clip0)">
<path d="M2.01172 43.6023H51.5027" stroke="black" stroke-miterlimit="3.86" stroke-linecap="round"/>
<path d="M44.8851 19.9646H8.90771V36.8382H44.8851V19.9646Z" fill="white"/>
<path d="M44.8851 19.9646H8.90771V36.8382H44.8851V19.9646Z" stroke="black" stroke-miterlimit="10"/>
<path d="M44.8851 19.9646H8.90771V36.8382H44.8851V19.9646Z" stroke="black" stroke-linejoin="round"/>
<path d="M38.8696 44.9963H34.7319V48.3417H38.8696V44.9963Z" fill="white"/>
<path d="M38.8696 44.9963H34.7319V48.3417H38.8696V44.9963Z" stroke="black" stroke-width="0.5" stroke-linejoin="round"/>
<path d="M13.251 36.6328V20.2288" stroke="black" stroke-miterlimit="3.86" stroke-linecap="round"/>
<path d="M17.7993 36.6328V20.2288" stroke="black" stroke-miterlimit="3.86" stroke-linecap="round"/>
<path d="M22.3481 36.6328V20.2288" stroke="black" stroke-miterlimit="3.86" stroke-linecap="round"/>
<path d="M26.8965 36.6328V20.2288" stroke="black" stroke-miterlimit="3.86" stroke-linecap="round"/>
<path d="M31.4448 36.6328V20.2288" stroke="black" stroke-miterlimit="3.86" stroke-linecap="round"/>
<path d="M36.0083 36.6328V20.2288" stroke="black" stroke-miterlimit="3.86" stroke-linecap="round"/>
<path d="M40.5566 36.6328V20.2288" stroke="black" stroke-miterlimit="3.86" stroke-linecap="round"/>
<path d="M8.90771 43.3089V16.0764" stroke="black" stroke-miterlimit="3.86" stroke-linecap="round"/>
<path d="M44.8853 43.3089V16.0764" stroke="black" stroke-miterlimit="3.86" stroke-linecap="round"/>
<path d="M39.5446 41.7537H36.1992V44.967H39.5446V41.7537Z" fill="white"/>
<path d="M39.5446 41.7537H36.1992V44.967H39.5446V41.7537Z" stroke="black" stroke-width="0.5" stroke-linejoin="round"/>
<path d="M14.3075 49.1193C13.4994 48.4827 12.898 47.621 12.579 46.643C12.26 45.6649 12.2378 44.6144 12.5151 43.6237C12.7924 42.6331 13.3569 41.7467 14.1373 41.0765C14.9177 40.4062 15.8791 39.982 16.9003 39.8574C17.9214 39.7329 18.9566 39.9134 19.8753 40.3764C20.7939 40.8394 21.5549 41.564 22.0623 42.459C22.5697 43.3539 22.8007 44.379 22.7262 45.405C22.6517 46.431 22.2751 47.4121 21.6438 48.2243C21.2211 48.7651 20.6959 49.2172 20.0983 49.5549C19.5007 49.8926 18.8425 50.1092 18.1611 50.1923C17.4798 50.2754 16.7887 50.2234 16.1275 50.0393C15.4663 49.8552 14.8478 49.5426 14.3075 49.1193Z" fill="white"/>
<path d="M18.0344 54.0053C16.0976 52.5381 16.391 48.8992 18.68 45.9647C20.9689 43.0302 24.3876 41.8857 26.3244 43.4117C28.2612 44.9376 27.9824 48.5178 25.6935 51.4523C23.4046 54.3868 19.9712 55.5313 18.0344 54.0053ZM8.7172 46.669C6.78041 45.2017 7.05919 41.5482 9.34813 38.6284C11.6371 35.7085 15.0558 34.608 17.0366 36.1193C19.0174 37.6306 18.68 41.2401 16.4057 44.1746C14.1314 47.1092 10.654 48.239 8.7172 46.7277V46.669Z" stroke="black" stroke-width="0.71" stroke-miterlimit="3.86"/>
<path d="M14.3075 49.1193C13.4994 48.4827 12.898 47.621 12.579 46.643C12.26 45.6649 12.2378 44.6144 12.5151 43.6237C12.7924 42.6331 13.3569 41.7467 14.1373 41.0765C14.9177 40.4062 15.8791 39.982 16.9003 39.8574C17.9214 39.7329 18.9566 39.9134 19.8753 40.3764C20.7939 40.8394 21.5549 41.564 22.0623 42.459C22.5697 43.3539 22.8007 44.379 22.7262 45.405C22.6517 46.431 22.2751 47.4121 21.6438 48.2243C21.2211 48.7651 20.6959 49.2172 20.0983 49.5549C19.5007 49.8926 18.8425 50.1092 18.1611 50.1923C17.4798 50.2754 16.7887 50.2234 16.1275 50.0393C15.4663 49.8552 14.8478 49.5426 14.3075 49.1193Z" stroke="black" stroke-width="0.5" stroke-miterlimit="10"/>
<path d="M14.3075 49.1193C13.4994 48.4827 12.898 47.621 12.579 46.643C12.26 45.6649 12.2378 44.6144 12.5151 43.6237C12.7924 42.6331 13.3569 41.7467 14.1373 41.0765C14.9177 40.4062 15.8791 39.982 16.9003 39.8574C17.9214 39.7329 18.9566 39.9134 19.8753 40.3764C20.7939 40.8394 21.5549 41.564 22.0623 42.459C22.5697 43.3539 22.8007 44.379 22.7262 45.405C22.6517 46.431 22.2751 47.4121 21.6438 48.2243C21.2211 48.7651 20.6959 49.2172 20.0983 49.5549C19.5007 49.8926 18.8425 50.1092 18.1611 50.1923C17.4798 50.2754 16.7887 50.2234 16.1275 50.0393C15.4663 49.8552 14.8478 49.5426 14.3075 49.1193Z" stroke="black" stroke-width="0.5" stroke-miterlimit="3.86"/>
<path d="M37.8717 38.5549H34.5264V41.7683H37.8717V38.5549Z" fill="white"/>
<path d="M37.8717 38.5549H34.5264V41.7683H37.8717V38.5549Z" stroke="black" stroke-width="0.5" stroke-linejoin="round"/>
<path d="M34.3208 4.27958C34.3208 3.56745 34.6037 2.88448 35.1073 2.38093C35.6108 1.87738 36.2938 1.59448 37.0059 1.59448C37.7181 1.59448 38.401 1.87738 38.9046 2.38093C39.4082 2.88448 39.691 3.56745 39.691 4.27958C40.4032 4.27958 41.0861 4.56248 41.5897 5.06603C42.0933 5.56959 42.3761 6.25255 42.3761 6.96469C42.3761 7.67682 42.0933 8.35978 41.5897 8.86334C41.0861 9.36689 40.4032 9.64979 39.691 9.64979C39.691 10.3619 39.4082 11.0449 38.9046 11.5484C38.401 12.052 37.7181 12.3349 37.0059 12.3349C36.2938 12.3349 35.6108 12.052 35.1073 11.5484C34.6037 11.0449 34.3208 10.3619 34.3208 9.64979C33.6087 9.64979 32.9257 9.36689 32.4222 8.86334C31.9186 8.35978 31.6357 7.67682 31.6357 6.96469C31.6357 6.25255 31.9186 5.56959 32.4222 5.06603C32.9257 4.56248 33.6087 4.27958 34.3208 4.27958Z" fill="white"/>
<path d="M34.3208 4.27958C34.3208 3.56745 34.6037 2.88448 35.1073 2.38093C35.6108 1.87738 36.2938 1.59448 37.0059 1.59448C37.7181 1.59448 38.401 1.87738 38.9046 2.38093C39.4082 2.88448 39.691 3.56745 39.691 4.27958C40.4032 4.27958 41.0861 4.56248 41.5897 5.06603C42.0933 5.56959 42.3761 6.25255 42.3761 6.96469C42.3761 7.67682 42.0933 8.35978 41.5897 8.86334C41.0861 9.36689 40.4032 9.64979 39.691 9.64979C39.691 10.3619 39.4082 11.0449 38.9046 11.5484C38.401 12.052 37.7181 12.3349 37.0059 12.3349C36.2938 12.3349 35.6108 12.052 35.1073 11.5484C34.6037 11.0449 34.3208 10.3619 34.3208 9.64979C33.6087 9.64979 32.9257 9.36689 32.4222 8.86334C31.9186 8.35978 31.6357 7.67682 31.6357 6.96469C31.6357 6.25255 31.9186 5.56959 32.4222 5.06603C32.9257 4.56248 33.6087 4.27958 34.3208 4.27958V4.27958Z" stroke="black" stroke-width="0.5" stroke-linejoin="round"/>
<path d="M35.4946 6.96483C35.4946 6.67463 35.5807 6.39095 35.7419 6.14966C35.9031 5.90837 36.1323 5.7203 36.4004 5.60925C36.6685 5.49819 36.9635 5.46914 37.2482 5.52575C37.5328 5.58237 37.7942 5.72211 37.9994 5.92731C38.2046 6.13251 38.3444 6.39396 38.401 6.67858C38.4576 6.9632 38.4285 7.25822 38.3175 7.52633C38.2064 7.79444 38.0184 8.02359 37.7771 8.18482C37.5358 8.34604 37.2521 8.4321 36.9619 8.4321C36.5728 8.4321 36.1995 8.27751 35.9244 8.00234C35.6492 7.72718 35.4946 7.35397 35.4946 6.96483Z" fill="white"/>
<path d="M35.4946 6.96483C35.4946 6.67463 35.5807 6.39095 35.7419 6.14966C35.9031 5.90837 36.1323 5.7203 36.4004 5.60925C36.6685 5.49819 36.9635 5.46914 37.2482 5.52575C37.5328 5.58237 37.7942 5.72211 37.9994 5.92731C38.2046 6.13251 38.3444 6.39396 38.401 6.67858C38.4576 6.9632 38.4285 7.25822 38.3175 7.52633C38.2064 7.79444 38.0184 8.02359 37.7771 8.18482C37.5358 8.34604 37.2521 8.4321 36.9619 8.4321C36.5728 8.4321 36.1995 8.27751 35.9244 8.00234C35.6492 7.72718 35.4946 7.35397 35.4946 6.96483Z" stroke="black" stroke-width="0.5" stroke-miterlimit="3.86"/>
<path d="M45.7653 1.43311H8.02717C4.49405 1.43311 1.62988 4.29727 1.62988 7.8304V45.5685C1.62988 49.1017 4.49405 51.9658 8.02717 51.9658H45.7653C49.2984 51.9658 52.1626 49.1017 52.1626 45.5685V7.8304C52.1626 4.29727 49.2984 1.43311 45.7653 1.43311Z" stroke="black" stroke-miterlimit="3.86"/>
</g>
<defs>
<clipPath id="clip0">
<rect width="52" height="52" fill="white" transform="translate(0.896484 0.699463)"/>
</clipPath>
</defs>
</svg>
