<svg width="53" height="52" viewBox="0 0 53 52" fill="none" xmlns="http://www.w3.org/2000/svg">
<g clip-path="url(#clip0)">
<path d="M45.7653 1.41895H8.02717C4.49405 1.41895 1.62988 4.22803 1.62988 7.69321V44.7056C1.62988 48.1708 4.49405 50.9799 8.02717 50.9799H45.7653C49.2984 50.9799 52.1626 48.1708 52.1626 44.7056V7.69321C52.1626 4.22803 49.2984 1.41895 45.7653 1.41895Z" stroke="black" stroke-miterlimit="3.86"/>
<path d="M2.42236 33.7832H46.2057" stroke="black" stroke-miterlimit="3.86" stroke-linecap="round"/>
<path d="M41.8333 50.7353L40.4541 34.5891" stroke="black" stroke-linecap="round" stroke-linejoin="round"/>
<path d="M40.6152 33.7832H1.62988V37.8701H40.6152V33.7832Z" stroke="black" stroke-linecap="round" stroke-linejoin="round"/>
<path d="M22.0985 33.7977C20.644 29.2914 19.9695 24.5781 20.103 19.8532C20.103 19.7093 20.103 19.5654 20.3084 19.5654H34.1154C34.3061 19.5654 34.3061 19.7093 34.3208 19.8532C34.451 24.5768 33.7817 29.2889 32.34 33.7977H22.0691H22.0985Z" stroke="black" stroke-miterlimit="3.86"/>
<path d="M34.3943 23.5084C34.3436 23.478 34.2989 23.439 34.2622 23.3932C34.2622 22.8608 34.2622 22.3139 34.3356 21.7959C34.4236 21.7959 34.5263 21.911 34.629 21.7959C34.9011 21.4585 35.2546 21.193 35.6576 21.0232C36.0605 20.8534 36.5002 20.7846 36.937 20.8232C37.3738 20.8617 37.794 21.0064 38.1595 21.244C38.5251 21.4817 38.8245 21.8049 39.0308 22.1844C39.9552 24.2998 38.9575 26.8613 35.4801 28.4011C34.6785 28.7627 34.0375 29.3965 33.6753 30.1856H33.3672C33.4846 29.6243 33.602 29.0199 33.7047 28.4011C33.8445 28.2657 34.0025 28.1495 34.1742 28.0558C35.348 27.4657 36.1403 27.624 37.4902 26.1994C39.2069 24.3862 38.7667 22.0117 37.4022 21.5944C35.4214 20.9756 35.0105 23.8681 34.4676 23.5084" fill="black"/>
<path d="M34.3943 23.5084C34.3436 23.478 34.2989 23.439 34.2622 23.3932C34.2622 22.8608 34.2622 22.3139 34.3356 21.7959C34.4236 21.7959 34.5263 21.911 34.629 21.7959C34.9011 21.4585 35.2546 21.193 35.6576 21.0232C36.0605 20.8534 36.5002 20.7846 36.937 20.8232C37.3738 20.8617 37.794 21.0064 38.1595 21.244C38.5251 21.4817 38.8245 21.8049 39.0308 22.1844C39.9552 24.2998 38.9575 26.8613 35.4801 28.4011C34.6785 28.7627 34.0375 29.3965 33.6753 30.1856H33.3672C33.4846 29.6243 33.602 29.0199 33.7047 28.4011C33.8445 28.2657 34.0025 28.1495 34.1742 28.0558C35.348 27.4657 36.1403 27.624 37.4902 26.1994C39.2069 24.3862 38.7667 22.0117 37.4022 21.5944C35.4067 20.9756 34.9959 23.8681 34.3943 23.5084Z" stroke="black" stroke-width="0.35" stroke-miterlimit="3.86"/>
<path d="M26.9404 19.0906C27.3734 18.7188 27.6591 18.2093 27.7474 17.6516C27.7474 16.3852 26.0454 15.7377 26.0454 14.5289C26.0454 13.32 27.7474 12.5573 27.7474 11.3342C27.7474 10.111 26.0454 9.42022 26.0454 8.19702" stroke="black" stroke-width="0.5" stroke-miterlimit="3.86" stroke-linecap="round"/>
<path d="M22.2305 8.19702C22.2305 9.42022 23.9325 10.0678 23.9325 11.3342C23.9325 12.6005 22.2305 13.2049 22.2305 14.4569C22.2305 15.7089 23.9325 16.3133 23.9325 17.5796C23.8442 18.1374 23.5585 18.6468 23.1255 19.0187" stroke="black" stroke-width="0.5" stroke-miterlimit="3.86" stroke-linecap="round"/>
<path d="M30.7554 19.0906C31.1883 18.7188 31.474 18.2093 31.5624 17.6516C31.5624 16.3852 29.8604 15.7377 29.8604 14.5289C29.8604 13.32 31.5624 12.5573 31.5624 11.3342C31.5624 10.111 29.8604 9.42022 29.8604 8.19702" stroke="black" stroke-width="0.5" stroke-miterlimit="3.86" stroke-linecap="round"/>
</g>
<defs>
<clipPath id="clip0">
<rect width="52" height="51" fill="white" transform="translate(0.896484 0.699463)"/>
</clipPath>
</defs>
</svg>
