<svg width="53" height="52" viewBox="0 0 53 52" fill="none" xmlns="http://www.w3.org/2000/svg">
<g clip-path="url(#clip0)">
<path d="M45.7653 1.41895H8.02717C4.49405 1.41895 1.62988 4.22803 1.62988 7.69321V44.7056C1.62988 48.1708 4.49405 50.9799 8.02717 50.9799H45.7653C49.2984 50.9799 52.1626 48.1708 52.1626 44.7056V7.69321C52.1626 4.22803 49.2984 1.41895 45.7653 1.41895Z" stroke="black" stroke-miterlimit="3.86"/>
<path d="M26.8965 22.6307V19.364" stroke="black" stroke-miterlimit="3.86" stroke-linecap="round"/>
<path d="M45.8096 30.79H7.9834V39.669H45.8096V30.79Z" stroke="black" stroke-linejoin="round"/>
<path d="M18.9292 39.3092V31.0491M35.5974 39.3092V31.0491V39.3092Z" stroke="black" stroke-miterlimit="3.86" stroke-linecap="round"/>
<path d="M26.2067 35.2368C26.2047 35.1467 26.2211 35.0572 26.2549 34.9735C26.2887 34.8898 26.3392 34.8135 26.4034 34.7492C26.4677 34.6848 26.5443 34.6337 26.629 34.5988C26.7136 34.564 26.8045 34.546 26.8963 34.546C26.9963 34.5317 27.0983 34.5388 27.1953 34.5666C27.2923 34.5944 27.382 34.6423 27.4585 34.7072C27.5349 34.772 27.5962 34.8522 27.6382 34.9424C27.6802 35.0325 27.702 35.1305 27.702 35.2296C27.702 35.3287 27.6802 35.4266 27.6382 35.5168C27.5962 35.6069 27.5349 35.6871 27.4585 35.752C27.382 35.8168 27.2923 35.8648 27.1953 35.8926C27.0983 35.9204 26.9963 35.9274 26.8963 35.9131C26.7134 35.9131 26.538 35.8419 26.4087 35.715C26.2794 35.5882 26.2067 35.4161 26.2067 35.2368Z" fill="black"/>
<path d="M12.6349 35.2367C12.632 35.0989 12.6712 34.9634 12.7475 34.8477C12.8237 34.7319 12.9336 34.6411 13.0628 34.5871C13.1921 34.533 13.3349 34.5181 13.4729 34.5443C13.6109 34.5705 13.7377 34.6366 13.8371 34.7341C13.9364 34.8315 14.0038 34.9559 14.0305 35.0912C14.0572 35.2265 14.042 35.3666 13.9869 35.4934C13.9318 35.6202 13.8393 35.7279 13.7212 35.8027C13.6032 35.8775 13.465 35.9159 13.3245 35.9131C13.1416 35.9131 12.9662 35.8418 12.8369 35.715C12.7076 35.5881 12.6349 35.4161 12.6349 35.2367Z" fill="black"/>
<path d="M39.5739 35.2366C39.571 35.0994 39.6098 34.9645 39.6854 34.849C39.761 34.7336 39.8699 34.6428 39.9983 34.5883C40.1267 34.5338 40.2688 34.5181 40.4064 34.5431C40.5439 34.5681 40.6708 34.6327 40.7708 34.7287C40.8707 34.8247 40.9393 34.9477 40.9677 35.0821C40.9961 35.2165 40.983 35.3561 40.9301 35.4831C40.8773 35.6102 40.7871 35.7189 40.6709 35.7955C40.5548 35.8721 40.4181 35.913 40.2782 35.913C40.0939 35.913 39.9169 35.8422 39.7853 35.7158C39.6536 35.5893 39.5777 35.4173 39.5739 35.2366Z" fill="black"/>
<path d="M45.8096 1.39014H7.9834V13.9962H45.8096V1.39014Z" stroke="black" stroke-linejoin="round"/>
<path d="M36.5367 23.6235C35.9135 25.6281 34.6279 27.3722 32.8826 28.5811C31.1372 29.7901 29.0313 30.3951 26.8968 30.3007C24.7641 30.3943 22.6604 29.7888 20.9175 28.5797C19.1747 27.3707 17.8919 25.6269 17.2715 23.6235H36.5367Z" stroke="black" stroke-linecap="round" stroke-linejoin="round"/>
<path d="M31.6703 -69.1592L25.7876 -63.3896L91.5038 1.06281L97.3866 -4.70677L31.6703 -69.1592Z" fill="white"/>
<path d="M31.6703 -69.1592L25.7876 -63.3896L91.5038 1.06281L97.3866 -4.70677L31.6703 -69.1592Z" stroke="white" stroke-miterlimit="10"/>
<path d="M31.6703 -69.1592L25.7876 -63.3896L91.5038 1.06281L97.3866 -4.70677L31.6703 -69.1592Z" stroke="black" stroke-width="1.21" stroke-miterlimit="3.86"/>
<path d="M25.8012 -63.3931L-39.915 1.05933L-34.0323 6.82891L31.6839 -57.6235L25.8012 -63.3931Z" fill="white"/>
<path d="M25.8012 -63.3931L-39.915 1.05933L-34.0323 6.82891L31.6839 -57.6235L25.8012 -63.3931Z" stroke="black" stroke-width="1.21" stroke-miterlimit="3.86"/>
<path d="M31.6718 -57.6165L25.7891 -51.8469L91.5053 12.6055L97.388 6.83595L31.6718 -57.6165Z" fill="white"/>
<path d="M31.6718 -57.6165L25.7891 -51.8469L91.5053 12.6055L97.388 6.83595L31.6718 -57.6165Z" stroke="black" stroke-miterlimit="3.86"/>
<path d="M25.7924 -51.8607L-39.9238 12.5918L-34.0411 18.3614L31.6751 -46.0911L25.7924 -51.8607Z" fill="white"/>
<path d="M25.7924 -51.8607L-39.9238 12.5918L-34.0411 18.3614L31.6751 -46.0911L25.7924 -51.8607Z" stroke="black" stroke-width="1.21" stroke-miterlimit="3.86"/>
<path d="M31.6732 -46.0884L25.7905 -40.3188L91.5068 24.1336L97.3895 18.364L31.6732 -46.0884Z" fill="white"/>
<path d="M31.6732 -46.0884L25.7905 -40.3188L91.5068 24.1336L97.3895 18.364L31.6732 -46.0884Z" stroke="white" stroke-miterlimit="10"/>
<path d="M31.6732 -46.0884L25.7905 -40.3188L91.5068 24.1336L97.3895 18.364L31.6732 -46.0884Z" stroke="black" stroke-width="1.21" stroke-miterlimit="3.86"/>
<path d="M25.7939 -40.3182L-39.9224 24.1343L-34.0396 29.9039L31.6766 -34.5486L25.7939 -40.3182Z" fill="white"/>
<path d="M25.7939 -40.3182L-39.9224 24.1343L-34.0396 29.9039L31.6766 -34.5486L25.7939 -40.3182Z" stroke="black" stroke-width="1.21" stroke-miterlimit="3.86"/>
<path d="M31.6747 -34.5457L25.792 -28.7761L91.5082 35.6763L97.3909 29.9068L31.6747 -34.5457Z" fill="white"/>
<path d="M31.6747 -34.5457L25.792 -28.7761L91.5082 35.6763L97.3909 29.9068L31.6747 -34.5457Z" stroke="white" stroke-miterlimit="10"/>
<path d="M31.6747 -34.5457L25.792 -28.7761L91.5082 35.6763L97.3909 29.9068L31.6747 -34.5457Z" stroke="black" stroke-miterlimit="3.86"/>
<path d="M25.7953 -28.7755L-39.9209 35.677L-34.0382 41.4466L31.678 -23.0059L25.7953 -28.7755Z" fill="white"/>
<path d="M25.8401 -17.2456L31.7092 -23.0018L97.3841 41.4389L91.5151 47.1951L25.8401 -17.2456ZM25.8401 -28.7581L31.7092 -23.0018L-34.0391 41.4389L-39.9082 35.6827L25.8401 -28.7581Z" stroke="black" stroke-width="1.21" stroke-miterlimit="3.86"/>
</g>
<defs>
<clipPath id="clip0">
<rect width="52" height="51" fill="white" transform="translate(0.896484 0.699463)"/>
</clipPath>
</defs>
</svg>
