<svg width="53" height="52" viewBox="0 0 53 52" fill="none" xmlns="http://www.w3.org/2000/svg">
<g clip-path="url(#clip0)">
<path d="M39.3838 1.21851L52.2712 13.8581" stroke="black" stroke-width="1.21" stroke-miterlimit="3.86"/>
<path d="M25.8036 -12.1036L-39.9126 52.3489L-34.0299 58.1185L31.6864 -6.334L25.8036 -12.1036Z" fill="white"/>
<path d="M25.8036 -12.1036L-39.9126 52.3489L-34.0299 58.1185L31.6864 -6.334L25.8036 -12.1036Z" stroke="black" stroke-width="1.21" stroke-miterlimit="3.86"/>
<path d="M31.6737 -6.34136L25.791 -0.571777L91.5073 63.8807L97.39 58.1111L31.6737 -6.34136Z" fill="white"/>
<path d="M31.6737 -6.34136L25.791 -0.571777L91.5073 63.8807L97.39 58.1111L31.6737 -6.34136Z" stroke="black" stroke-miterlimit="3.86"/>
<path d="M25.7944 -0.57111L-39.9219 63.8813L-34.0392 69.6509L31.6771 5.19847L25.7944 -0.57111Z" fill="white"/>
<path d="M25.7944 -0.57111L-39.9219 63.8813L-34.0392 69.6509L31.6771 5.19847L25.7944 -0.57111Z" stroke="black" stroke-width="1.21" stroke-miterlimit="3.86"/>
<path d="M31.6752 5.20136L25.7925 10.9709L91.5087 75.4234L97.3914 69.6538L31.6752 5.20136Z" fill="white"/>
<path d="M31.6752 5.20136L25.7925 10.9709L91.5087 75.4234L97.3914 69.6538L31.6752 5.20136Z" stroke="white" stroke-miterlimit="10"/>
<path d="M31.6752 5.20136L25.7925 10.9709L91.5087 75.4234L97.3914 69.6538L31.6752 5.20136Z" stroke="black" stroke-width="1.21" stroke-miterlimit="3.86"/>
<path d="M25.7958 10.9716L-39.9204 75.4241L-34.0377 81.1937L31.6785 16.7412L25.7958 10.9716Z" fill="white"/>
<path d="M25.7958 10.9716L-39.9204 75.4241L-34.0377 81.1937L31.6785 16.7412L25.7958 10.9716Z" stroke="black" stroke-width="1.21" stroke-miterlimit="3.86"/>
<path d="M31.6767 16.7441L25.7939 22.5137L91.5102 86.9661L97.3929 81.1966L31.6767 16.7441Z" fill="white"/>
<path d="M31.6767 16.7441L25.7939 22.5137L91.5102 86.9661L97.3929 81.1966L31.6767 16.7441Z" stroke="black" stroke-miterlimit="3.86"/>
<path d="M25.7973 22.5141L-39.9189 86.9666L-34.0362 92.7361L31.68 28.2837L25.7973 22.5141Z" fill="white"/>
<path d="M1.3374 46.5037L25.7972 22.5142L31.6799 28.2838L8.12065 51.39" stroke="black" stroke-width="1.21" stroke-miterlimit="3.86"/>
<path d="M31.6679 28.2763L25.7852 34.0459L91.5014 98.4984L97.3841 92.7288L31.6679 28.2763Z" fill="white"/>
<path d="M31.6679 28.2763L25.7852 34.0459L91.5014 98.4984L97.3841 92.7288L31.6679 28.2763Z" stroke="white" stroke-miterlimit="10"/>
<path d="M51.1405 47.3744L31.6679 28.2763L25.7852 34.0459L43.2423 51.1673" stroke="black" stroke-width="1.21" stroke-miterlimit="3.86"/>
<path d="M25.7885 34.0322L-39.9277 98.4846L-34.045 104.254L31.6712 39.8017L25.7885 34.0322Z" fill="white"/>
<path d="M25.7885 34.0322L-39.9277 98.4846L-34.045 104.254L31.6712 39.8017L25.7885 34.0322Z" stroke="black" stroke-width="1.21" stroke-miterlimit="3.86"/>
<path d="M31.684 39.819L25.8013 45.5886L91.5175 110.041L97.4002 104.272L31.684 39.819Z" fill="white"/>
<path d="M31.684 39.819L25.8013 45.5886L91.5175 110.041L97.4002 104.272L31.684 39.819Z" stroke="white" stroke-miterlimit="10"/>
<path d="M31.684 39.819L25.8013 45.5886L91.5175 110.041L97.4002 104.272L31.684 39.819Z" stroke="black" stroke-miterlimit="3.86"/>
<path d="M25.79 45.5749L-39.9263 110.027L-34.0436 115.797L31.6727 51.3445L25.79 45.5749Z" fill="white"/>
<path d="M25.8401 57.1245L31.7092 51.3683L97.3841 115.823L91.5151 121.58L25.8401 57.1245ZM25.8401 45.6121L31.7092 51.3683L-34.0391 115.823L-39.9082 110.067L25.8401 45.6121Z" stroke="black" stroke-width="1.21" stroke-miterlimit="3.86"/>
<path d="M45.7653 1.41895H8.02717C4.49405 1.41895 1.62988 4.22803 1.62988 7.69321V44.7056C1.62988 48.1708 4.49405 50.9799 8.02717 50.9799H45.7653C49.2984 50.9799 52.1626 48.1708 52.1626 44.7056V7.69321C52.1626 4.22803 49.2984 1.41895 45.7653 1.41895Z" stroke="black" stroke-miterlimit="3.86"/>
</g>
<defs>
<clipPath id="clip0">
<rect width="52" height="51" fill="white" transform="translate(0.896484 0.699463)"/>
</clipPath>
</defs>
</svg>
