<svg width="53" height="52" viewBox="0 0 53 52" fill="none" xmlns="http://www.w3.org/2000/svg">
<g clip-path="url(#clip0)">
<path d="M45.7653 0.733643H8.02717C4.49405 0.733643 1.62988 3.59781 1.62988 7.13093V44.8691C1.62988 48.4022 4.49405 51.2664 8.02717 51.2664H45.7653C49.2985 51.2664 52.1626 48.4022 52.1626 44.8691V7.13093C52.1626 3.59781 49.2985 0.733643 45.7653 0.733643Z" stroke="black" stroke-miterlimit="3.86"/>
<path d="M2.01172 42.9028H51.5027" stroke="black" stroke-miterlimit="3.86" stroke-linecap="round"/>
<path d="M45.7802 20.0869H8.02734V36.9605H45.7802V20.0869Z" fill="white"/>
<path d="M45.7802 20.0869H8.02734V36.9605H45.7802V20.0869Z" stroke="black" stroke-linejoin="round"/>
<path d="M18.9585 36.7551V20.3511M35.6267 36.7551V20.3511V36.7551Z" stroke="black" stroke-miterlimit="3.86" stroke-linecap="round"/>
<path d="M21.4385 22.8015C21.4385 22.6622 21.4798 22.526 21.5572 22.4102C21.6346 22.2944 21.7446 22.2041 21.8732 22.1508C22.0019 22.0975 22.1435 22.0835 22.2802 22.1107C22.4168 22.1379 22.5423 22.205 22.6408 22.3034C22.7393 22.4019 22.8063 22.5274 22.8335 22.6641C22.8607 22.8007 22.8467 22.9423 22.7934 23.071C22.7401 23.1997 22.6499 23.3097 22.534 23.387C22.4182 23.4644 22.2821 23.5057 22.1428 23.5057C21.956 23.5057 21.7768 23.4315 21.6448 23.2995C21.5127 23.1674 21.4385 22.9882 21.4385 22.8015Z" fill="black"/>
<path d="M8.58496 26.1028H18.7091M36.1109 26.1028H45.6335H36.1109Z" stroke="black" stroke-miterlimit="3.86" stroke-linecap="round"/>
<path d="M12.708 22.8015C12.708 22.6622 12.7493 22.526 12.8267 22.4102C12.9041 22.2944 13.0141 22.2041 13.1428 22.1508C13.2715 22.0975 13.4131 22.0835 13.5497 22.1107C13.6863 22.1379 13.8118 22.205 13.9103 22.3034C14.0088 22.4019 14.0759 22.5274 14.1031 22.6641C14.1302 22.8007 14.1163 22.9423 14.063 23.071C14.0097 23.1997 13.9194 23.3097 13.8036 23.387C13.6878 23.4644 13.5516 23.5057 13.4123 23.5057C13.2267 23.502 13.0497 23.4266 12.9184 23.2953C12.7872 23.164 12.7118 22.9871 12.708 22.8015Z" fill="black"/>
<path d="M39.6177 22.8015C39.6177 22.6622 39.659 22.526 39.7364 22.4102C39.8138 22.2944 39.9238 22.2041 40.0524 22.1508C40.1811 22.0975 40.3227 22.0835 40.4594 22.1107C40.596 22.1379 40.7215 22.205 40.82 22.3034C40.9185 22.4019 40.9855 22.5274 41.0127 22.6641C41.0399 22.8007 41.026 22.9423 40.9726 23.071C40.9193 23.1997 40.8291 23.3097 40.7132 23.387C40.5974 23.4644 40.4613 23.5057 40.322 23.5057C40.1352 23.5057 39.956 23.4315 39.824 23.2995C39.6919 23.1674 39.6177 22.9882 39.6177 22.8015Z" fill="black"/>
<path d="M44.2101 42.727L42.7429 37.1514M9.53857 42.727L11.0058 37.1514L9.53857 42.727Z" stroke="black" stroke-miterlimit="3.86" stroke-linecap="round"/>
<path d="M34.585 0.733643H19.208V9.18511H34.585V0.733643Z" stroke="black" stroke-linejoin="round"/>
<path d="M20.5433 14.6726V18.825H17.2273V14.6726H20.5433ZM14.9677 12.7505V18.825H10.5659V12.7505H14.9677Z" stroke="black" stroke-width="0.71" stroke-linejoin="round"/>
</g>
<defs>
<clipPath id="clip0">
<rect width="52" height="52" fill="white" transform="translate(0.896484)"/>
</clipPath>
</defs>
</svg>
