<svg width="53" height="53" viewBox="0 0 53 53" fill="none" xmlns="http://www.w3.org/2000/svg">
<g clip-path="url(#clip0)">
<path d="M26.8081 21.197V18.9961" stroke="black" stroke-miterlimit="3.86" stroke-linecap="round"/>
<path d="M55.2586 26.7288H-1.62744V56.2796H55.2586V26.7288Z" fill="white"/>
<path d="M55.2586 26.7288H-1.62744V56.2796H55.2586V26.7288Z" stroke="black" stroke-miterlimit="3.86"/>
<path d="M34.5113 33.2581H19.1196V44.9522H34.5113V33.2581Z" fill="white"/>
<path d="M34.5113 33.2581H19.1196V44.9522H34.5113V33.2581Z" stroke="black" stroke-linecap="square" stroke-linejoin="round"/>
<path d="M31.298 0.449951H22.3477V7.09668H31.298V0.449951Z" fill="white"/>
<path d="M31.298 0.449951H22.3477V7.09668H31.298V0.449951Z" stroke="black" stroke-linecap="square" stroke-linejoin="round"/>
<path d="M14.395 51.6137V27.301M39.2359 51.6137V27.301V51.6137Z" stroke="black" stroke-miterlimit="3.86" stroke-linecap="round"/>
<path d="M25.752 30.0449C25.752 29.8324 25.8152 29.6248 25.9335 29.4483C26.0519 29.2719 26.22 29.1346 26.4166 29.054C26.6132 28.9734 26.8293 28.953 27.0375 28.9956C27.2456 29.0381 27.4365 29.1416 27.5856 29.2928C27.7348 29.4441 27.8357 29.6363 27.8753 29.8451C27.915 30.0538 27.8917 30.2696 27.8084 30.465C27.725 30.6605 27.5855 30.8267 27.4074 30.9427C27.2293 31.0586 27.0208 31.1189 26.8084 31.116C26.5269 31.1121 26.2582 30.9976 26.0605 30.7971C25.8628 30.5967 25.7519 30.3264 25.752 30.0449Z" fill="black"/>
<path d="M29.9629 30.0447C29.9629 29.8329 30.0257 29.6258 30.1434 29.4497C30.2611 29.2735 30.4284 29.1362 30.6241 29.0552C30.8198 28.9741 31.0352 28.9529 31.243 28.9942C31.4507 29.0355 31.6416 29.1376 31.7914 29.2874C31.9412 29.4372 32.0432 29.628 32.0845 29.8358C32.1259 30.0436 32.1046 30.2589 32.0236 30.4546C31.9425 30.6504 31.8052 30.8176 31.6291 30.9353C31.4529 31.053 31.2458 31.1158 31.034 31.1158C30.7499 31.1158 30.4775 31.003 30.2766 30.8021C30.0757 30.6013 29.9629 30.3288 29.9629 30.0447Z" fill="black"/>
<path d="M21.5259 30.0447C21.5259 29.8329 21.5887 29.6258 21.7064 29.4497C21.8241 29.2735 21.9914 29.1362 22.1871 29.0552C22.3828 28.9741 22.5982 28.9529 22.8059 28.9942C23.0137 29.0355 23.2046 29.1376 23.3544 29.2874C23.5042 29.4372 23.6062 29.628 23.6475 29.8358C23.6888 30.0436 23.6676 30.2589 23.5866 30.4546C23.5055 30.6504 23.3682 30.8176 23.1921 30.9353C23.0159 31.053 22.8088 31.1158 22.597 31.1158C22.3129 31.1158 22.0405 31.003 21.8396 30.8021C21.6387 30.6013 21.5259 30.3288 21.5259 30.0447Z" fill="black"/>
<path d="M-0.0869141 32.8472H13.8962" stroke="black" stroke-miterlimit="3.86" stroke-linecap="round"/>
<path d="M19.208 21.4172H34.4236" stroke="black" stroke-miterlimit="3.86" stroke-linecap="round"/>
<path d="M31.9584 20.2874H21.6729V25.7309H31.9584V20.2874Z" fill="white"/>
<path d="M31.9584 20.2874H21.6729V25.7309H31.9584V20.2874Z" stroke="black" stroke-linecap="square" stroke-linejoin="round"/>
<path d="M39.647 32.8472H55.4348" stroke="black" stroke-miterlimit="3.86" stroke-linecap="round"/>
<path d="M38.1356 6.68579H15.4956V8.59324H38.1356V6.68579Z" fill="white"/>
<path d="M38.1356 6.68579H15.4956V8.59324H38.1356V6.68579Z" stroke="black" stroke-linecap="square" stroke-linejoin="round"/>
<path d="M45.7653 1.43311H8.02717C4.49405 1.43311 1.62988 4.29727 1.62988 7.8304V45.5685C1.62988 49.1017 4.49405 51.9658 8.02717 51.9658H45.7653C49.2984 51.9658 52.1626 49.1017 52.1626 45.5685V7.8304C52.1626 4.29727 49.2984 1.43311 45.7653 1.43311Z" stroke="black" stroke-miterlimit="3.86"/>
</g>
<defs>
<clipPath id="clip0">
<rect width="52" height="52" fill="white" transform="translate(0.896484 0.699463)"/>
</clipPath>
</defs>
</svg>
