<svg width="52" height="53" viewBox="0 0 52 53" fill="none" xmlns="http://www.w3.org/2000/svg">
<g clip-path="url(#clip0)">
<path d="M44.9029 1.43311H7.89048C4.4253 1.43311 1.61621 4.29727 1.61621 7.8304V45.5685C1.61621 49.1017 4.4253 51.9658 7.89048 51.9658H44.9029C48.3681 51.9658 51.1772 49.1017 51.1772 45.5685V7.8304C51.1772 4.29727 48.3681 1.43311 44.9029 1.43311Z" stroke="black" stroke-miterlimit="3.86"/>
<path d="M15.5633 20.4752L18.5335 18.1863V37.1317H22.5053V12.4111H19.6387L13.4565 17.1299L15.5633 20.4752Z" fill="black"/>
<path d="M33.7186 37.1317V24.4193L43.5962 37.1317H48.984L38.4156 23.9615L48.3624 12.4816H43.2509L33.7186 24.1728V12.4816H29.4705V37.1317H33.7186Z" fill="black"/>
</g>
<defs>
<clipPath id="clip0">
<rect width="51" height="52" fill="white" transform="translate(0.896484 0.699463)"/>
</clipPath>
</defs>
</svg>
