<svg width="52" height="53" viewBox="0 0 52 53" fill="none" xmlns="http://www.w3.org/2000/svg">
<g clip-path="url(#clip0)">
<path d="M44.9029 1.43311H7.89048C4.4253 1.43311 1.61621 4.29727 1.61621 7.8304V45.5685C1.61621 49.1017 4.4253 51.9658 7.89048 51.9658H44.9029C48.3681 51.9658 51.1772 49.1017 51.1772 45.5685V7.8304C51.1772 4.29727 48.3681 1.43311 44.9029 1.43311Z" stroke="black" stroke-miterlimit="3.86"/>
<path d="M26.0773 37.1318V33.3638H16.0269C16.614 32.8708 17.2012 32.3778 17.7192 31.8848C18.2718 31.3566 19.0317 30.5819 19.9987 29.4902C21.0003 28.3986 21.8292 27.3422 22.5199 26.3209C23.2107 25.2997 23.8323 24.0672 24.3504 22.6939C24.8684 21.2853 25.1447 19.9471 25.1447 18.6442C25.1447 16.8835 24.5576 15.3693 23.3488 14.1015C22.14 12.8338 20.4822 12.2 18.3064 12.2C14.4727 12.2 11.7098 14.4185 11.0535 18.0455L14.3691 19.5598C14.8872 17.4469 16.1651 16.2496 17.8574 16.2496C19.826 16.2496 20.9312 17.4469 20.9312 19.4541C20.9312 21.7431 19.5152 24.525 16.6486 27.8704C15.7161 28.962 13.8165 30.9693 10.8809 33.8921V37.1318H26.0773Z" fill="black"/>
<path d="M35.313 37.1318V24.4194L45.1906 37.1318H50.5785L40.0101 23.9616L49.9568 12.4817H44.8453L35.313 24.1729V12.4817H31.0649V37.1318H35.313Z" fill="black"/>
</g>
<defs>
<clipPath id="clip0">
<rect width="51" height="52" fill="white" transform="translate(0.896484 0.699463)"/>
</clipPath>
</defs>
</svg>
