<svg width="52" height="53" viewBox="0 0 52 53" fill="none" xmlns="http://www.w3.org/2000/svg">
<g clip-path="url(#clip0)">
<path d="M44.9029 1.43311H7.89048C4.4253 1.43311 1.61621 4.29727 1.61621 7.8304V45.5685C1.61621 49.1017 4.4253 51.9658 7.89048 51.9658H44.9029C48.3681 51.9658 51.1772 49.1017 51.1772 45.5685V7.8304C51.1772 4.29727 48.3681 1.43311 44.9029 1.43311Z" stroke="black" stroke-miterlimit="3.86"/>
<path d="M18.0301 37.5191C20.3095 37.5191 22.2091 36.85 23.6942 35.5471C25.1793 34.2089 25.9391 32.413 25.9391 30.1945C25.9391 27.2012 24.2468 24.8419 21.3111 24.3137V24.208C23.7632 23.1164 25.0066 21.1444 25.0066 18.3624C25.0066 14.524 22.2436 12.0942 18.0646 12.0942C14.6454 12.0942 12.2623 13.362 10.9154 15.9326L13.1258 18.785C14.3 17.0243 15.8197 16.1439 17.6847 16.1439C19.7224 16.1439 20.7585 17.306 20.7585 19.1371C20.7585 21.1444 19.1007 22.5177 17.0285 22.5177H15.4743V26.5674H17.2012C19.9987 26.5674 21.691 27.7999 21.691 30.0536C21.691 32.0256 20.275 33.4694 17.7883 33.4694C15.6815 33.4694 13.9547 32.4482 12.6077 30.4058L10.3628 33.3638C11.6407 35.9344 14.4382 37.5191 18.0301 37.5191Z" fill="black"/>
<path d="M35.5154 37.1317V24.4193L45.393 37.1317H50.7808L40.2124 23.9615L50.1591 12.4816H45.0476L35.5154 24.1728V12.4816H31.2673V37.1317H35.5154Z" fill="black"/>
</g>
<defs>
<clipPath id="clip0">
<rect width="51" height="52" fill="white" transform="translate(0.896484 0.699463)"/>
</clipPath>
</defs>
</svg>
