<svg width="52" height="52" viewBox="0 0 52 52" fill="none" xmlns="http://www.w3.org/2000/svg">
<g clip-path="url(#clip0)">
<path d="M103.342 1.00183C76.6624 -12.4821 62.4158 -21.3467 40.0241 -41.4214C9.80405 -68.7634 -17.4228 -107.92 -38.6344 -142.86C-75.8915 -196.738 -55.4857 -248.645 -52.1471 -307.473C-48.5063 -372.13 -31.5255 -409.056 2.68074 -462.891C27.1446 -501.659 56.5157 -514.481 90.5637 -542.859C145.133 -586.765 191.556 -584.592 254.903 -581.397C339.074 -577.411 355.047 -580.677 433.677 -537.506C484.144 -502.853 500.19 -466.388 533.835 -419.273C565.393 -375.094 567.796 -311.906 562.875 -245.911C556.759 -162.446 548.254 -102.121 472.934 -50.4875C409.731 -7.20081 332.209 56.1031 249.766 45.1375C190.434 37.3379 157.192 28.4589 103.342 1.00183ZM110.336 -12.7699C162.372 13.7518 193.888 22.2854 251.781 29.826C328.583 40.0433 405.27 -22.8577 464.271 -63.2519C533.346 -110.568 541.462 -164.201 547.549 -247.076C552.456 -313.129 549.348 -371.108 521.329 -410.322C489.44 -454.933 473.121 -491.672 425.647 -524.382C350.212 -565.769 335.145 -562.128 254.241 -566.028C190.923 -569.165 150.025 -570.863 100.392 -530.929C68.9203 -504.71 38.2973 -490.219 15.8337 -454.66C-17.6099 -402.105 -33.2524 -367.698 -36.7061 -306.61C-39.7425 -252.732 -59.587 -200.12 -25.6398 -151.192C-25.5391 -151.005 13.8046 -85.9026 50.3853 -52.8187C71.5106 -33.924 84.5628 -25.7933 110.336 -12.7699Z" fill="#EB1C24"/>
<path d="M-21.2796 -113.532C-31.1083 -129.549 -36.404 -147.667 -45.873 -191.155L-48.9094 -205.718C-57.5437 -327.822 -42.261 -466.877 90.8225 -525.936C135.03 -545.392 161.422 -553.048 207.717 -565.078C271.884 -581.814 322.524 -585.225 381.022 -548.356C402.938 -534.7 421.934 -518.439 441.246 -501.429C510.004 -440.485 555.938 -392.622 559.248 -297.789C562.126 -217.763 544.253 -167.353 499.01 -101.372C481.597 -75.8581 459.076 -58.5751 436.368 -38.3132C406.09 -11.3598 386.245 11.2477 344.081 22.2852C290.836 36.5031 257.292 31.1642 203.702 21.5082C163.926 14.3129 142.413 9.99573 104.479 -1.86206C71.8558 -12.0649 48.2554 -21.059 26.5545 -50.171C11.3293 -71.3682 -7.62301 -91.2703 -21.2796 -113.532ZM-8.11229 -121.62C5.32846 -99.7176 24.0937 -80.0889 39.0598 -59.2227C57.6668 -34.327 77.1659 -26.6425 109.07 -16.5692C146.24 -5.05676 167.409 -0.739624 206.45 6.28296C259.695 15.8815 290.318 20.6735 340.138 7.3335C378.993 -2.82623 397.988 -24.8293 426.107 -49.8544C447.808 -69.2097 469.639 -85.73 486.274 -110.108C529.935 -173.8 546.498 -221.015 543.836 -297.271C540.742 -385.297 499.225 -429.361 431.014 -489.859C412.307 -506.307 394.031 -522.065 372.848 -535.261C319.603 -568.906 273.942 -566.402 211.674 -550.141C166.301 -538.341 140.455 -530.872 97.1256 -511.819C-20.2435 -459.797 -42.851 -339.852 -33.6411 -207.848L-30.763 -194.35C-21.222 -150.588 -16.3724 -135.061 -8.11229 -121.62Z" fill="#F6961D"/>
<path d="M-12.933 -180.304C-19.6322 -190.283 -23.9365 -201.674 -25.5103 -213.59L-26.3306 -230.11C-19.567 -293.428 -37.7566 -335.722 4.16295 -393.917C63.2648 -476.044 106.134 -531.433 206.508 -557.264C300.795 -581.541 394.29 -525.303 462.832 -462.287C497.758 -430.109 522.941 -400.997 531.331 -351.811C540.771 -295.99 546.283 -259.481 531.331 -203.185C518.106 -152.818 497.83 -127.218 468.876 -85.8737C445.117 -51.8401 429.029 -35.1472 390.62 -17.4756C337.318 7.1322 301.773 18.6733 241.88 12.212C187.613 6.45581 150.558 5.86584 102.709 -24.9874C48.6728 -59.9132 29.2744 -97.1559 3.41464 -153.279C-1.04642 -163.007 -7.148 -171.325 -12.933 -180.232V-180.304ZM0.0184746 -188.636C6.22079 -179.081 12.6534 -170.173 17.431 -159.726C43.0605 -104.222 60.9192 -70.404 111.085 -37.9677C156.415 -8.76935 192.074 -8.66858 243.477 -3.17139C299.5 2.88702 332.109 -7.48859 384.188 -31.4632C419.43 -47.6813 433.562 -62.2014 456.241 -94.6808C483.986 -134.312 503.73 -158.963 516.422 -207.071C530.41 -259.97 525.445 -293.687 516.048 -349.177C508.536 -393.284 486.447 -419.46 452.327 -450.875C384.432 -513.33 296.42 -564.474 210.322 -542.312C115.733 -517.949 75.6263 -466.776 16.7259 -384.894C-21.7112 -331.577 -4.70161 -288.55 -10.8464 -229.664L-10.1412 -215.086C-8.85656 -205.62 -5.3721 -196.586 0.0328655 -188.708" fill="#008C44"/>
<path d="M40.9021 -408.783C54.2277 -430.239 68.9924 -451.321 82.721 -472.49L90.8372 -479.167C135.448 -546.529 210.854 -531.491 278.101 -528.224C391.196 -522.684 470.819 -467.899 518.998 -365.798C561.148 -276.361 560.832 -195.616 508.608 -110.625C495.153 -88.7663 482.13 -70.9508 466.588 -50.5739C426.554 1.59174 381.885 21.3787 316.927 21.3787C249.982 21.3787 210.955 15.162 147.521 -7.40228C113.143 -19.5479 90.7221 -27.7649 64.2148 -54.3154C41.0892 -77.4122 35.9086 -98.1057 21.0432 -125.318C-19.2502 -199.329 -25.7979 -263.899 6.65269 -341.953C16.14 -365.167 27.5984 -387.525 40.9021 -408.783ZM54.0263 -400.623C41.1442 -380.083 30.0468 -358.475 20.8561 -336.039C-9.55103 -262.733 -3.60775 -203.013 34.6279 -132.701C48.1406 -107.934 54.4292 -85.917 75.094 -65.2378C99.5579 -40.7739 118.654 -33.9672 152.659 -21.9367C214.365 -0.0055542 251.637 5.93774 316.912 5.93774C377.482 5.93774 417.444 -11.9066 454.313 -59.9565C469.538 -79.8874 482.274 -97.3143 495.441 -118.742C544.671 -198.839 545.189 -274.015 505.011 -359.236C459.22 -456.3 384.605 -507.559 277.353 -512.826C215.186 -515.834 143.104 -531.332 102.479 -468.762L94.4349 -462.071C78.8499 -438.082 65.8697 -419.604 54.1414 -400.623" fill="#00AEEF"/>
<path d="M44.9029 1.41895H7.89048C4.4253 1.41895 1.61621 4.22803 1.61621 7.69321V44.7056C1.61621 48.1708 4.4253 50.9799 7.89048 50.9799H44.9029C48.3681 50.9799 51.1772 48.1708 51.1772 44.7056V7.69321C51.1772 4.22803 48.3681 1.41895 44.9029 1.41895Z" stroke="black" stroke-miterlimit="3.86"/>
<path d="M14.2943 14.0971L38.5135 38.3163L14.2943 14.0971ZM8.66757 26.1995C8.65618 22.6906 9.68628 19.2572 11.6274 16.3341C13.5686 13.411 16.3335 11.1297 19.5721 9.77898C22.8106 8.42827 26.3772 8.06895 29.8201 8.74652C33.263 9.42409 36.4274 11.1081 38.9126 13.5852C41.3978 16.0624 43.0921 19.2213 43.7808 22.662C44.4696 26.1026 44.1219 29.6703 42.7817 32.9132C41.4415 36.1562 39.1692 38.9285 36.2524 40.8791C33.3356 42.8298 29.9056 43.8711 26.3967 43.8711C21.7058 43.8673 17.2072 42.0061 13.8848 38.6945C10.5624 35.3829 8.68659 30.8904 8.66757 26.1995V26.1995Z" stroke="black" stroke-miterlimit="3.86"/>
<path d="M34.1676 36.2296C33.5121 36.2109 32.8695 36.043 32.2885 35.7388C31.7075 35.4346 31.2035 35.0021 30.8146 34.474V24.156C31.187 23.6562 31.6651 23.2448 32.2149 22.9512C32.7647 22.6577 33.3725 22.4892 33.9949 22.4579C36.0768 22.4579 37.1225 24.7172 37.1321 29.2358C37.1321 33.8984 36.1295 36.2296 34.1245 36.2296H34.1676ZM34.4842 20.4001C33.7724 20.4291 33.0754 20.6127 32.4417 20.9383C31.808 21.2638 31.2528 21.7234 30.8146 22.2852V14.1833L28.6129 15.4929V37.8845H30.8146V36.5894C31.2496 37.092 31.7861 37.4968 32.3889 37.7771C32.9916 38.0574 33.6469 38.2068 34.3115 38.2155C35.0933 38.2187 35.8598 38 36.5221 37.5847C37.1845 37.1695 37.7153 36.5749 38.0531 35.8699C39.0545 33.7876 39.5101 31.485 39.377 29.1783C39.377 23.3549 37.7605 20.4432 34.5274 20.4432L34.4842 20.4001ZM20.5398 25.9404H17.6617V17.2197H20.5398C23.015 17.2197 24.2526 18.6588 24.2526 21.5369C24.2526 24.415 22.9862 25.8541 20.4535 25.8541L20.5398 25.9404ZM24.7706 16.5434C23.6609 15.5551 22.2119 15.0343 20.7269 15.09H15.46V37.8845H17.7337V28.0414H20.4391C21.2305 28.0694 22.0195 27.94 22.7606 27.6609C23.5016 27.3818 24.18 26.9584 24.7562 26.4153C25.3892 25.7513 25.8782 24.9638 26.1927 24.1021C26.5072 23.2404 26.6404 22.323 26.5838 21.4074C26.6404 20.5352 26.519 19.6607 26.2271 18.8369C25.9352 18.0131 25.4788 17.2573 24.8858 16.6153" fill="black"/>
</g>
<defs>
<clipPath id="clip0">
<rect width="51" height="51" fill="white" transform="translate(0.896484 0.699463)"/>
</clipPath>
</defs>
</svg>
