<svg width="52" height="52" viewBox="0 0 52 52" fill="none" xmlns="http://www.w3.org/2000/svg">
<g clip-path="url(#clip0)">
<path d="M41.5352 40.4893C41.5314 41.5707 41.0991 42.6066 40.3331 43.3699C39.567 44.1332 38.5297 44.5618 37.4483 44.5618H15.2869C14.2068 44.5618 13.1709 44.1328 12.4072 43.369C11.6434 42.6053 11.2144 41.5694 11.2144 40.4893V11.9241C11.2294 10.8527 11.6647 9.83006 12.4264 9.07642C13.1881 8.32278 14.2154 7.89844 15.2869 7.89478H31.0013L41.5352 18.4286V40.4893Z" stroke="black" stroke-linecap="round" stroke-linejoin="round"/>
<path d="M26.8859 11.291H16.4384C15.9854 11.291 15.6182 11.6583 15.6182 12.1113V14.0252C15.6182 14.4782 15.9854 14.8455 16.4384 14.8455H26.8859C27.339 14.8455 27.7062 14.4782 27.7062 14.0252V12.1113C27.7062 11.6583 27.339 11.291 26.8859 11.291Z" stroke="black" stroke-linecap="round" stroke-linejoin="round"/>
<path d="M36.2266 7.87736L33.8252 10.2788L38.5569 15.0105L40.9583 12.609L36.2266 7.87736Z" stroke="black" stroke-linecap="square" stroke-linejoin="round"/>
<path d="M44.9029 1.41895H7.89048C4.4253 1.41895 1.61621 4.22803 1.61621 7.69321V44.7056C1.61621 48.1708 4.4253 50.9799 7.89048 50.9799H44.9029C48.3681 50.9799 51.1772 48.1708 51.1772 44.7056V7.69321C51.1772 4.22803 48.3681 1.41895 44.9029 1.41895Z" stroke="black" stroke-miterlimit="3.86"/>
<path d="M33.3039 37.0642L19.4746 23.2493" stroke="black" stroke-miterlimit="3.86" stroke-linecap="round"/>
<path d="M19.4888 37.0642L33.3181 23.2493" stroke="black" stroke-miterlimit="3.86" stroke-linecap="round"/>
</g>
<defs>
<clipPath id="clip0">
<rect width="51" height="51" fill="white" transform="translate(0.896484 0.699463)"/>
</clipPath>
</defs>
</svg>
