<svg width="53" height="53" viewBox="0 0 53 53" fill="none" xmlns="http://www.w3.org/2000/svg">
<g clip-path="url(#clip0)">
<path d="M4.16845 -14.1348L45.3547 1.66772L37.9743 21.3438L-3.21191 5.52663L4.16845 -14.1348Z" stroke="black" stroke-miterlimit="3.86"/>
<path d="M-3.18025 5.56373L-8.16504 18.5496L33.0252 34.361L38.01 21.3752L-3.18025 5.56373Z" fill="white"/>
<path d="M-3.18025 5.56373L-8.16504 18.5496L33.0252 34.361L38.01 21.3752L-3.18025 5.56373Z" fill="white"/>
<path d="M-3.18025 5.56373L-8.16504 18.5496L33.0252 34.361L38.01 21.3752L-3.18025 5.56373Z" stroke="black" stroke-linecap="round" stroke-linejoin="round"/>
<path d="M35.9056 28.8416L40.2047 30.4996L35.3627 43.1181L17.1686 39.9341L12.6787 51.6429" stroke="black" stroke-linecap="round" stroke-linejoin="round"/>
<path d="M13.1795 43.6376L9.38477 53.5283L13.7411 55.1997L17.5358 45.309L13.1795 43.6376Z" fill="white"/>
<path d="M13.1795 43.6376L9.38477 53.5283L13.7411 55.1997L17.5358 45.309L13.1795 43.6376Z" stroke="black" stroke-linecap="round" stroke-linejoin="round"/>
<path d="M45.7653 1.43311H8.02717C4.49405 1.43311 1.62988 4.29727 1.62988 7.8304V45.5685C1.62988 49.1017 4.49405 51.9658 8.02717 51.9658H45.7653C49.2984 51.9658 52.1626 49.1017 52.1626 45.5685V7.8304C52.1626 4.29727 49.2984 1.43311 45.7653 1.43311Z" stroke="black" stroke-miterlimit="3.86"/>
</g>
<defs>
<clipPath id="clip0">
<rect width="52" height="52" fill="white" transform="translate(0.896484 0.699463)"/>
</clipPath>
</defs>
</svg>
