<svg width="52" height="52" viewBox="0 0 52 52" fill="none" xmlns="http://www.w3.org/2000/svg">
<g clip-path="url(#clip0)">
<path d="M21.2734 6.31177C21.2734 6.31177 19.1148 9.33378 16.6108 12.5573C13.5888 16.4427 10.1207 21.0189 10.1207 26.5161C10.0259 28.038 10.2439 29.5633 10.7611 30.9978C11.2784 32.4324 12.084 33.7458 13.1282 34.857C14.1725 35.9683 15.4332 36.854 16.8328 37.4594C18.2325 38.0648 19.7412 38.3771 21.2662 38.3771C22.7911 38.3771 24.2999 38.0648 25.6995 37.4594C27.0991 36.854 28.3599 35.9683 29.4041 34.857C30.4484 33.7458 31.2539 32.4324 31.7712 30.9978C32.2884 29.5633 32.5064 28.038 32.4116 26.5161C32.4116 21.0189 28.9435 16.4427 25.9215 12.5573C23.4175 9.33378 21.2734 6.31177 21.2734 6.31177Z" fill="white"/>
<path d="M21.2734 6.31177C21.2734 6.31177 19.1148 9.33378 16.6108 12.5573C13.5888 16.4427 10.1207 21.0189 10.1207 26.5161C10.0259 28.038 10.2439 29.5633 10.7611 30.9978C11.2784 32.4324 12.084 33.7458 13.1282 34.8571C14.1725 35.9683 15.4332 36.854 16.8328 37.4594C18.2325 38.0648 19.7412 38.3771 21.2662 38.3771C22.7911 38.3771 24.2999 38.0648 25.6995 37.4594C27.0991 36.854 28.3599 35.9683 29.4041 34.8571C30.4484 33.7458 31.2539 32.4324 31.7712 30.9978C32.2884 29.5633 32.5064 28.038 32.4116 26.5161C32.4116 21.0189 28.9435 16.4427 25.9215 12.5573C23.4175 9.33378 21.2734 6.31177 21.2734 6.31177Z" stroke="black" stroke-linejoin="round"/>
<path d="M33.6205 19.5078C33.6205 19.5078 31.98 21.724 30.0805 24.084C27.7924 26.9621 25.1445 30.2863 25.087 34.3588C25.0039 35.4836 25.1513 36.6134 25.52 37.6793C25.8887 38.7451 26.4711 39.7245 27.2314 40.5574C27.9918 41.3904 28.9141 42.0594 29.942 42.5236C30.9698 42.9877 32.0816 43.2373 33.2093 43.2569C34.3369 43.2765 35.4567 43.0658 36.5001 42.6376C37.5434 42.2095 38.4885 41.5729 39.2773 40.7669C40.0662 39.9609 40.6822 39.0024 41.0878 37.95C41.4934 36.8976 41.6799 35.7736 41.6361 34.6466C41.708 30.5741 39.1897 27.1204 36.9879 24.1991C35.1747 21.7815 33.6205 19.5078 33.6205 19.5078Z" fill="white"/>
<path d="M33.6205 19.5078C33.6205 19.5078 31.98 21.724 30.0805 24.084C27.7924 26.9621 25.1445 30.2863 25.087 34.3588C25.0039 35.4836 25.1513 36.6134 25.52 37.6793C25.8887 38.7451 26.4711 39.7245 27.2314 40.5574C27.9918 41.3904 28.9141 42.0594 29.942 42.5236C30.9698 42.9877 32.0816 43.2373 33.2093 43.2569C34.3369 43.2765 35.4567 43.0658 36.5001 42.6376C37.5434 42.2095 38.4885 41.5729 39.2773 40.7669C40.0662 39.9609 40.6822 39.0024 41.0878 37.95C41.4934 36.8976 41.6799 35.7736 41.6361 34.6466C41.708 30.5741 39.1897 27.1204 36.9879 24.1991C35.1747 21.7815 33.6205 19.5078 33.6205 19.5078Z" stroke="black" stroke-linejoin="round"/>
<path d="M44.9029 1.41895H7.89048C4.4253 1.41895 1.61621 4.22803 1.61621 7.69321V44.7056C1.61621 48.1708 4.4253 50.9799 7.89048 50.9799H44.9029C48.3681 50.9799 51.1772 48.1708 51.1772 44.7056V7.69321C51.1772 4.22803 48.3681 1.41895 44.9029 1.41895Z" stroke="black" stroke-miterlimit="3.86"/>
</g>
<defs>
<clipPath id="clip0">
<rect width="51" height="51" fill="white" transform="translate(0.896484 0.699463)"/>
</clipPath>
</defs>
</svg>
