<svg width="52" height="53" viewBox="0 0 52 53" fill="none" xmlns="http://www.w3.org/2000/svg">
<g clip-path="url(#clip0)">
<path d="M44.9029 1.43311H7.89048C4.4253 1.43311 1.61621 4.29727 1.61621 7.8304V45.5685C1.61621 49.1017 4.4253 51.9658 7.89048 51.9658H44.9029C48.3681 51.9658 51.1772 49.1017 51.1772 45.5685V7.8304C51.1772 4.29727 48.3681 1.43311 44.9029 1.43311Z" stroke="black" stroke-miterlimit="3.86"/>
<path d="M34.9898 44.433C34.7609 44.9259 34.3561 45.3111 33.858 45.5101C33.3599 45.709 32.8062 45.7067 32.3098 45.5035L30.7073 44.8415C30.4282 44.743 30.1289 44.7199 29.8385 44.7742C29.548 44.8285 29.2762 44.9584 29.0495 45.1513L27.6681 46.4331C27.2765 46.8064 26.7605 47.0141 26.2245 47.0141C25.6884 47.0141 25.1724 46.8064 24.7808 46.4331L23.5513 45.1936C23.3307 44.9947 23.0638 44.8566 22.7761 44.7925C22.4883 44.7284 22.1893 44.7404 21.9074 44.8274L20.1806 45.4049C19.6773 45.5856 19.1255 45.5655 18.6361 45.3487C18.1467 45.1318 17.7558 44.7343 17.542 44.2358L16.8651 42.5878C16.7382 42.3169 16.5438 42.0846 16.3015 41.914C16.0591 41.7435 15.7771 41.6407 15.4836 41.6159L13.6325 41.5314C13.0959 41.5207 12.584 41.2996 12.2032 40.9139C11.8224 40.5283 11.602 40.0079 11.5879 39.4608V37.7001C11.5676 37.4052 11.473 37.1206 11.3133 36.8739C11.1536 36.6271 10.9341 36.4266 10.6762 36.2916L8.99078 35.4887C8.50546 35.2499 8.12793 34.8312 7.93535 34.318C7.74276 33.8049 7.74968 33.2361 7.95468 32.728L8.60397 31.0941C8.70654 30.8113 8.73372 30.5059 8.68276 30.209C8.63179 29.9121 8.5045 29.6342 8.31386 29.4038L7.05673 27.9953C6.69154 27.5984 6.48828 27.0746 6.48828 26.5304C6.48828 25.9862 6.69154 25.4624 7.05673 25.0655L8.27242 23.8119C8.46868 23.5876 8.60485 23.3155 8.66777 23.0219C8.7307 22.7282 8.71824 22.423 8.6316 22.1357L7.99613 20.3469C7.81199 19.8341 7.82834 19.2687 8.04179 18.7679C8.25524 18.2671 8.64943 17.8692 9.14274 17.6565L10.7314 16.9663C10.9981 16.8365 11.2272 16.6386 11.3967 16.3918C11.5661 16.145 11.6701 15.8577 11.6984 15.5578V13.6703C11.7073 13.3879 11.771 13.1101 11.8857 12.8528C12.0004 12.5956 12.1639 12.3641 12.3669 12.1716C12.5698 11.9791 12.808 11.8295 13.0679 11.7313C13.3278 11.6332 13.6042 11.5885 13.8811 11.5998H15.608C15.8962 11.5752 16.1737 11.4772 16.415 11.3147C16.6564 11.1523 16.8539 10.9307 16.9894 10.6701L17.763 8.95172C17.9921 8.4586 18.3961 8.07242 18.8935 7.87113C19.3909 7.66984 19.9447 7.66841 20.4431 7.86714L22.0456 8.54324C22.3246 8.64166 22.6239 8.66485 22.9144 8.61055C23.2049 8.55626 23.4766 8.42633 23.7033 8.23336L25.0848 6.95159C25.4763 6.57828 25.9923 6.37061 26.5284 6.37061C27.0644 6.37061 27.5805 6.57828 27.972 6.95159L29.2015 8.19111C29.4216 8.41949 29.6996 8.5812 30.0044 8.65828C30.3092 8.73536 30.629 8.7248 30.9283 8.62776L32.669 7.97983C33.174 7.79499 33.7291 7.81294 34.2217 8.03005C34.7143 8.24715 35.1074 8.64715 35.3214 9.14892L35.9845 10.7687C36.1129 11.0398 36.3073 11.2727 36.5491 11.4454C36.791 11.618 37.0722 11.7245 37.3659 11.7547H39.2309C39.7639 11.7864 40.2657 12.0212 40.6368 12.4126C41.0079 12.804 41.221 13.3233 41.234 13.8675V15.6987C41.2606 15.9918 41.3577 16.2737 41.5167 16.5194C41.6758 16.7652 41.8919 16.967 42.1458 17.1072L43.845 17.896C44.3272 18.1347 44.7032 18.5503 44.8978 19.0595C45.0925 19.5688 45.0914 20.1342 44.8949 20.6427L44.1903 22.3047C44.0938 22.5893 44.0711 22.8945 44.1243 23.1906C44.1776 23.4868 44.305 23.7639 44.4942 23.995L45.7514 25.4035C46.1175 25.8028 46.3212 26.3289 46.3212 26.8755C46.3212 27.422 46.1175 27.9482 45.7514 28.3474L44.5357 29.601C44.3252 29.8254 44.1762 30.1022 44.1034 30.4038C44.0307 30.7053 44.0369 31.0211 44.1213 31.3194L44.7429 33.0379C44.9199 33.5547 44.8987 34.1208 44.6835 34.6224C44.4682 35.1239 44.0749 35.524 43.5825 35.7423L41.98 36.4184C41.7159 36.55 41.4895 36.7488 41.3226 36.9954C41.1557 37.2421 41.0538 37.5285 41.0268 37.8269L40.9853 39.7707C40.9575 40.3153 40.7281 40.8288 40.3436 41.2078C39.9591 41.5869 39.4479 41.8031 38.9132 41.8131H37.1863C36.8978 41.8364 36.6198 41.9339 36.3782 42.0965C36.1366 42.2591 35.9394 42.4814 35.8049 42.7427L34.9898 44.433Z" stroke="black" stroke-width="0.80407" stroke-miterlimit="10"/>
<path d="M15.5371 30.9823V29.7612H12.4962V27.8394H15.1205V26.6183H12.4962V24.7707H15.433V23.5497H11.2153V30.9823H15.5371Z" fill="black"/>
<path d="M22.9642 23.5497H21.7666V28.7207L17.7573 23.5497H16.7367V30.9823H17.9343V25.8325L21.9437 30.9823H22.9642V23.5497Z" fill="black"/>
<path d="M28.6492 24.7707L26.1916 30.9823H27.5037L30.0864 24.3673V23.5497H25.5042V24.7707H28.6492Z" fill="black"/>
<path d="M30.8161 25.96L31.7116 25.2698V30.9823H32.9092V23.5284H32.0449L30.1808 24.9512L30.8161 25.96Z" fill="black"/>
<path d="M36.8006 28.6463V27.5102H34.1763V28.6463H36.8006Z" fill="black"/>
<path d="M39.5184 31.0991C40.2057 31.0991 40.7785 30.8974 41.2263 30.5045C41.6741 30.101 41.9032 29.5595 41.9032 28.8906C41.9032 27.988 41.3929 27.2766 40.5077 27.1173V27.0855C41.2471 26.7563 41.622 26.1617 41.622 25.3229C41.622 24.1655 40.7889 23.4329 39.5288 23.4329C38.4978 23.4329 37.7793 23.8151 37.3731 24.5902L38.0396 25.4503C38.3937 24.9194 38.8519 24.6539 39.4143 24.6539C40.0287 24.6539 40.3411 25.0043 40.3411 25.5565C40.3411 26.1617 39.8412 26.5758 39.2164 26.5758H38.7478V27.7969H39.2685C40.112 27.7969 40.6223 28.1685 40.6223 28.8481C40.6223 29.4427 40.1953 29.878 39.4455 29.878C38.8103 29.878 38.2896 29.5701 37.8834 28.9543L37.2065 29.8462C37.5918 30.6213 38.4354 31.0991 39.5184 31.0991Z" fill="black"/>
</g>
<defs>
<clipPath id="clip0">
<rect width="51" height="52" fill="white" transform="translate(0.896484 0.699463)"/>
</clipPath>
</defs>
</svg>
