<svg width="52" height="53" viewBox="0 0 52 53" fill="none" xmlns="http://www.w3.org/2000/svg">
<g clip-path="url(#clip0)">
<path d="M26.3534 40.8439C30.5267 40.8439 36.6139 39.6114 37.1607 33.3315C37.6788 27.4624 33.8653 29.5019 34.2826 20.845C32.4694 21.0651 30.2964 25.2468 31.275 28.9297C27.7925 23.2073 32.7141 19.994 30.2101 14.8439C29.0754 12.9455 27.5174 11.3469 25.6627 10.178C25.6627 10.178 29.8359 17.2649 22.0651 24.8507C22.1793 23.4205 21.8005 21.9945 20.994 20.8186C20.1875 19.6427 19.0039 18.7907 17.6472 18.4094C19.7914 23.3394 16.2945 26.6994 15.7188 30.4703C14.4525 38.6577 22.2234 40.8732 26.3966 40.8732" fill="black"/>
<path d="M26.2238 40.8441C28.3104 40.8441 30.9727 40.2572 31.2461 37.1172C31.4332 34.9016 29.62 34.7109 29.9653 30.4411C29.0587 30.5439 28.2529 32.3926 28.5263 33.7718C27.3833 32.7583 26.4951 31.4804 25.936 30.045C25.5943 28.865 25.6603 27.6011 26.1231 26.4648C21.5901 29.3994 26.3965 33.5224 23.4896 35.8994C24.1947 32.3926 22.4391 31.703 22.4391 31.703C22.9859 34.3147 21 35.2244 20.8705 37.1319C20.6259 40.3305 24.1372 40.9174 26.2238 40.9174" fill="white"/>
<path d="M44.9029 1.43311H7.89048C4.4253 1.43311 1.61621 4.29727 1.61621 7.8304V45.5685C1.61621 49.1017 4.4253 51.9658 7.89048 51.9658H44.9029C48.3681 51.9658 51.1772 49.1017 51.1772 45.5685V7.8304C51.1772 4.29727 48.3681 1.43311 44.9029 1.43311Z" stroke="black" stroke-miterlimit="3.86"/>
<path d="M5.96208 26.054C6.09445 26.0467 6.22686 26.0677 6.35078 26.1157C6.4747 26.1637 6.58739 26.2377 6.6816 26.3328C6.87142 26.5279 6.97793 26.7916 6.97793 27.0664C6.97793 27.3412 6.87142 27.6049 6.6816 27.8C6.48864 27.9919 6.23152 28.102 5.96208 28.1082C5.82658 28.1129 5.69156 28.0893 5.56533 28.0389C5.43911 27.9884 5.32436 27.9121 5.22816 27.8147C5.08725 27.6699 4.99112 27.4862 4.95169 27.2862C4.91226 27.0863 4.93126 26.8789 5.00635 26.6898C5.08143 26.5008 5.20929 26.3384 5.37407 26.2227C5.53885 26.1071 5.7333 26.0433 5.9333 26.0393" fill="black"/>
<path d="M5.21353 19.7739L7.15625 21.8428L8.68164 22.2243L8.48018 23.0019L7.04112 22.6204L4.3501 23.5008L4.56596 22.6058L5.61646 22.283L6.4655 22.0482L5.81793 21.4466L5.04084 20.6543L5.21353 19.7739Z" fill="black"/>
<path d="M8.33652 18.3948H7.58822C7.37255 18.4078 7.15631 18.4078 6.94064 18.3948L7.42992 18.835L7.97676 19.3632L8.33652 18.3948ZM10.4232 17.7199L10.0634 18.5269L9.14239 18.4535L8.55238 19.774L9.22874 20.4196L8.88336 21.2413L5.89014 18.1894L6.20673 17.4851L10.4232 17.7199Z" fill="black"/>
<path d="M12.6248 14.6385L12.2075 15.2108L9.60277 15.064H9.08471L9.41569 15.3135L9.77545 15.5776L11.2145 16.6487L10.7396 17.2796L7.54492 14.8146L8.00542 14.1983L10.5094 14.3451H11.0274L10.7108 14.1103L10.3367 13.9049L8.99836 12.8778L9.53081 12.2175L12.6248 14.6385Z" fill="black"/>
<path d="M14.6108 10.8384C14.7622 10.9953 14.877 11.1849 14.9467 11.3931C15.0165 11.6014 15.0394 11.823 15.0137 12.0415C14.9951 12.2504 14.9329 12.4527 14.8311 12.635C14.7293 12.8172 14.5904 12.9751 14.4237 13.0979C14.2487 13.2597 14.0396 13.3782 13.8126 13.4443C13.5855 13.5105 13.3465 13.5225 13.1142 13.4794C12.5857 13.3797 12.1132 13.0812 11.7903 12.6431C11.4388 12.2371 11.24 11.7172 11.229 11.1758C11.2279 10.9323 11.2818 10.6918 11.3866 10.4729C11.4915 10.2541 11.6444 10.0628 11.8334 9.91397C12.063 9.68207 12.3624 9.53569 12.6835 9.49843C13.0046 9.46117 13.3286 9.53518 13.6035 9.70856L13.2293 10.4275C13.0912 10.3562 12.9379 10.3209 12.7832 10.3248C12.6108 10.3359 12.4477 10.4086 12.3227 10.5302C12.2198 10.6136 12.1385 10.7214 12.0858 10.8441C12.0332 10.9669 12.0107 11.1009 12.0205 11.2345C12.0589 11.5615 12.1945 11.8687 12.409 12.1149C12.5973 12.3769 12.8656 12.5679 13.1717 12.6578C13.3089 12.6924 13.4525 12.6904 13.5886 12.6518C13.7248 12.6133 13.8489 12.5395 13.9488 12.4377C14.0271 12.39 14.0948 12.3264 14.1478 12.2508C14.2008 12.1752 14.238 12.0892 14.2569 11.9983C14.2758 11.9074 14.2761 11.8135 14.2577 11.7225C14.2394 11.6314 14.2028 11.5452 14.1503 11.4693L13.6754 11.8801L13.2005 11.3079L14.2798 10.3835L14.6108 10.8384Z" fill="black"/>
<path d="M14.7387 7.89041L14.0659 8.31812L16.1557 11.7354L16.8285 11.3077L14.7387 7.89041Z" fill="black"/>
<path d="M20.4386 9.59107L19.7767 9.86985L17.6325 8.40258C17.4856 8.28982 17.3462 8.16728 17.2152 8.03577C17.2586 8.16674 17.3115 8.29425 17.3734 8.41726C17.4598 8.63735 17.5174 8.7694 17.5461 8.85744L18.1649 10.5155L17.4454 10.8236L16.0063 7.08204L16.7259 6.80326L18.7981 8.27053L19.2298 8.57866L19.0715 8.21184C18.9852 7.99175 18.9132 7.84502 18.8845 7.77166L18.2657 6.18701L18.9852 5.89355L20.4386 9.59107Z" fill="black"/>
<path d="M25.3605 7.1556C25.3972 7.37117 25.3892 7.59217 25.3372 7.80442C25.2851 8.01666 25.1901 8.21548 25.0583 8.38811C24.9282 8.55215 24.7666 8.68748 24.5836 8.78586C24.4005 8.88423 24.1997 8.9436 23.9934 8.96034C23.7589 8.99734 23.5192 8.97958 23.2923 8.90842C23.0655 8.83726 22.8575 8.71454 22.6839 8.54951C22.3063 8.15275 22.0771 7.63352 22.0363 7.08224C21.9448 6.54631 22.0581 5.995 22.3529 5.54161C22.4785 5.3359 22.6491 5.16263 22.8513 5.03535C23.0535 4.90808 23.2819 4.83025 23.5185 4.80797C23.835 4.7399 24.1647 4.7825 24.4545 4.92891C24.7443 5.07532 24.9773 5.31701 25.1159 5.61497L24.4107 6.02581C24.337 5.89099 24.2335 5.77547 24.1085 5.68834C23.9564 5.59842 23.7777 5.56718 23.6049 5.6003C23.4728 5.61152 23.3457 5.65636 23.2351 5.7307C23.1244 5.80504 23.0339 5.90651 22.9717 6.02581C22.8352 6.32314 22.7901 6.65558 22.8422 6.97953C22.8626 7.30565 22.9892 7.61547 23.2019 7.85989C23.2869 7.96724 23.3982 8.04963 23.5247 8.09862C23.6511 8.14761 23.7881 8.16143 23.9215 8.13867C24.0127 8.14068 24.1034 8.12383 24.1881 8.08914C24.2728 8.05446 24.3497 8.00265 24.4143 7.93685C24.4788 7.87105 24.5296 7.79261 24.5636 7.70625C24.5977 7.6199 24.6142 7.52742 24.6122 7.43439L23.9215 7.55177V6.80346L25.3605 6.62739V7.1556Z" fill="black"/>
<path d="M28.958 8.98945L26.1519 8.74002L26.4972 4.73438L29.217 4.96914L29.1595 5.76146L27.2168 5.58539L27.1448 6.27501L28.2817 6.37772L28.2097 7.15537L27.0872 7.05266L27.0009 8.02106L29.03 8.2118L28.958 8.98945Z" fill="black"/>
<path d="M33.1602 6.90589L32.3687 7.02327C32.3473 6.87313 32.2825 6.73291 32.1825 6.62053C32.0825 6.50814 31.952 6.4287 31.8075 6.39235C31.6868 6.36579 31.5618 6.36786 31.442 6.39839C31.3223 6.42891 31.211 6.48709 31.1168 6.56842C30.8741 6.78055 30.6988 7.06145 30.6131 7.37542C30.5154 7.6755 30.5154 7.99972 30.6131 8.2998C30.6486 8.43332 30.7177 8.55505 30.8137 8.65286C30.9096 8.75068 31.029 8.82119 31.1599 8.85736C31.3171 8.89822 31.482 8.89671 31.6384 8.85298C31.7948 8.80925 31.9374 8.7248 32.0522 8.60792L32.5702 9.18016C32.3567 9.42406 32.0695 9.58827 31.754 9.64675C31.4386 9.70523 31.113 9.65462 30.829 9.50296C30.6002 9.44549 30.3876 9.33477 30.2078 9.17949C30.0281 9.0242 29.886 8.82857 29.7928 8.60792C29.6036 8.10239 29.6036 7.54348 29.7928 7.03795C29.9289 6.51231 30.2521 6.0572 30.6994 5.76142C30.9008 5.63181 31.1276 5.54887 31.3638 5.51844C31.6 5.48802 31.8399 5.51086 32.0665 5.58535C32.3592 5.65043 32.6246 5.80698 32.8258 6.03318C33.027 6.25937 33.154 6.54393 33.189 6.8472" fill="black"/>
<path d="M35.2899 6.23101C35.2666 6.28483 35.233 6.33333 35.1909 6.37365C35.1489 6.41398 35.0994 6.4453 35.0453 6.46578C34.9911 6.49091 34.9322 6.50391 34.8726 6.50391C34.8131 6.50391 34.7542 6.49091 34.6999 6.46578C34.6472 6.442 34.5996 6.40767 34.56 6.36483C34.5205 6.32199 34.4898 6.2715 34.4697 6.21634C34.445 6.16104 34.4323 6.10101 34.4323 6.04027C34.4323 5.97953 34.445 5.91949 34.4697 5.8642C34.493 5.81038 34.5267 5.76188 34.5687 5.72156C34.6107 5.68123 34.6602 5.64991 34.7143 5.62943C34.7658 5.60355 34.8224 5.59009 34.8798 5.59009C34.9372 5.59009 34.9938 5.60355 35.0453 5.62943C35.0995 5.6508 35.1484 5.6843 35.1882 5.72747C35.2281 5.77064 35.2579 5.82238 35.2756 5.87887C35.3045 5.93285 35.3197 5.9934 35.3197 6.05494C35.3197 6.11648 35.3045 6.17703 35.2756 6.23101H35.2899ZM33.3616 10.5301L32.6421 10.1926L34.2394 6.56849L34.959 6.89128L33.3616 10.5301Z" fill="black"/>
<path d="M37.0168 12.6723L36.2109 12.1588L36.3116 9.92851L35.4338 10.2366L34.815 11.2344L34.1387 10.8089L36.2397 7.39014L36.9017 7.81564L36.3116 8.79871C36.1821 9.00413 36.067 9.19488 35.9663 9.32693L36.4412 9.15086L38.0961 8.57862L38.9019 9.09217L37.1607 9.64973L37.0168 12.6723Z" fill="black"/>
<path d="M41.2905 12.4376L40.4703 11.6452L38.2973 14.0075L37.7217 13.4647L39.8803 11.1024L39.06 10.31L39.5924 9.73779L41.823 11.8653L41.2905 12.4376Z" fill="black"/>
<path d="M43.1756 12.4377C43.0796 12.5085 42.9631 12.5447 42.8446 12.5404C42.7358 12.5393 42.6301 12.5034 42.5424 12.4377C42.4671 12.3428 42.431 12.2218 42.4417 12.1002C42.4632 11.9729 42.5298 11.858 42.6288 11.7774C42.7193 11.7066 42.8313 11.6702 42.9454 11.6747C43.0662 11.6889 43.1783 11.7461 43.2619 11.8361C43.337 11.9262 43.3782 12.0406 43.3782 12.1589C43.3782 12.2771 43.337 12.3915 43.2619 12.4817L43.1756 12.4377ZM39.6787 15.4162L39.1606 14.8L42.1827 12.2176L42.7007 12.8338L39.6787 15.4162Z" fill="black"/>
<path d="M43.6795 16.6779C43.9673 16.5019 44.0105 16.2524 43.809 15.9149L43.2622 15.0346L42.3987 15.5775L42.9456 16.4725C43.147 16.7953 43.3917 16.8687 43.6795 16.6779ZM41.8375 18.8348L41.3626 18.0425L42.1973 16.6633L41.7655 15.9736L40.5711 16.7513L40.1538 16.0617L43.4924 13.9048L44.471 15.4894C44.6679 15.781 44.7548 16.1354 44.7156 16.4872C44.6882 16.6658 44.6207 16.8355 44.5183 16.9831C44.416 17.1307 44.2816 17.2522 44.1256 17.3382C43.9237 17.5101 43.6691 17.6043 43.4061 17.6043C43.1431 17.6043 42.8884 17.5101 42.6865 17.3382L41.8375 18.8348Z" fill="black"/>
<path d="M46.5576 18.204C46.4465 18.2482 46.3232 18.2482 46.2122 18.204C46.1581 18.1835 46.1086 18.1522 46.0666 18.1119C46.0245 18.0716 45.9909 18.0231 45.9676 17.9692C45.9242 17.856 45.9242 17.7303 45.9676 17.6171C45.9876 17.5619 46.0184 17.5114 46.0579 17.4686C46.0975 17.4258 46.145 17.3914 46.1978 17.3677C46.3041 17.3244 46.4225 17.3244 46.5288 17.3677C46.5859 17.3856 46.6386 17.4158 46.6833 17.4563C46.728 17.4968 46.7637 17.5467 46.7878 17.6024C46.8096 17.6559 46.8208 17.7133 46.8208 17.7712C46.8208 17.8291 46.8096 17.8864 46.7878 17.9399C46.7702 17.9982 46.7406 18.0519 46.7009 18.0975C46.6611 18.143 46.6123 18.1794 46.5576 18.204ZM42.2404 20.0821L41.9238 19.3485L45.5215 17.7051L45.8524 18.4388L42.2404 20.0821Z" fill="black"/>
<path d="M46.3564 22.8699L45.8527 22.239C45.9631 22.1382 46.0423 22.0069 46.0806 21.8609C46.119 21.715 46.1148 21.5609 46.0686 21.4173C46.0401 21.2841 45.979 21.1604 45.8909 21.0577C45.8028 20.9551 45.6907 20.8769 45.5649 20.8304C45.2642 20.7482 44.9475 20.7483 44.6469 20.8308C44.3462 20.9132 44.0722 21.0751 43.8525 21.3C43.7625 21.4047 43.6995 21.5307 43.6694 21.6665C43.6392 21.8023 43.6428 21.9436 43.6798 22.0776C43.7274 22.2346 43.8151 22.3758 43.934 22.4867C44.0529 22.5976 44.1986 22.6741 44.3561 22.7085L44.1547 23.4715C43.8519 23.4294 43.5702 23.29 43.3503 23.0737C43.1303 22.8574 42.9837 22.5753 42.9315 22.2684C42.8638 22.0367 42.8481 21.7924 42.8855 21.5537C42.9229 21.315 43.0123 21.0879 43.1473 20.8891C43.4679 20.4653 43.9164 20.1608 44.4236 20.0229C44.9309 19.885 45.4685 19.9213 45.9535 20.1262C46.168 20.2296 46.357 20.3808 46.5065 20.5688C46.6559 20.7567 46.762 20.9765 46.8169 21.2119C46.9215 21.5025 46.9332 21.8193 46.8505 22.1171C46.7678 22.4149 46.5949 22.6784 46.3564 22.8699Z" fill="black"/>
<path d="M48.1117 24.3372C48.0536 24.3455 47.9944 24.3419 47.9376 24.3268C47.8808 24.3117 47.8275 24.2853 47.7807 24.2492C47.7329 24.2158 47.6928 24.1723 47.663 24.1217C47.6332 24.071 47.6144 24.0144 47.608 23.9557C47.5999 23.8964 47.6034 23.8361 47.6182 23.7782C47.633 23.7203 47.6589 23.6659 47.6944 23.6182C47.7271 23.5695 47.7698 23.5286 47.8194 23.4982C47.8691 23.4678 47.9246 23.4487 47.9822 23.4422C48.0402 23.4277 48.1008 23.4281 48.1586 23.4435C48.2164 23.4589 48.2695 23.4887 48.3132 23.5302C48.3609 23.5636 48.4011 23.6071 48.4309 23.6577C48.4607 23.7084 48.4794 23.765 48.4858 23.8237C48.4931 23.8863 48.4879 23.9497 48.4706 24.0102C48.4533 24.0707 48.4242 24.127 48.3851 24.1758C48.3524 24.2245 48.3097 24.2655 48.26 24.2959C48.2104 24.3262 48.1549 24.3454 48.0973 24.3519L48.1117 24.3372ZM43.4923 24.9535L43.3916 24.1758L47.3058 23.6182L47.4066 24.4106L43.4923 24.9535Z" fill="black"/>
<path d="M45.5072 29.0912C45.3752 29.0878 45.2454 29.056 45.1264 28.9978C45.0073 28.9397 44.9017 28.8565 44.8164 28.7537C44.7017 28.5981 44.6327 28.4125 44.6175 28.2185C44.6022 28.0244 44.6414 27.83 44.7304 27.6578C44.8193 27.4856 44.9545 27.3427 45.12 27.2457C45.2856 27.1488 45.4748 27.1019 45.6655 27.1104C45.7993 27.1152 45.9307 27.1476 46.0519 27.2056C46.173 27.2636 46.2815 27.346 46.3706 27.4478C46.5407 27.6593 46.625 27.9291 46.6063 28.2019C46.5876 28.4747 46.4672 28.7299 46.2699 28.9151C46.1673 29.0039 46.048 29.0705 45.9194 29.1108C45.7908 29.1512 45.6554 29.1645 45.5216 29.1499" fill="black"/>
<path d="M8.88346 33.4047L8.33662 31.3359L7.6027 31.5413L7.91929 32.7445L7.1566 32.9499L6.84001 31.7467L5.1851 32.2016L4.96924 31.4093L8.89785 30.3235L9.64616 33.1993L8.88346 33.4047Z" fill="black"/>
<path d="M9.94075 33.6409L6.22119 35.3318L6.55521 36.0956L10.2748 34.4047L9.94075 33.6409Z" fill="black"/>
<path d="M10.8261 38.0708C11.1139 37.8801 11.1427 37.616 10.9412 37.2932L10.3656 36.3835L9.48777 36.9704L10.0634 37.8801C10.093 37.9518 10.1387 38.0154 10.1967 38.0659C10.2548 38.1164 10.3236 38.1524 10.3977 38.1709C10.4718 38.1894 10.5492 38.19 10.6235 38.1727C10.6979 38.1553 10.7673 38.1204 10.8261 38.0708ZM8.96971 40.3158L8.45165 39.5088L9.2863 38.0415L8.8402 37.3812L7.617 38.1882L7.1709 37.4986L10.5815 35.239L11.6032 36.853C11.8172 37.1484 11.9147 37.5149 11.8766 37.8801C11.8523 38.0636 11.7863 38.2387 11.6839 38.3915C11.5814 38.5444 11.4454 38.6707 11.2866 38.7605C11.0824 38.9271 10.8286 39.018 10.5671 39.018C10.3055 39.018 10.0517 38.9271 9.84753 38.7605L8.96971 40.3158Z" fill="black"/>
<path d="M12.1213 43.5584L10.0347 41.4895L12.8552 38.511L14.8843 40.5065L14.3374 41.0934L12.8984 39.6701L12.4091 40.1837L13.2438 41.02L12.6969 41.5923L11.8479 40.7706L11.1715 41.4895L12.6825 42.9715L12.1213 43.5584Z" fill="black"/>
<path d="M18.165 44.1599C18.3233 43.8518 18.165 43.6024 17.8916 43.4116L16.9562 42.9128L16.467 43.8518L17.4023 44.3507C17.7477 44.5414 17.9924 44.4827 18.165 44.1599ZM17.6038 47.0945L16.726 46.5956V44.9376L16.0065 44.5414L15.3157 45.862L14.5962 45.4658L16.5965 41.783L18.2658 42.678C18.5904 42.8322 18.8469 43.1042 18.9853 43.441C19.0491 43.615 19.0745 43.8012 19.0596 43.9864C19.0446 44.1715 18.9898 44.351 18.899 44.5121C18.7966 44.7546 18.618 44.9554 18.3913 45.083C18.1646 45.2105 17.9027 45.2574 17.647 45.2164L17.6038 47.0945Z" fill="black"/>
<path d="M21.9065 48.3123L19.0859 47.5493L20.1364 43.5437L22.8706 44.2773L22.6692 45.0697L20.7265 44.5414L20.5394 45.2311L21.6618 45.5392L21.4604 46.3168L20.3379 46.0087L20.0789 46.9771L22.1079 47.52L21.9065 48.3123Z" fill="black"/>
<path d="M26.3964 45.3923L25.2308 45.3043L25.0005 48.6203L24.1947 48.5616L24.4249 45.2456L23.2593 45.1576L23.3168 44.3506L26.454 44.5707L26.3964 45.3923Z" fill="black"/>
<path d="M28.8859 46.6396L28.5262 45.9353C28.3966 45.6859 28.3103 45.4805 28.2383 45.3191C28.2126 45.5461 28.1742 45.7715 28.1232 45.994L27.9649 46.7717L28.8859 46.6396ZM30.5984 48.1069L29.7206 48.2389L29.2745 47.3733L27.8354 47.5787L27.6339 48.5324L26.7705 48.6644L27.7491 44.2626L28.5405 44.1453L30.5984 48.1069Z" fill="black"/>
<path d="M33.3472 44.2039C33.2177 43.8664 32.9731 43.7784 32.6133 43.9251L31.6204 44.3066L31.9945 45.3044L32.9875 44.9229C33.3472 44.7761 33.4767 44.5414 33.3472 44.2039ZM35.1173 46.5222L34.2394 46.8597L33.045 45.7299L32.2679 46.038L32.8004 47.5053L32.0377 47.7987L30.5986 43.9251L32.3687 43.2355C32.7035 43.1123 33.07 43.1123 33.4048 43.2355C33.5754 43.3026 33.7295 43.407 33.8563 43.5414C33.9831 43.6757 34.0795 43.8368 34.1387 44.0132C34.2586 44.2565 34.294 44.5341 34.2392 44.8007C34.1843 45.0672 34.0423 45.3068 33.8365 45.4804L35.1173 46.5222Z" fill="black"/>
<path d="M37.362 42.59C37.1937 42.2933 36.921 42.073 36.5993 41.9737C36.432 41.9543 36.2625 41.9704 36.1016 42.0209C35.9406 42.0714 35.7916 42.1552 35.6639 42.2672L35.3185 42.5166L36.7576 44.5855L37.0886 44.3507C37.237 44.2606 37.365 44.1395 37.4642 43.9954C37.5635 43.8512 37.6316 43.6873 37.6642 43.5144C37.6853 43.1827 37.5882 42.8544 37.3908 42.59H37.362ZM38.0671 42.1058C38.2488 42.3378 38.3758 42.6093 38.4382 42.8994C38.5006 43.1894 38.4967 43.4902 38.4269 43.7785C38.2862 44.2862 37.9691 44.7243 37.5347 45.011L36.5561 45.7299L34.2393 42.3259L35.2754 41.5776C35.6828 41.2485 36.1959 41.0863 36.7144 41.1227C36.9961 41.1773 37.2629 41.2934 37.4964 41.4631C37.7299 41.6328 37.9246 41.8521 38.0671 42.1058Z" fill="black"/>
<path d="M40.4272 40.3158L39.7077 40.0077C39.4631 39.8903 39.2616 39.8022 39.1177 39.7142L39.4343 40.3011L39.794 41.0201L40.4272 40.3158ZM42.629 40.3158L42.0246 40.9907L41.1899 40.5799L40.1682 41.695L40.6143 42.5607L40.0243 43.2063L38.1104 39.2153L38.6428 38.6284L42.629 40.3158Z" fill="black"/>
<path d="M45.1616 36.0606L44.8162 36.7062L42.1396 36.941C41.9626 36.9597 41.7841 36.9597 41.6071 36.941L41.9813 37.1464L42.3842 37.3811L43.9528 38.2615L43.5642 38.9805L40.0098 36.9703L40.3839 36.266L42.9598 36.0459H43.5067L43.1469 35.9139L42.7152 35.6791L41.2761 34.8281L41.6647 34.1091L45.1616 36.0606Z" fill="black"/>
<path d="M43.5501 30.6903L43.2048 31.8201L46.3275 32.8032L46.0973 33.5955L42.9601 32.6271L42.6291 33.7569L41.8521 33.5222L42.7874 30.4556L43.5501 30.6903Z" fill="black"/>
</g>
<defs>
<clipPath id="clip0">
<rect width="51" height="52" fill="white" transform="translate(0.896484 0.699463)"/>
</clipPath>
</defs>
</svg>
