<svg width="52" height="53" viewBox="0 0 52 53" fill="none" xmlns="http://www.w3.org/2000/svg">
<g clip-path="url(#clip0)">
<path d="M44.9029 1.43311H7.89048C4.4253 1.43311 1.61621 4.29727 1.61621 7.8304V45.5685C1.61621 49.1017 4.4253 51.9658 7.89048 51.9658H44.9029C48.3681 51.9658 51.1772 49.1017 51.1772 45.5685V7.8304C51.1772 4.29727 48.3681 1.43311 44.9029 1.43311Z" stroke="black" stroke-miterlimit="3.86"/>
<path d="M24.8424 6.90601H10.4663V51.9658H24.8424V6.90601Z" fill="white"/>
<path d="M24.8424 11.1611H10.4663V18.4241H24.8424V11.1611Z" fill="#9B9DA0"/>
<path d="M24.8424 23.3833H10.4663V30.6463H24.8424V23.3833Z" fill="#C4C6C8"/>
<path d="M24.8424 35.5911H10.4663V42.854H24.8424V35.5911Z" fill="#D5D7D8"/>
<path d="M24.8424 6.90601H10.4663V51.9658H24.8424V6.90601Z" stroke="black" stroke-linejoin="round"/>
<path d="M41.0319 13.1125L27.1594 51.9658H11.8623L27.5192 8.09448L41.0319 13.1125Z" fill="white"/>
<path d="M26.0986 12.0983L23.6611 18.9229L37.1694 23.9386L39.6069 17.1141L26.0986 12.0983Z" fill="#C4C6C8"/>
<path d="M21.9868 23.5781L19.5493 30.4026L33.0576 35.4183L35.4951 28.5938L21.9868 23.5781Z" fill="#9B9DA0"/>
<path d="M17.9082 35.049L15.4707 41.8735L28.979 46.8893L31.4165 40.0647L17.9082 35.049Z" fill="#7B7C7F"/>
<path d="M41.0319 13.1125L27.1594 51.9658H11.8623L27.5192 8.09448L41.0319 13.1125Z" stroke="black" stroke-linejoin="round"/>
<path d="M51.1771 29.37L32.5846 51.9659H13.8193L42.0823 17.6318L51.1771 25.423V29.37Z" fill="white"/>
<path d="M39.3869 20.8828L34.8081 26.4465L45.8209 35.8685L50.3996 30.3048L39.3869 20.8828Z" fill="#9B9DA0"/>
<path d="M31.7004 30.2429L27.1216 35.8066L38.1343 45.2286L42.7131 39.6649L31.7004 30.2429Z" fill="#C4C6C8"/>
<path d="M19.417 45.1723L27.3606 51.9658H32.5843L35.0019 49.0312L23.9932 39.5967L19.417 45.1723Z" fill="#DCDDDE"/>
<path d="M51.1771 29.37L32.5846 51.9659H13.8193L42.0823 17.6318L51.1771 25.423V29.37Z" stroke="black" stroke-linejoin="round"/>
<path d="M17.9634 51.9659L51.1767 32.4219V45.6273C51.1767 47.324 50.5157 48.9511 49.339 50.1509C48.1624 51.3506 46.5665 52.0246 44.9024 52.0246L17.9634 51.9659Z" fill="white"/>
<path d="M48.959 33.8387L42.79 37.4702L49.6291 49.5481L51.0577 47.1874L51.0577 37.616L48.959 33.8387Z" fill="#C4C6C8"/>
<path d="M38.5357 39.8648L32.3667 43.4963L41.6562 59.9017L47.8251 56.2702L38.5357 39.8648Z" fill="#9B9DA0"/>
<path d="M27.9971 45.6874L21.8281 49.3188L31.2749 66.002L37.4439 62.3705L27.9971 45.6874Z" fill="#7B7C7F"/>
<path d="M17.9634 51.9659L51.1767 32.4219V45.6273C51.1767 47.324 50.5157 48.9511 49.339 50.1509C48.1624 51.3506 46.5665 52.0246 44.9024 52.0246L17.9634 51.9659Z" stroke="black" stroke-linejoin="round"/>
</g>
<defs>
<clipPath id="clip0">
<rect width="51" height="52" fill="white" transform="translate(0.896484 0.699463)"/>
</clipPath>
</defs>
</svg>
