<svg width="52" height="53" viewBox="0 0 52 53" fill="none" xmlns="http://www.w3.org/2000/svg">
<g clip-path="url(#clip0)">
<path d="M-87.0296 152.591C-113.71 138.843 -127.956 129.819 -150.319 109.277C-180.539 81.3994 -207.766 41.4604 -228.978 5.84973C-266.235 -49.0848 -245.829 -102.009 -242.49 -161.991C-238.85 -227.916 -221.869 -265.566 -187.663 -320.456C-163.199 -359.984 -133.828 -373.072 -99.7796 -401.992C-45.1532 -446.817 1.21306 -444.499 64.5601 -441.3C148.658 -437.163 164.675 -440.537 243.305 -396.505C293.787 -361.173 309.818 -323.992 343.463 -275.954C375.021 -230.909 377.424 -166.481 372.503 -99.192C366.387 -14.0905 357.882 47.4174 282.562 100.063C219.359 144.228 141.837 208.773 59.3939 197.592C0.0618134 189.64 -33.1803 180.587 -87.0296 152.591ZM-80.0358 138.623C-27.9997 165.665 3.52992 174.292 61.4086 182.054C138.211 192.472 214.869 128.337 273.827 87.1364C342.902 38.9073 351.018 -15.7778 357.105 -100.278C362.012 -167.625 358.904 -226.742 330.885 -266.725C298.996 -312.21 282.677 -349.669 235.203 -383.02C159.768 -425.219 144.701 -421.522 63.7974 -425.498C0.479141 -428.682 -40.4187 -430.413 -90.0516 -389.711C-121.524 -362.978 -152.147 -348.188 -174.61 -311.946C-207.982 -258.332 -223.624 -223.279 -227.064 -160.964C-230.115 -106.03 -249.959 -52.3862 -216.012 -2.49902C-215.897 -2.30829 -176.567 64.0709 -139.972 97.8034C-118.861 116.966 -105.809 125.271 -80.0358 138.623Z" fill="#EB1C24"/>
<path d="M-211.652 35.8114C-221.48 19.4661 -226.776 1.00778 -236.245 -43.3184L-239.281 -58.1672C-247.916 -182.665 -232.633 -324.447 -99.5495 -384.678C-55.3418 -404.501 -28.9496 -412.307 17.3447 -424.573C81.512 -441.638 132.152 -445.115 190.65 -407.524C212.566 -393.599 231.562 -377.034 250.874 -359.676C319.632 -297.537 365.566 -248.736 368.876 -152.043C371.754 -70.4482 353.881 -19.0644 308.638 48.2245C291.225 74.2392 268.704 91.8611 245.996 112.52C215.704 140.002 195.859 163.053 153.695 174.292C100.45 188.789 66.9056 183.345 13.3297 173.5C-26.4601 166.164 -47.9739 161.688 -85.9649 149.671C-118.545 139.268 -142.117 130.083 -163.818 100.474C-179.043 78.8611 -197.995 58.554 -211.652 35.9141V35.8114ZM-198.484 27.6827C-185.044 49.9999 -166.278 70.0134 -151.312 91.2742C-132.705 116.614 -113.235 124.449 -81.3024 134.617C-44.0741 146.355 -22.9632 150.757 16.0783 157.976C69.3232 167.748 99.9463 172.649 149.766 159.047C188.621 148.688 207.616 126.254 235.735 100.738C257.436 81.0033 279.267 64.1443 295.902 39.3182C339.577 -25.6378 356.126 -73.7789 353.464 -151.515C350.37 -241.268 308.853 -286.195 240.657 -347.894C221.949 -364.665 203.659 -380.717 182.476 -394.172C129.231 -428.476 83.5699 -425.923 21.3021 -409.343C-24.0713 -397.326 -49.9166 -389.711 -93.2465 -370.285C-210.558 -317.199 -233.151 -194.946 -223.898 -60.3534L-221.02 -46.5904C-211.479 -1.97073 -206.629 13.8611 -198.369 27.58" fill="#F6961D"/>
<path d="M-165.026 -107.233C-165.795 -102.036 -166.19 -96.7886 -166.206 -91.533C-164.695 -57.2429 -148.937 -10.1876 -136.087 11.0878C-114.501 46.9919 -50.607 91.8756 -9.32063 108.588C60.5741 136.877 150.99 127.002 211.185 92.888C266.474 61.5325 307.271 -17.8321 310.624 -105.193C314.121 -196.883 266.805 -247.357 221.906 -288.822C181.469 -326.164 104.508 -357.079 26.2815 -351.606C1.55859 -349.86 -45.3113 -319.635 -68.3937 -306.737C-91.9366 -293.532 -138.907 -248.193 -148.52 -222.78C-162.623 -185.409 -160.421 -146.218 -165.026 -107.233ZM-180.424 -109.111C-175.646 -149.578 -177.661 -189.591 -162.997 -228.444C-151.614 -258.626 -101.19 -306.4 -75.8624 -320.559C-49.6716 -335.232 -3.66518 -365.296 25.1734 -367.321C107.43 -373.072 188.535 -340.91 232.224 -300.501C277.871 -258.347 329.778 -203.662 325.993 -104.577C322.525 -13.6064 280.087 71.8034 218.625 106.71C154.76 142.893 59.5092 153.383 -15.0193 123.216C-57.9318 105.859 -125.179 59.2729 -149.24 19.3338C-163.386 -4.14249 -180.007 -53.7508 -181.647 -90.8287C-181.675 -96.9449 -181.266 -103.055 -180.424 -109.111Z" fill="#95268F"/>
<path d="M183.656 -353.881C154.659 -372.104 94.2477 -397.576 51.7525 -392.323C-27.5105 -382.507 -107.004 -338.548 -148.966 -294.603C-175.402 -267.004 -220.545 -197.176 -222.157 -141.625C-224.402 -63.8602 -189.245 13.9051 -151.398 52.6556C-129.036 75.5303 -74.7114 109.615 -38.7926 117.949C156.213 163.126 311.084 60.4175 294.017 -117.885C283.728 -225.421 247.593 -313.648 183.584 -353.881H183.656ZM191.686 -367.291C261.955 -323.127 298.953 -228.546 309.4 -119.411C327.907 73.887 158.53 179.824 -42.2751 133.297C-81.4605 124.214 -138.289 88.3689 -162.335 63.7922C-203.147 21.931 -239.943 -59.9132 -237.583 -142.066C-235.813 -203.397 -187.519 -276.82 -160.105 -305.519C-115.667 -352.105 -32.9645 -397.708 49.8242 -407.964C97.6295 -413.833 161.826 -386.072 191.686 -367.291Z" fill="#FFF200"/>
<path d="M-203.305 -32.2845C-210.007 -42.4522 -214.311 -54.0625 -215.882 -66.2078L-216.703 -83.0521C-209.939 -147.612 -228.129 -190.75 -186.209 -250.071C-127.107 -333.838 -84.2379 -390.283 16.136 -416.636C110.423 -441.374 203.918 -384.033 272.46 -319.796C307.386 -287.002 332.569 -257.32 340.959 -207.154C350.399 -150.253 355.911 -113.014 341.031 -55.6141C327.806 -4.25974 307.53 21.8283 278.576 63.9976C254.817 98.6985 238.729 115.719 200.32 133.737C146.946 158.783 111.401 170.551 51.5078 163.933C-2.75879 158.064 -39.7568 157.492 -87.6628 126.034C-141.699 90.4232 -161.054 52.3915 -186.957 -4.84665C-191.418 -14.7801 -197.52 -23.2462 -203.305 -32.3433V-32.2845ZM-190.354 -40.9121C-184.151 -31.1548 -177.719 -22.0724 -172.941 -11.42C-147.326 45.3046 -129.453 79.7854 -79.2876 112.858C-33.9574 142.629 1.70227 142.731 53.1052 148.336C109.128 154.513 141.736 143.934 193.816 119.49C229.101 102.954 243.233 88.1488 265.912 54.9886C293.657 14.5947 313.401 -10.5543 326.093 -59.6051C340.081 -113.542 335.116 -147.92 325.719 -204.483C318.207 -249.455 296.118 -276.145 261.998 -308.175C194.104 -371.84 106.091 -423.972 19.9926 -401.332C-74.6394 -376.491 -114.746 -324.315 -173.675 -240.827C-212.083 -186.539 -195.074 -142.623 -201.218 -82.5532L-200.513 -67.7044C-199.234 -58.0509 -195.749 -48.8386 -190.339 -40.8094" fill="#008C44"/>
<path d="M104.191 -353.118C90.3622 -353.47 76.8495 -353.279 68.431 -353.587C40.1681 -353.998 13.488 -346.368 -14.372 -343.214C-27.6944 -341.576 -40.6393 -337.605 -52.6364 -331.475C-77.9637 -318.563 -117.897 -275.176 -137.54 -244.657C-162.551 -205.613 -175.503 -136.695 -168.912 -79.1199C-158.392 13.993 -98.7005 99.1239 -13.2352 122.483C70.9782 145.446 169.021 106.475 215.876 49.9998C227.705 35.7379 246.096 12.2323 258.746 -7.48782C292.578 -60.3095 299.701 -143.621 279.526 -202.077C270.891 -230.513 269.452 -243.028 250.5 -266.945C226.971 -296.628 210.379 -311.477 177.267 -329.524C167.97 -334.586 149.478 -347.263 140.197 -349.655C131.562 -351.9 118.136 -352.78 104.22 -353.118H104.191ZM104.508 -368.876C118.352 -368.524 133.289 -367.658 143.924 -364.929C156.242 -361.745 172.849 -349.758 184.491 -343.419C219.618 -324.271 237.735 -307.984 262.458 -276.849C282.907 -251.04 284.965 -237.468 294.118 -207.007C315.703 -144.325 308.249 -56.1424 271.611 1.12506C258.659 21.3734 239.75 45.5246 227.605 60.168C177.252 121.016 73.1943 162.349 -17.2213 137.669C-110.17 112.3 -173.229 20.6837 -184.31 -77.3005C-191.16 -137.591 -177.92 -210.426 -150.406 -253.373C-130.259 -284.802 -88.5264 -330.933 -59.5439 -345.664C-45.9139 -352.618 -31.205 -357.111 -16.0701 -358.943C12.5239 -362.185 39.6788 -369.83 68.7332 -369.404C77.0941 -369.082 90.722 -369.287 104.566 -368.949" fill="#10489C"/>
<path d="M-149.47 -265.228C-136.144 -287.105 -121.38 -308.601 -107.651 -330.184L-99.5349 -336.992C-54.9243 -405.675 20.4821 -390.342 87.7289 -387.011C200.824 -381.362 280.447 -325.504 328.626 -221.401C370.733 -130.225 370.46 -47.8816 318.236 38.8486C304.781 61.1364 291.758 79.3012 276.216 100.078C236.182 153.266 191.513 173.441 126.555 173.441C59.6099 173.441 20.5828 167.103 -42.8506 144.096C-77.2727 131.683 -99.6356 123.319 -126.186 96.2482C-149.211 72.7719 -154.449 51.5992 -169.286 23.8531C-209.579 -51.5645 -216.156 -117.445 -183.777 -197.044C-174.267 -220.711 -162.784 -243.503 -149.456 -265.169L-149.47 -265.228ZM-136.331 -256.85C-149.188 -235.909 -160.261 -213.883 -169.43 -191.014C-199.837 -116.271 -193.894 -55.3793 -155.658 16.3114C-142.145 41.5778 -135.857 64.0269 -115.192 85.1116C-90.7279 110.055 -71.6317 116.995 -37.6269 129.247C23.9933 151.564 61.3367 157.697 126.54 157.697C187.11 157.697 227.072 139.503 263.941 90.5112C279.166 70.1602 291.902 52.3622 305.069 30.6026C354.299 -51.0656 354.817 -127.716 314.639 -214.607C268.848 -313.589 194.233 -365.839 86.9807 -371.209C24.8136 -374.276 -47.2685 -390.093 -87.8929 -326.281L-95.9948 -319.488C-111.58 -295.028 -124.56 -276.189 -136.288 -256.835" fill="#00AEEF"/>
<path d="M44.9029 1.43311H7.89048C4.4253 1.43311 1.61621 4.29727 1.61621 7.8304V45.5685C1.61621 49.1017 4.4253 51.9658 7.89048 51.9658H44.9029C48.3681 51.9658 51.1772 49.1017 51.1772 45.5685V7.8304C51.1772 4.29727 48.3681 1.43311 44.9029 1.43311Z" stroke="black" stroke-miterlimit="3.86"/>
<path d="M23.418 35.107L18.8418 29.7074L23.418 24.2932" stroke="black" stroke-linecap="round" stroke-linejoin="round"/>
<path d="M19.9209 29.7073H28.5696" stroke="black" stroke-linecap="round" stroke-linejoin="round"/>
<path d="M15.1865 16.3698L29.7641 8.13843L44.3417 16.3698V45.275H15.1865V16.3698Z" stroke="black" stroke-linecap="round" stroke-linejoin="round"/>
</g>
<defs>
<clipPath id="clip0">
<rect width="51" height="52" fill="white" transform="translate(0.896484 0.699463)"/>
</clipPath>
</defs>
</svg>
