<svg width="53" height="52" viewBox="0 0 53 52" fill="none" xmlns="http://www.w3.org/2000/svg">
<g clip-path="url(#clip0)">
<path d="M44.9585 31.2793H8.02734V33.9703H44.9585V31.2793Z" fill="white"/>
<path d="M44.9585 31.2793H8.02734V33.9703H44.9585V31.2793Z" stroke="black" stroke-linecap="square" stroke-linejoin="round"/>
<path d="M37.5783 18.6301C37.5812 18.5197 37.6172 18.4127 37.6818 18.3223C37.7464 18.2319 37.8368 18.1622 37.9415 18.122C38.0463 18.0817 38.1609 18.0726 38.2709 18.0958C38.3809 18.1191 38.4815 18.1737 38.5601 18.2527C38.6387 18.3317 38.6917 18.4317 38.7126 18.5402C38.7335 18.6486 38.7214 18.7607 38.6777 18.8624C38.634 18.9642 38.5606 19.051 38.4669 19.112C38.3731 19.1731 38.2631 19.2057 38.1505 19.2057C38.0742 19.2057 37.9985 19.1908 37.9281 19.1617C37.8577 19.1326 37.794 19.0899 37.7406 19.0363C37.6873 18.9826 37.6455 18.919 37.6176 18.8493C37.5897 18.7795 37.5764 18.705 37.5783 18.6301Z" fill="black"/>
<path d="M37.5781 20.4433C37.5781 20.2945 37.6384 20.1517 37.7457 20.0465C37.853 19.9412 37.9986 19.8821 38.1504 19.8821C38.3021 19.8821 38.4477 19.9412 38.555 20.0465C38.6623 20.1517 38.7226 20.2945 38.7226 20.4433C38.7226 20.5922 38.6623 20.7349 38.555 20.8402C38.4477 20.9454 38.3021 21.0045 38.1504 21.0045C37.9986 21.0045 37.853 20.9454 37.7457 20.8402C37.6384 20.7349 37.5781 20.5922 37.5781 20.4433Z" fill="black"/>
<path d="M37.5781 22.2854C37.5781 22.1365 37.6384 21.9938 37.7457 21.8885C37.853 21.7833 37.9986 21.7241 38.1504 21.7241C38.3021 21.7241 38.4477 21.7833 38.555 21.8885C38.6623 21.9938 38.7226 22.1365 38.7226 22.2854C38.7226 22.4342 38.6623 22.5769 38.555 22.6822C38.4477 22.7875 38.3021 22.8466 38.1504 22.8466C37.9986 22.8466 37.853 22.7875 37.7457 22.6822C37.6384 22.5769 37.5781 22.4342 37.5781 22.2854Z" fill="black"/>
<path d="M37.5783 24.041C37.5783 23.93 37.6119 23.8215 37.6748 23.7292C37.7376 23.6369 37.827 23.5649 37.9316 23.5225C38.0361 23.48 38.1512 23.4689 38.2622 23.4905C38.3732 23.5122 38.4752 23.5656 38.5552 23.6441C38.6352 23.7226 38.6897 23.8226 38.7118 23.9315C38.7339 24.0403 38.7225 24.1532 38.6792 24.2557C38.6359 24.3583 38.5626 24.4459 38.4685 24.5076C38.3744 24.5693 38.2637 24.6022 38.1506 24.6022C38.0749 24.6042 37.9995 24.591 37.9292 24.5635C37.8589 24.536 37.795 24.4947 37.7414 24.4422C37.6879 24.3897 37.6458 24.327 37.6178 24.2581C37.5897 24.1891 37.5763 24.1152 37.5783 24.041Z" fill="black"/>
<path d="M37.5781 25.8398C37.5781 25.6909 37.6384 25.5482 37.7457 25.4429C37.853 25.3377 37.9986 25.2786 38.1504 25.2786C38.3021 25.2786 38.4477 25.3377 38.555 25.4429C38.6623 25.5482 38.7226 25.6909 38.7226 25.8398C38.7226 25.9886 38.6623 26.1314 38.555 26.2366C38.4477 26.3419 38.3021 26.401 38.1504 26.401C37.9986 26.401 37.853 26.3419 37.7457 26.2366C37.6384 26.1314 37.5781 25.9886 37.5781 25.8398Z" fill="black"/>
<path d="M36.2139 19.2775C36.1116 19.2304 36.0258 19.1547 35.9673 19.0599C35.9089 18.965 35.8803 18.8554 35.8853 18.7446C35.8903 18.6339 35.9286 18.5271 35.9954 18.4378C36.0622 18.3484 36.1545 18.2804 36.2606 18.2423C36.3667 18.2043 36.482 18.1979 36.5918 18.224C36.7016 18.2501 36.8011 18.3076 36.8777 18.389C36.9543 18.4705 37.0046 18.5724 37.0222 18.6818C37.0399 18.7913 37.0241 18.9034 36.9768 19.0041C36.9101 19.1374 36.7935 19.2402 36.6514 19.2912C36.5092 19.3421 36.3524 19.3372 36.2139 19.2775Z" fill="black"/>
<path d="M35.436 20.8462C35.3674 20.8153 35.3058 20.7713 35.2546 20.7169C35.2034 20.6624 35.1637 20.5986 35.1378 20.529C35.1119 20.4594 35.1002 20.3855 35.1036 20.3116C35.1069 20.2376 35.1252 20.165 35.1573 20.0979C35.2239 19.9646 35.3405 19.8618 35.4827 19.8108C35.6249 19.7599 35.7817 19.7648 35.9202 19.8245C35.9886 19.8557 36.0501 19.8998 36.1011 19.9543C36.1522 20.0087 36.1918 20.0725 36.2176 20.142C36.2435 20.2115 36.2552 20.2853 36.252 20.3592C36.2488 20.4332 36.2308 20.5057 36.199 20.5728C36.1672 20.6399 36.1223 20.7002 36.0667 20.7502C36.0112 20.8003 35.9461 20.8391 35.8753 20.8645C35.8044 20.8899 35.7292 20.9013 35.6538 20.8982C35.5784 20.8951 35.5044 20.8774 35.436 20.8462Z" fill="black"/>
<path d="M34.6438 22.5442C34.5079 22.4788 34.403 22.3644 34.3511 22.225C34.2991 22.0855 34.3041 21.9318 34.365 21.7959C34.4292 21.6604 34.5457 21.5555 34.6888 21.5042C34.8318 21.4529 34.9898 21.4595 35.128 21.5225C35.2661 21.5854 35.3731 21.6996 35.4254 21.84C35.4777 21.9803 35.471 22.1353 35.4068 22.2708C35.3401 22.404 35.2235 22.5069 35.0813 22.5578C34.9391 22.6088 34.7824 22.6039 34.6438 22.5442Z" fill="black"/>
<path d="M33.8806 24.1704C33.8122 24.1392 33.7508 24.0951 33.6997 24.0406C33.6487 23.9862 33.6091 23.9224 33.5832 23.8529C33.5573 23.7834 33.5457 23.7096 33.5489 23.6357C33.5521 23.5618 33.5701 23.4892 33.6019 23.4221C33.6336 23.355 33.6786 23.2947 33.7342 23.2447C33.7897 23.1946 33.8548 23.1558 33.9256 23.1304C33.9965 23.105 34.0717 23.0936 34.1471 23.0967C34.2224 23.0998 34.2964 23.1175 34.3648 23.1487C34.503 23.2117 34.61 23.3259 34.6622 23.4662C34.7145 23.6065 34.7078 23.7615 34.6436 23.897C34.5794 24.0325 34.463 24.1374 34.3199 24.1887C34.1768 24.2399 34.0188 24.2334 33.8806 24.1704Z" fill="black"/>
<path d="M33.1765 25.811C33.0406 25.7456 32.9357 25.6312 32.8838 25.4918C32.8318 25.3523 32.8368 25.1986 32.8977 25.0627C32.9293 24.9954 32.9741 24.9349 33.0296 24.8847C33.0851 24.8345 33.1502 24.7956 33.2212 24.7702C33.2921 24.7448 33.3674 24.7334 33.4429 24.7366C33.5183 24.7399 33.5923 24.7578 33.6607 24.7893C33.7293 24.8202 33.791 24.8642 33.8422 24.9186C33.8933 24.9731 33.933 25.0369 33.959 25.1065C33.9849 25.1761 33.9965 25.25 33.9932 25.3239C33.9898 25.3979 33.9716 25.4705 33.9395 25.5376C33.8728 25.6709 33.7562 25.7737 33.614 25.8247C33.4718 25.8756 33.3151 25.8707 33.1765 25.811Z" fill="black"/>
<path d="M42.5083 24.7893C42.4397 24.8202 42.378 24.8642 42.3268 24.9186C42.2757 24.9731 42.236 25.0369 42.21 25.1065C42.1841 25.1761 42.1725 25.25 42.1759 25.3239C42.1792 25.3979 42.1974 25.4705 42.2295 25.5376C42.2937 25.6731 42.4102 25.778 42.5533 25.8293C42.6964 25.8805 42.8544 25.874 42.9925 25.811C43.1307 25.748 43.2376 25.6338 43.2899 25.4935C43.3422 25.3531 43.3355 25.1982 43.2713 25.0627C43.2397 24.9954 43.1949 24.9349 43.1394 24.8847C43.0839 24.8345 43.0188 24.7956 42.9478 24.7702C42.8769 24.7448 42.8016 24.7334 42.7261 24.7366C42.6507 24.7399 42.5767 24.7578 42.5083 24.7893Z" fill="black"/>
<path d="M41.7305 23.1487C41.6619 23.1797 41.6002 23.2237 41.549 23.2781C41.4978 23.3325 41.4581 23.3964 41.4322 23.4659C41.4063 23.5355 41.3947 23.6094 41.398 23.6834C41.4014 23.7574 41.4196 23.83 41.4517 23.897C41.5159 24.0325 41.6324 24.1374 41.7754 24.1887C41.9185 24.24 42.0765 24.2334 42.2147 24.1704C42.3528 24.1075 42.4598 23.9933 42.5121 23.8529C42.5644 23.7126 42.5577 23.5576 42.4934 23.4221C42.4268 23.2889 42.3102 23.186 42.168 23.1351C42.0258 23.0841 41.8691 23.089 41.7305 23.1487Z" fill="black"/>
<path d="M40.9531 21.5227C40.8508 21.5698 40.765 21.6455 40.7066 21.7403C40.6481 21.8352 40.6196 21.9448 40.6246 22.0556C40.6296 22.1663 40.6679 22.273 40.7347 22.3624C40.8015 22.4518 40.8937 22.5198 40.9999 22.5579C41.106 22.5959 41.2212 22.6023 41.3311 22.5762C41.4409 22.55 41.5403 22.4926 41.6169 22.4112C41.6935 22.3297 41.7438 22.2278 41.7615 22.1184C41.7791 22.0089 41.7633 21.8968 41.7161 21.7961C41.6845 21.7288 41.6397 21.6683 41.5842 21.6181C41.5287 21.5679 41.4636 21.529 41.3926 21.5036C41.3217 21.4782 41.2464 21.4668 41.1709 21.47C41.0955 21.4733 41.0215 21.4912 40.9531 21.5227Z" fill="black"/>
<path d="M40.1755 19.8964C40.0396 19.9618 39.9348 20.0761 39.8828 20.2156C39.8309 20.355 39.8359 20.5088 39.8967 20.6447C39.9448 20.745 40.022 20.8291 40.1187 20.8865C40.2154 20.9438 40.3272 20.9718 40.4401 20.9669C40.553 20.962 40.6618 20.9244 40.753 20.8589C40.8441 20.7934 40.9135 20.7029 40.9522 20.5988C40.991 20.4947 40.9975 20.3817 40.9709 20.274C40.9443 20.1663 40.8857 20.0687 40.8027 19.9936C40.7196 19.9185 40.6157 19.8692 40.5041 19.8519C40.3925 19.8346 40.2782 19.85 40.1755 19.8964Z" fill="black"/>
<path d="M39.3977 18.256C39.2618 18.3214 39.1569 18.4358 39.105 18.5752C39.053 18.7146 39.058 18.8684 39.1189 19.0043C39.1669 19.1046 39.2441 19.1887 39.3408 19.2461C39.4375 19.3034 39.5494 19.3314 39.6622 19.3265C39.7751 19.3216 39.884 19.284 39.9751 19.2185C40.0663 19.153 40.1356 19.0625 40.1744 18.9584C40.2132 18.8543 40.2197 18.7413 40.1931 18.6336C40.1664 18.5259 40.1079 18.4284 40.0248 18.3532C39.9418 18.2781 39.8379 18.2288 39.7263 18.2115C39.6147 18.1942 39.5003 18.2097 39.3977 18.256Z" fill="black"/>
<path d="M25.9575 18.6301C25.9612 18.4824 26.0227 18.3417 26.1292 18.2373C26.2358 18.1328 26.3792 18.0725 26.5298 18.0688C26.6676 18.0904 26.7931 18.1595 26.8838 18.2637C26.9744 18.3679 27.0242 18.5003 27.0242 18.6373C27.0242 18.7742 26.9744 18.9067 26.8838 19.0108C26.7931 19.115 26.6676 19.1841 26.5298 19.2057C26.3767 19.2019 26.2311 19.1396 26.1242 19.0321C26.0173 18.9246 25.9575 18.7803 25.9575 18.6301Z" fill="black"/>
<path d="M25.9575 20.4433C25.9575 20.2944 26.0178 20.1517 26.1251 20.0464C26.2324 19.9412 26.378 19.882 26.5298 19.882C26.6055 19.88 26.6808 19.8932 26.7511 19.9207C26.8214 19.9482 26.8853 19.9895 26.9389 20.042C26.9924 20.0945 27.0345 20.1572 27.0625 20.2262C27.0906 20.2952 27.104 20.369 27.102 20.4433C27.102 20.517 27.0872 20.5899 27.0584 20.658C27.0297 20.7261 26.9875 20.788 26.9344 20.8401C26.8812 20.8922 26.8182 20.9336 26.7487 20.9618C26.6793 20.99 26.6049 21.0045 26.5298 21.0045C26.3792 21.0008 26.2358 20.9405 26.1292 20.8361C26.0227 20.7316 25.9612 20.591 25.9575 20.4433Z" fill="black"/>
<path d="M25.9575 22.2853C25.9575 22.1365 26.0178 21.9937 26.1251 21.8885C26.2324 21.7832 26.378 21.7241 26.5298 21.7241C26.6055 21.7221 26.6808 21.7353 26.7511 21.7628C26.8214 21.7903 26.8853 21.8315 26.9389 21.884C26.9924 21.9366 27.0345 21.9992 27.0625 22.0682C27.0906 22.1372 27.104 22.2111 27.102 22.2853C27.102 22.4342 27.0417 22.5769 26.9344 22.6822C26.8271 22.7874 26.6815 22.8465 26.5298 22.8465C26.3792 22.8429 26.2358 22.7826 26.1292 22.6781C26.0227 22.5736 25.9612 22.433 25.9575 22.2853Z" fill="black"/>
<path d="M25.9575 24.041C25.9575 23.8921 26.0178 23.7494 26.1251 23.6441C26.2324 23.5389 26.378 23.4797 26.5298 23.4797C26.6815 23.4797 26.8271 23.5389 26.9344 23.6441C27.0417 23.7494 27.102 23.8921 27.102 24.041C27.102 24.1898 27.0417 24.3326 26.9344 24.4378C26.8271 24.5431 26.6815 24.6022 26.5298 24.6022C26.378 24.6022 26.2324 24.5431 26.1251 24.4378C26.0178 24.3326 25.9575 24.1898 25.9575 24.041Z" fill="black"/>
<path d="M25.9575 25.8398C25.9612 25.6921 26.0227 25.5515 26.1292 25.447C26.2358 25.3425 26.3792 25.2822 26.5298 25.2786C26.6815 25.2786 26.8271 25.3377 26.9344 25.4429C27.0417 25.5482 27.102 25.6909 27.102 25.8398C27.104 25.914 27.0906 25.9879 27.0625 26.0569C27.0345 26.1259 26.9924 26.1885 26.9389 26.2411C26.8853 26.2936 26.8214 26.3348 26.7511 26.3623C26.6808 26.3898 26.6055 26.403 26.5298 26.401C26.378 26.401 26.2324 26.3419 26.1251 26.2366C26.0178 26.1314 25.9575 25.9886 25.9575 25.8398Z" fill="black"/>
<path d="M24.6516 19.2776C24.5157 19.2122 24.4108 19.0978 24.3589 18.9584C24.3069 18.8189 24.3119 18.6652 24.3728 18.5293C24.4046 18.4622 24.4496 18.4019 24.5051 18.3518C24.5607 18.3018 24.6257 18.263 24.6966 18.2376C24.7674 18.2122 24.8427 18.2007 24.918 18.2039C24.9934 18.207 25.0674 18.2247 25.1358 18.2559C25.2042 18.287 25.2657 18.3311 25.3167 18.3856C25.3677 18.4401 25.4073 18.5039 25.4332 18.5734C25.4591 18.6429 25.4708 18.7167 25.4676 18.7906C25.4644 18.8645 25.4464 18.9371 25.4146 19.0042C25.3479 19.1374 25.2313 19.2403 25.0891 19.2912C24.9469 19.3422 24.7902 19.3373 24.6516 19.2776Z" fill="black"/>
<path d="M23.8738 20.8462C23.7357 20.7832 23.6287 20.669 23.5764 20.5287C23.5241 20.3883 23.5308 20.2334 23.595 20.0979C23.6592 19.9624 23.7757 19.8575 23.9188 19.8062C24.0619 19.7549 24.2199 19.7615 24.358 19.8245C24.4264 19.8556 24.4879 19.8997 24.5389 19.9542C24.5899 20.0087 24.6295 20.0725 24.6554 20.142C24.6813 20.2115 24.693 20.2853 24.6898 20.3592C24.6866 20.4331 24.6686 20.5057 24.6368 20.5728C24.605 20.6399 24.56 20.7001 24.5045 20.7502C24.4489 20.8002 24.3839 20.8391 24.313 20.8645C24.2422 20.8898 24.1669 20.9013 24.0916 20.8982C24.0162 20.895 23.9422 20.8774 23.8738 20.8462Z" fill="black"/>
<path d="M23.0964 22.5444C22.9605 22.479 22.8557 22.3646 22.8037 22.2252C22.7518 22.0857 22.7568 21.932 22.8176 21.7961C22.8492 21.7288 22.894 21.6683 22.9496 21.6181C23.0051 21.5679 23.0702 21.529 23.1411 21.5036C23.212 21.4782 23.2874 21.4668 23.3628 21.47C23.4382 21.4733 23.5123 21.4912 23.5806 21.5227C23.6492 21.5536 23.7109 21.5976 23.7621 21.652C23.8133 21.7065 23.853 21.7703 23.8789 21.8399C23.9048 21.9095 23.9164 21.9834 23.9131 22.0573C23.9097 22.1313 23.8915 22.2039 23.8594 22.271C23.7927 22.4043 23.6761 22.5071 23.5339 22.5581C23.3918 22.609 23.235 22.6041 23.0964 22.5444Z" fill="black"/>
<path d="M22.3189 24.1703C22.2502 24.1396 22.1886 24.0955 22.1378 24.0407C22.087 23.986 22.048 23.9217 22.0234 23.8517C21.9987 23.7817 21.9887 23.7075 21.9941 23.6337C21.9995 23.5598 22.0201 23.4878 22.0548 23.422C22.1186 23.2898 22.2325 23.1872 22.3722 23.1361C22.512 23.0851 22.6666 23.0895 22.8031 23.1486C22.873 23.178 22.9361 23.2211 22.9885 23.2753C23.0408 23.3294 23.0813 23.3936 23.1074 23.4637C23.1335 23.5338 23.1447 23.6084 23.1403 23.6829C23.1359 23.7574 23.116 23.8302 23.0818 23.8969C23.0503 23.9642 23.0054 24.0247 22.9499 24.0749C22.8944 24.1251 22.8293 24.164 22.7584 24.1894C22.6875 24.2149 22.6121 24.2263 22.5367 24.223C22.4613 24.2197 22.3872 24.2018 22.3189 24.1703Z" fill="black"/>
<path d="M21.5557 25.811C21.4871 25.78 21.4254 25.7361 21.3742 25.6816C21.323 25.6272 21.2833 25.5633 21.2574 25.4938C21.2315 25.4242 21.2199 25.3503 21.2232 25.2763C21.2266 25.2023 21.2448 25.1297 21.2769 25.0627C21.3085 24.9954 21.3533 24.9349 21.4088 24.8847C21.4643 24.8345 21.5294 24.7956 21.6003 24.7702C21.6713 24.7448 21.7466 24.7334 21.822 24.7366C21.8975 24.7399 21.9715 24.7578 22.0399 24.7893C22.1758 24.8547 22.2806 24.969 22.3326 25.1085C22.3845 25.2479 22.3795 25.4017 22.3186 25.5376C22.252 25.6709 22.1354 25.7737 21.9932 25.8247C21.851 25.8756 21.6942 25.8707 21.5557 25.811Z" fill="black"/>
<path d="M30.9463 24.7893C30.8777 24.8203 30.816 24.8642 30.7648 24.9187C30.7136 24.9731 30.674 25.037 30.648 25.1065C30.6221 25.1761 30.6105 25.25 30.6138 25.324C30.6172 25.398 30.6354 25.4706 30.6675 25.5376C30.7342 25.6709 30.8508 25.7737 30.993 25.8247C31.1352 25.8756 31.2919 25.8707 31.4305 25.811C31.4989 25.7798 31.5604 25.7358 31.6114 25.6813C31.6624 25.6268 31.702 25.563 31.7279 25.4935C31.7538 25.424 31.7655 25.3502 31.7623 25.2763C31.7591 25.2024 31.7411 25.1298 31.7093 25.0627C31.6775 24.9956 31.6325 24.9353 31.577 24.8853C31.5214 24.8352 31.4564 24.7964 31.3855 24.771C31.3147 24.7456 31.2394 24.7342 31.1641 24.7373C31.0887 24.7405 31.0147 24.7581 30.9463 24.7893Z" fill="black"/>
<path d="M30.2419 23.1487C30.106 23.2141 30.0012 23.3285 29.9492 23.4679C29.8973 23.6074 29.9023 23.7611 29.9632 23.897C30.0274 24.0325 30.1438 24.1374 30.2869 24.1887C30.43 24.24 30.588 24.2334 30.7261 24.1704C30.8643 24.1075 30.9713 23.9933 31.0235 23.8529C31.0758 23.7126 31.0691 23.5576 31.0049 23.4221C30.9382 23.2889 30.8216 23.186 30.6794 23.1351C30.5373 23.0841 30.3805 23.089 30.2419 23.1487Z" fill="black"/>
<path d="M29.3909 21.5226C29.255 21.588 29.1501 21.7024 29.0981 21.8418C29.0462 21.9812 29.0512 22.135 29.1121 22.2709C29.1601 22.3712 29.2373 22.4553 29.334 22.5127C29.4307 22.57 29.5425 22.598 29.6554 22.5931C29.7683 22.5882 29.8772 22.5506 29.9683 22.4851C30.0595 22.4196 30.1288 22.3291 30.1676 22.225C30.2063 22.1209 30.2128 22.0079 30.1862 21.9002C30.1596 21.7925 30.1011 21.695 30.018 21.6198C29.9349 21.5447 29.8311 21.4954 29.7194 21.4781C29.6078 21.4608 29.4935 21.4763 29.3909 21.5226Z" fill="black"/>
<path d="M28.613 19.8964C28.4771 19.9618 28.3723 20.0761 28.3203 20.2156C28.2684 20.355 28.2734 20.5088 28.3342 20.6447C28.3823 20.745 28.4595 20.8291 28.5562 20.8865C28.6529 20.9438 28.7647 20.9718 28.8776 20.9669C28.9905 20.962 29.0993 20.9244 29.1905 20.8589C29.2816 20.7934 29.351 20.7029 29.3897 20.5988C29.4285 20.4947 29.435 20.3817 29.4084 20.274C29.3818 20.1663 29.3232 20.0687 29.2402 19.9936C29.1571 19.9185 29.0532 19.8692 28.9416 19.8519C28.83 19.8346 28.7157 19.85 28.613 19.8964Z" fill="black"/>
<path d="M27.8357 18.2558C27.6997 18.321 27.5956 18.4363 27.5461 18.5765C27.4966 18.7167 27.5058 18.8705 27.5716 19.0041C27.5968 19.0798 27.6381 19.1494 27.6928 19.2082C27.7475 19.2671 27.8143 19.3138 27.8888 19.3454C27.9634 19.3769 28.0439 19.3926 28.1251 19.3913C28.2062 19.39 28.2862 19.3717 28.3596 19.3378C28.4331 19.3038 28.4983 19.2549 28.551 19.1943C28.6037 19.1338 28.6426 19.0629 28.6652 18.9864C28.6878 18.9099 28.6936 18.8296 28.6821 18.7508C28.6706 18.672 28.6422 18.5965 28.5987 18.5292C28.5671 18.462 28.5223 18.4015 28.4668 18.3513C28.4112 18.3011 28.3462 18.2621 28.2752 18.2367C28.2043 18.2113 28.1289 18.1999 28.0535 18.2032C27.9781 18.2065 27.904 18.2244 27.8357 18.2558Z" fill="black"/>
<path d="M14.3955 18.6301C14.3992 18.4824 14.4607 18.3417 14.5672 18.2373C14.6737 18.1328 14.8171 18.0725 14.9677 18.0688C15.1056 18.0904 15.2311 18.1595 15.3218 18.2637C15.4124 18.3679 15.4621 18.5003 15.4621 18.6373C15.4621 18.7742 15.4124 18.9067 15.3218 19.0108C15.2311 19.115 15.1056 19.1841 14.9677 19.2057C14.8146 19.2019 14.6691 19.1396 14.5622 19.0321C14.4553 18.9246 14.3955 18.7803 14.3955 18.6301Z" fill="black"/>
<path d="M14.3955 20.4433C14.3955 20.3696 14.4103 20.2966 14.4391 20.2285C14.4678 20.1604 14.51 20.0985 14.5631 20.0464C14.6162 19.9943 14.6793 19.953 14.7488 19.9248C14.8182 19.8965 14.8926 19.882 14.9677 19.882C15.0434 19.88 15.1188 19.8932 15.1891 19.9207C15.2594 19.9482 15.3233 19.9895 15.3769 20.042C15.4304 20.0945 15.4725 20.1572 15.5005 20.2262C15.5286 20.2952 15.542 20.369 15.54 20.4433C15.54 20.517 15.5252 20.5899 15.4964 20.658C15.4677 20.7261 15.4255 20.788 15.3724 20.8401C15.3192 20.8922 15.2562 20.9336 15.1867 20.9618C15.1173 20.99 15.0429 21.0045 14.9677 21.0045C14.8171 21.0008 14.6737 20.9405 14.5672 20.8361C14.4607 20.7316 14.3992 20.591 14.3955 20.4433Z" fill="black"/>
<path d="M14.3955 22.2854C14.3955 22.2117 14.4103 22.1387 14.4391 22.0706C14.4678 22.0025 14.51 21.9406 14.5631 21.8885C14.6162 21.8364 14.6793 21.7951 14.7488 21.7669C14.8182 21.7387 14.8926 21.7241 14.9677 21.7241C15.0458 21.718 15.1244 21.7281 15.1982 21.7538C15.272 21.7795 15.3395 21.8201 15.3963 21.873C15.453 21.926 15.4978 21.9901 15.5276 22.0611C15.5574 22.1322 15.5716 22.2086 15.5693 22.2854C15.5693 22.4342 15.509 22.577 15.4017 22.6822C15.2944 22.7875 15.1489 22.8466 14.9971 22.8466C14.92 22.8485 14.8433 22.8355 14.7713 22.8083C14.6994 22.7812 14.6336 22.7404 14.5777 22.6882C14.5219 22.6361 14.477 22.5737 14.4458 22.5046C14.4145 22.4355 14.3974 22.361 14.3955 22.2854Z" fill="black"/>
<path d="M14.3955 24.041C14.3955 23.9673 14.4103 23.8943 14.4391 23.8262C14.4678 23.7581 14.51 23.6962 14.5631 23.6441C14.6162 23.592 14.6793 23.5507 14.7488 23.5225C14.8182 23.4943 14.8926 23.4797 14.9677 23.4797C15.1195 23.4797 15.2651 23.5389 15.3724 23.6441C15.4797 23.7494 15.54 23.8921 15.54 24.041C15.54 24.1898 15.4797 24.3326 15.3724 24.4378C15.2651 24.5431 15.1195 24.6022 14.9677 24.6022C14.8926 24.6022 14.8182 24.5877 14.7488 24.5595C14.6793 24.5313 14.6162 24.4899 14.5631 24.4378C14.51 24.3857 14.4678 24.3238 14.4391 24.2557C14.4103 24.1876 14.3955 24.1147 14.3955 24.041Z" fill="black"/>
<path d="M14.3955 25.8398C14.3992 25.6921 14.4607 25.5515 14.5672 25.447C14.6737 25.3425 14.8171 25.2822 14.9677 25.2786C15.1195 25.2786 15.2651 25.3377 15.3724 25.4429C15.4797 25.5482 15.54 25.6909 15.54 25.8398C15.542 25.914 15.5286 25.9879 15.5005 26.0569C15.4725 26.1259 15.4304 26.1885 15.3769 26.2411C15.3233 26.2936 15.2594 26.3348 15.1891 26.3623C15.1188 26.3898 15.0434 26.403 14.9677 26.401C14.8926 26.401 14.8182 26.3865 14.7488 26.3583C14.6793 26.3301 14.6162 26.2888 14.5631 26.2366C14.51 26.1845 14.4678 26.1227 14.4391 26.0546C14.4103 25.9865 14.3955 25.9135 14.3955 25.8398Z" fill="black"/>
<path d="M13.0896 19.2775C12.9537 19.2121 12.8488 19.0978 12.7969 18.9583C12.7449 18.8189 12.7499 18.6652 12.8108 18.5292C12.8424 18.462 12.8872 18.4015 12.9427 18.3513C12.9982 18.3011 13.0633 18.2621 13.1343 18.2367C13.2052 18.2113 13.2805 18.1999 13.356 18.2032C13.4314 18.2065 13.5054 18.2244 13.5738 18.2558C13.6424 18.2868 13.7041 18.3308 13.7552 18.3852C13.8064 18.4396 13.8461 18.5035 13.872 18.573C13.898 18.6426 13.9096 18.7165 13.9062 18.7905C13.9029 18.8645 13.8847 18.9371 13.8526 19.0041C13.7859 19.1374 13.6693 19.2403 13.5271 19.2912C13.3849 19.3422 13.2282 19.3373 13.0896 19.2775Z" fill="black"/>
<path d="M12.312 20.8461C12.2433 20.8154 12.1817 20.7713 12.1309 20.7165C12.0801 20.6618 12.0412 20.5974 12.0165 20.5275C11.9918 20.4575 11.9819 20.3833 11.9873 20.3095C11.9927 20.2356 12.0133 20.1636 12.0479 20.0978C12.1117 19.9656 12.2256 19.863 12.3654 19.8119C12.5052 19.7609 12.6598 19.7653 12.7962 19.8244C12.8662 19.8538 12.9293 19.8969 12.9816 19.951C13.0339 20.0052 13.0744 20.0693 13.1005 20.1394C13.1267 20.2095 13.1379 20.2842 13.1335 20.3587C13.1291 20.4332 13.1092 20.506 13.075 20.5727C13.0434 20.64 12.9986 20.7005 12.9431 20.7507C12.8876 20.8009 12.8225 20.8398 12.7516 20.8652C12.6806 20.8906 12.6053 20.902 12.5299 20.8988C12.4544 20.8955 12.3804 20.8776 12.312 20.8461Z" fill="black"/>
<path d="M11.5491 22.5442C11.4109 22.4812 11.304 22.367 11.2517 22.2267C11.1994 22.0863 11.2061 21.9314 11.2703 21.7959C11.3345 21.6604 11.451 21.5555 11.5941 21.5042C11.7371 21.4529 11.8951 21.4595 12.0333 21.5225C12.1692 21.5879 12.2741 21.7022 12.326 21.8417C12.378 21.9811 12.373 22.1348 12.3121 22.2708C12.2454 22.404 12.1288 22.5069 11.9866 22.5578C11.8444 22.6088 11.6877 22.6039 11.5491 22.5442Z" fill="black"/>
<path d="M10.771 24.1704C10.7024 24.1395 10.6407 24.0955 10.5895 24.0411C10.5384 23.9866 10.4987 23.9228 10.4727 23.8532C10.4468 23.7836 10.4352 23.7097 10.4385 23.6358C10.4419 23.5618 10.4601 23.4892 10.4922 23.4221C10.5402 23.3218 10.6174 23.2377 10.7141 23.1803C10.8108 23.123 10.9227 23.095 11.0356 23.0999C11.1484 23.1048 11.2573 23.1424 11.3485 23.2079C11.4396 23.2734 11.5089 23.3639 11.5477 23.468C11.5865 23.5721 11.593 23.6851 11.5664 23.7928C11.5397 23.9005 11.4812 23.9981 11.3981 24.0732C11.3151 24.1483 11.2112 24.1976 11.0996 24.2149C10.988 24.2322 10.8736 24.2168 10.771 24.1704Z" fill="black"/>
<path d="M9.99361 25.811C9.92373 25.7814 9.86058 25.7384 9.80786 25.6845C9.75514 25.6306 9.71391 25.567 9.68658 25.4973C9.65925 25.4276 9.64638 25.3533 9.64871 25.2787C9.65104 25.204 9.66853 25.1306 9.70015 25.0627C9.73172 24.9954 9.77655 24.9349 9.83206 24.8847C9.88758 24.8345 9.95267 24.7956 10.0236 24.7702C10.0945 24.7448 10.1699 24.7334 10.2453 24.7366C10.3207 24.7399 10.3948 24.7578 10.4631 24.7893C10.6013 24.8522 10.7083 24.9665 10.7605 25.1068C10.8128 25.2471 10.8061 25.4021 10.7419 25.5376C10.6777 25.6731 10.5612 25.778 10.4182 25.8293C10.2751 25.8805 10.1171 25.874 9.97893 25.811" fill="black"/>
<path d="M19.3841 24.7893C19.2459 24.8523 19.1389 24.9665 19.0866 25.1068C19.0344 25.2472 19.0411 25.4021 19.1053 25.5376C19.1695 25.6731 19.2859 25.778 19.429 25.8293C19.5721 25.8806 19.7301 25.874 19.8683 25.811C19.9367 25.7798 19.9981 25.7358 20.0492 25.6813C20.1002 25.6268 20.1398 25.563 20.1657 25.4935C20.1915 25.424 20.2032 25.3502 20.2 25.2763C20.1968 25.2024 20.1788 25.1298 20.147 25.0627C20.1152 24.9956 20.0703 24.9353 20.0147 24.8853C19.9592 24.8352 19.8941 24.7964 19.8233 24.771C19.7524 24.7456 19.6772 24.7342 19.6018 24.7373C19.5265 24.7405 19.4525 24.7581 19.3841 24.7893Z" fill="black"/>
<path d="M18.6062 23.1487C18.4703 23.2141 18.3654 23.3285 18.3135 23.4679C18.2615 23.6074 18.2665 23.7611 18.3274 23.897C18.3592 23.9641 18.4042 24.0244 18.4597 24.0745C18.5153 24.1245 18.5803 24.1633 18.6512 24.1887C18.722 24.2141 18.7973 24.2256 18.8726 24.2224C18.948 24.2193 19.022 24.2016 19.0904 24.1704C19.1588 24.1393 19.2203 24.0952 19.2713 24.0407C19.3223 23.9862 19.3619 23.9224 19.3878 23.8529C19.4137 23.7834 19.4254 23.7096 19.4222 23.6357C19.419 23.5618 19.401 23.4892 19.3692 23.4221C19.3025 23.2889 19.1859 23.186 19.0437 23.1351C18.9015 23.0841 18.7448 23.089 18.6062 23.1487Z" fill="black"/>
<path d="M17.8289 21.5225C17.6907 21.5854 17.5837 21.6996 17.5315 21.84C17.4792 21.9803 17.4859 22.1353 17.5501 22.2708C17.6143 22.4063 17.7308 22.5112 17.8738 22.5625C18.0169 22.6137 18.1749 22.6072 18.3131 22.5442C18.3815 22.513 18.4429 22.4689 18.494 22.4144C18.545 22.3599 18.5846 22.2961 18.6105 22.2267C18.6364 22.1572 18.648 22.0834 18.6449 22.0094C18.6417 21.9355 18.6236 21.863 18.5919 21.7959C18.5601 21.7288 18.5151 21.6685 18.4596 21.6185C18.404 21.5684 18.339 21.5296 18.2681 21.5042C18.1973 21.4788 18.122 21.4673 18.0466 21.4705C17.9713 21.4736 17.8973 21.4913 17.8289 21.5225Z" fill="black"/>
<path d="M17.0366 19.8963C16.968 19.9271 16.9063 19.9712 16.8555 20.0259C16.8047 20.0807 16.7658 20.145 16.7411 20.215C16.7164 20.285 16.7065 20.3591 16.7119 20.433C16.7173 20.5068 16.7379 20.5788 16.7725 20.6446C16.804 20.7102 16.8483 20.7689 16.9031 20.8175C16.9578 20.866 17.0219 20.9034 17.0915 20.9275C17.1611 20.9516 17.2349 20.9619 17.3086 20.9578C17.3823 20.9537 17.4544 20.9353 17.5208 20.9037C17.5908 20.8743 17.6539 20.8312 17.7062 20.777C17.7586 20.7228 17.799 20.6587 17.8251 20.5886C17.8513 20.5185 17.8625 20.4439 17.8581 20.3694C17.8537 20.2949 17.8338 20.2221 17.7996 20.1554C17.7683 20.088 17.7233 20.0276 17.6675 19.9778C17.6116 19.9279 17.5461 19.8898 17.4747 19.8655C17.4034 19.8413 17.3278 19.8316 17.2525 19.8368C17.1772 19.8421 17.1037 19.8624 17.0366 19.8963Z" fill="black"/>
<path d="M16.2883 18.2559C16.2199 18.287 16.1585 18.3311 16.1074 18.3856C16.0564 18.4401 16.0168 18.5039 15.9909 18.5734C15.9651 18.6429 15.9534 18.7167 15.9566 18.7906C15.9598 18.8645 15.9778 18.9371 16.0096 19.0042C16.0414 19.0712 16.0863 19.1315 16.1419 19.1816C16.1974 19.2316 16.2625 19.2705 16.3333 19.2958C16.4042 19.3212 16.4794 19.3327 16.5548 19.3296C16.6302 19.3264 16.7041 19.3088 16.7725 19.2776C16.841 19.2464 16.9024 19.2023 16.9535 19.1478C17.0045 19.0933 17.0441 19.0295 17.07 18.9601C17.0958 18.8906 17.1075 18.8168 17.1043 18.7428C17.1011 18.6689 17.0831 18.5964 17.0513 18.5293C17.0195 18.4622 16.9746 18.4019 16.919 18.3518C16.8635 18.3018 16.7984 18.263 16.7276 18.2376C16.6567 18.2122 16.5815 18.2007 16.5061 18.2039C16.4307 18.207 16.3568 18.2247 16.2883 18.2559Z" fill="black"/>
<path d="M1.36572 18.3999H52.4267" stroke="black"/>
<path d="M1.36572 34.0134H52.4267" stroke="black"/>
<path d="M45.7653 1.41895H8.02717C4.49405 1.41895 1.62988 4.22803 1.62988 7.69321V44.7056C1.62988 48.1708 4.49405 50.9799 8.02717 50.9799H45.7653C49.2984 50.9799 52.1626 48.1708 52.1626 44.7056V7.69321C52.1626 4.22803 49.2984 1.41895 45.7653 1.41895Z" stroke="black" stroke-miterlimit="3.86"/>
</g>
<defs>
<clipPath id="clip0">
<rect width="52" height="51" fill="white" transform="translate(0.896484 0.699463)"/>
</clipPath>
</defs>
</svg>
