<svg width="53" height="52" viewBox="0 0 53 52" fill="none" xmlns="http://www.w3.org/2000/svg">
<g clip-path="url(#clip0)">
<path d="M56.946 -2.00586H-3.13867V18.4719H56.946V-2.00586Z" stroke="black" stroke-linejoin="round"/>
<path d="M56.946 33.7114H-3.13867V54.1891H56.946V33.7114Z" stroke="black" stroke-linejoin="round"/>
<path d="M45.7653 1.41895H8.02717C4.49405 1.41895 1.62988 4.22803 1.62988 7.69321V44.7056C1.62988 48.1708 4.49405 50.9799 8.02717 50.9799H45.7653C49.2984 50.9799 52.1626 48.1708 52.1626 44.7056V7.69321C52.1626 4.22803 49.2984 1.41895 45.7653 1.41895Z" stroke="black" stroke-miterlimit="3.86"/>
<path d="M42.8751 30.5454H10.918V33.5674H42.8751V30.5454Z" stroke="black" stroke-linecap="square" stroke-linejoin="round"/>
<path d="M7.13244 18.6013C7.13244 19.767 6.47217 20.4001 6.47217 21.5945C6.47217 22.789 7.13244 23.379 7.13244 24.5878C7.13244 25.7966 6.47217 26.401 6.47217 27.581C6.47217 28.761 7.13244 29.3798 7.13244 30.5886C7.13244 31.7974 6.47217 32.3587 6.47217 33.5818H46.6607C46.6607 32.3874 47.3356 31.7543 47.3356 30.5886C47.3356 29.423 46.6607 28.7466 46.6607 27.581C46.6607 26.4154 47.3356 25.7678 47.3356 24.5878C47.3356 23.4078 46.6607 22.7602 46.6607 21.5945C46.6607 20.4289 47.3356 19.767 47.3356 18.6013H7.13244Z" stroke="black" stroke-width="0.5" stroke-miterlimit="3.86"/>
</g>
<defs>
<clipPath id="clip0">
<rect width="52" height="51" fill="white" transform="translate(0.896484 0.699463)"/>
</clipPath>
</defs>
</svg>
