<svg width="53" height="52" viewBox="0 0 53 52" fill="none" xmlns="http://www.w3.org/2000/svg">
<g clip-path="url(#clip0)">
<path d="M45.7653 1.41895H8.02717C4.49405 1.41895 1.62988 4.22803 1.62988 7.69321V44.7056C1.62988 48.1708 4.49405 50.9799 8.02717 50.9799H45.7653C49.2984 50.9799 52.1626 48.1708 52.1626 44.7056V7.69321C52.1626 4.22803 49.2984 1.41895 45.7653 1.41895Z" fill="white"/>
<path d="M27.2502 5.79253L7.59961 25.0652L27.2605 44.348L46.9111 25.0754L27.2502 5.79253Z" fill="white"/>
<path d="M27.2502 5.79253L7.59961 25.0652L27.2605 44.348L46.9111 25.0754L27.2502 5.79253Z" stroke="black" stroke-miterlimit="10"/>
<path d="M27.2502 5.79253L7.59961 25.0652L27.2605 44.348L46.9111 25.0754L27.2502 5.79253Z" stroke="black" stroke-width="1.3" stroke-linecap="round" stroke-linejoin="round"/>
<path d="M68.2148 23.6381C65.2802 23.6381 63.7249 22.0264 60.761 22.0264C57.7971 22.0264 56.3592 23.6381 53.2926 23.6381C50.226 23.6381 48.7881 22.0264 45.8242 22.0264C42.8603 22.0264 41.4224 23.6381 38.3705 23.6381C35.3186 23.6381 33.866 22.0264 30.9021 22.0264C27.9382 22.0264 26.5003 23.6381 23.4484 23.6381C20.3965 23.6381 18.9439 22.0264 15.98 22.0264C13.0161 22.0264 11.5782 23.6381 8.51159 23.6381C5.445 23.6381 4.02175 22.0264 1.05786 22.0264C-1.90602 22.0264 -3.34394 23.6381 -6.41053 23.6381C-9.47712 23.6381 -10.8417 22.0264 -13.8643 22.0264V25.3937C-10.9297 25.3937 -9.3304 27.0055 -6.41053 27.0055C-3.49067 27.0055 -1.84733 25.3937 1.05786 25.3937C3.96306 25.3937 5.59172 27.0055 8.51159 27.0055C11.4315 27.0055 13.0895 25.3937 15.98 25.3937C18.8705 25.3937 20.5285 27.0055 23.4484 27.0055C26.3682 27.0055 28.0116 25.3937 30.9021 25.3937C33.7926 25.3937 35.4506 27.0055 38.3705 27.0055C41.2904 27.0055 42.9337 25.3937 45.8242 25.3937C48.7147 25.3937 50.3728 27.0055 53.2926 27.0055C56.2125 27.0055 57.8558 25.3937 60.761 25.3937C63.6662 25.3937 65.2949 27.0055 68.2148 27.0055V23.6381Z" fill="white"/>
<path d="M68.2148 23.6381C65.2802 23.6381 63.7249 22.0264 60.761 22.0264C57.7971 22.0264 56.3592 23.6381 53.2926 23.6381C50.226 23.6381 48.7881 22.0264 45.8242 22.0264C42.8603 22.0264 41.4224 23.6381 38.3705 23.6381C35.3186 23.6381 33.866 22.0264 30.9021 22.0264C27.9382 22.0264 26.5003 23.6381 23.4484 23.6381C20.3965 23.6381 18.9439 22.0264 15.98 22.0264C13.0161 22.0264 11.5782 23.6381 8.51159 23.6381C5.445 23.6381 4.02175 22.0264 1.05786 22.0264C-1.90602 22.0264 -3.34394 23.6381 -6.41053 23.6381C-9.47712 23.6381 -10.8417 22.0264 -13.8643 22.0264V25.3937C-10.9297 25.3937 -9.3304 27.0055 -6.41053 27.0055C-3.49067 27.0055 -1.84733 25.3937 1.05786 25.3937C3.96306 25.3937 5.59172 27.0055 8.51159 27.0055C11.4315 27.0055 13.0895 25.3937 15.98 25.3937C18.8705 25.3937 20.5285 27.0055 23.4484 27.0055C26.3682 27.0055 28.0116 25.3937 30.9021 25.3937C33.7926 25.3937 35.4506 27.0055 38.3705 27.0055C41.2904 27.0055 42.9337 25.3937 45.8242 25.3937C48.7147 25.3937 50.3728 27.0055 53.2926 27.0055C56.2125 27.0055 57.8558 25.3937 60.761 25.3937C63.6662 25.3937 65.2949 27.0055 68.2148 27.0055V23.6381Z" stroke="black" stroke-width="0.5" stroke-miterlimit="3.86"/>
<path d="M68.2148 30.3727C65.2802 30.3727 63.7249 28.761 60.761 28.761C57.7971 28.761 56.3592 30.3727 53.2926 30.3727C50.226 30.3727 48.7881 28.761 45.8242 28.761C42.8603 28.761 41.4224 30.3727 38.3705 30.3727C35.3186 30.3727 33.866 28.761 30.9021 28.761C27.9382 28.761 26.5003 30.3727 23.4484 30.3727C20.3965 30.3727 18.9439 28.761 15.98 28.761C13.0161 28.761 11.5782 30.3727 8.51159 30.3727C5.445 30.3727 4.02175 28.761 1.05786 28.761C-1.90602 28.761 -3.34394 30.3727 -6.41053 30.3727C-9.47712 30.3727 -10.8417 28.761 -13.8643 28.761V32.1284C-10.8417 32.1284 -9.37442 33.7977 -6.43988 33.7977C-3.50534 33.7977 -1.87667 32.1859 1.02852 32.1859C3.93371 32.1859 5.59172 33.7977 8.51159 33.7977C11.4315 33.7977 13.0895 32.1859 15.98 32.1859C18.8705 32.1859 20.5285 33.7977 23.4484 33.7977C26.3682 33.7977 28.0116 32.1859 30.9021 32.1859C33.7926 32.1859 35.4506 33.7977 38.3705 33.7977C41.2904 33.7977 42.9337 32.1859 45.8242 32.1859C48.7147 32.1859 50.3728 33.7977 53.2926 33.7977C56.2125 33.7977 57.8558 32.1859 60.761 32.1859C63.6662 32.1859 65.2949 33.7977 68.2148 33.7977V30.3727Z" fill="white"/>
<path d="M68.2148 30.3727C65.2802 30.3727 63.7249 28.761 60.761 28.761C57.7971 28.761 56.3592 30.3727 53.2926 30.3727C50.226 30.3727 48.7881 28.761 45.8242 28.761C42.8603 28.761 41.4224 30.3727 38.3705 30.3727C35.3186 30.3727 33.866 28.761 30.9021 28.761C27.9382 28.761 26.5003 30.3727 23.4484 30.3727C20.3965 30.3727 18.9439 28.761 15.98 28.761C13.0161 28.761 11.5782 30.3727 8.51159 30.3727C5.445 30.3727 4.02175 28.761 1.05786 28.761C-1.90602 28.761 -3.34394 30.3727 -6.41053 30.3727C-9.47712 30.3727 -10.8417 28.761 -13.8643 28.761V32.1284C-10.8417 32.1284 -9.37442 33.7977 -6.43988 33.7977C-3.50534 33.7977 -1.87667 32.1859 1.02852 32.1859C3.93371 32.1859 5.59172 33.7977 8.51159 33.7977C11.4315 33.7977 13.0895 32.1859 15.98 32.1859C18.8705 32.1859 20.5285 33.7977 23.4484 33.7977C26.3682 33.7977 28.0116 32.1859 30.9021 32.1859C33.7926 32.1859 35.4506 33.7977 38.3705 33.7977C41.2904 33.7977 42.9337 32.1859 45.8242 32.1859C48.7147 32.1859 50.3728 33.7977 53.2926 33.7977C56.2125 33.7977 57.8558 32.1859 60.761 32.1859C63.6662 32.1859 65.2949 33.7977 68.2148 33.7977V30.3727Z" stroke="black" stroke-width="0.5" stroke-miterlimit="3.86"/>
<path d="M68.2148 37.1076C65.2802 37.1076 63.7249 35.4958 60.761 35.4958C57.7971 35.4958 56.3592 37.1076 53.2926 37.1076C50.226 37.1076 48.7881 35.4958 45.8242 35.4958C42.8603 35.4958 41.4224 37.1076 38.3705 37.1076C35.3186 37.1076 33.866 35.4958 30.9021 35.4958C27.9382 35.4958 26.5003 37.1076 23.4484 37.1076C20.3965 37.1076 18.9439 35.4958 15.98 35.4958C13.0161 35.4958 11.5782 37.1076 8.51159 37.1076C5.445 37.1076 4.02175 35.4958 1.05786 35.4958C-1.90602 35.4958 -3.38796 37.1076 -6.43988 37.1076C-9.4918 37.1076 -10.8417 35.4958 -13.8643 35.4958V38.8632C-10.9297 38.8632 -9.3304 40.475 -6.41053 40.475C-3.49067 40.475 -1.84733 38.8632 1.05786 38.8632C3.96306 38.8632 5.59172 40.475 8.51159 40.475C11.4315 40.475 13.0895 38.8632 15.98 38.8632C18.8705 38.8632 20.5285 40.475 23.4484 40.475C26.3682 40.475 28.0116 38.8632 30.9021 38.8632C33.7926 38.8632 35.4506 40.475 38.3705 40.475C41.2904 40.475 42.9337 38.8632 45.8242 38.8632C48.7147 38.8632 50.3728 40.475 53.2926 40.475C56.2125 40.475 57.8558 38.8632 60.761 38.8632C63.6662 38.8632 65.2949 40.475 68.2148 40.475V37.1076Z" fill="white"/>
<path d="M68.2148 37.1076C65.2802 37.1076 63.7249 35.4958 60.761 35.4958C57.7971 35.4958 56.3592 37.1076 53.2926 37.1076C50.226 37.1076 48.7881 35.4958 45.8242 35.4958C42.8603 35.4958 41.4224 37.1076 38.3705 37.1076C35.3186 37.1076 33.866 35.4958 30.9021 35.4958C27.9382 35.4958 26.5003 37.1076 23.4484 37.1076C20.3965 37.1076 18.9439 35.4958 15.98 35.4958C13.0161 35.4958 11.5782 37.1076 8.51159 37.1076C5.445 37.1076 4.02175 35.4958 1.05786 35.4958C-1.90602 35.4958 -3.38796 37.1076 -6.43988 37.1076C-9.4918 37.1076 -10.8417 35.4958 -13.8643 35.4958V38.8632C-10.9297 38.8632 -9.3304 40.475 -6.41053 40.475C-3.49067 40.475 -1.84733 38.8632 1.05786 38.8632C3.96306 38.8632 5.59172 40.475 8.51159 40.475C11.4315 40.475 13.0895 38.8632 15.98 38.8632C18.8705 38.8632 20.5285 40.475 23.4484 40.475C26.3682 40.475 28.0116 38.8632 30.9021 38.8632C33.7926 38.8632 35.4506 40.475 38.3705 40.475C41.2904 40.475 42.9337 38.8632 45.8242 38.8632C48.7147 38.8632 50.3728 40.475 53.2926 40.475C56.2125 40.475 57.8558 38.8632 60.761 38.8632C63.6662 38.8632 65.2949 40.475 68.2148 40.475V37.1076Z" stroke="black" stroke-width="0.5" stroke-miterlimit="3.86"/>
<path d="M68.2148 43.871C65.2802 43.871 63.7249 42.2592 60.761 42.2592C57.7971 42.2592 56.3152 43.871 53.2926 43.871C50.2701 43.871 48.7881 42.2592 45.8242 42.2592C42.8603 42.2592 41.3784 43.871 38.3705 43.871C35.3626 43.871 33.866 42.2592 30.9021 42.2592C27.9382 42.2592 26.4563 43.871 23.4484 43.871C20.4405 43.871 18.9439 42.2592 15.98 42.2592C13.0161 42.2592 11.5342 43.871 8.51159 43.871C5.48902 43.871 4.02175 42.2305 1.05786 42.2305C-1.90602 42.2305 -3.38796 43.871 -6.43988 43.871C-9.4918 43.871 -10.8417 42.2305 -13.8643 42.2305V45.5978C-10.8417 45.5978 -9.37442 47.2096 -6.43988 47.2096C-3.50534 47.2096 -1.84733 45.5978 1.05786 45.5978C3.96306 45.5978 5.59172 47.2096 8.51159 47.2096C11.4315 47.2096 13.0895 45.5978 15.98 45.5978C18.8705 45.5978 20.5285 47.2096 23.4484 47.2096C26.3682 47.2096 28.0116 45.5978 30.9021 45.5978C33.7926 45.5978 35.4506 47.2096 38.3705 47.2096C41.2904 47.2096 42.9337 45.5978 45.8242 45.5978C48.7147 45.5978 50.3728 47.2096 53.2926 47.2096C56.2125 47.2096 57.8558 45.5978 60.761 45.5978C63.6662 45.5978 65.2949 47.2096 68.2148 47.2096V43.871Z" fill="white"/>
<path d="M68.2148 43.871C65.2802 43.871 63.7249 42.2592 60.761 42.2592C57.7971 42.2592 56.3152 43.871 53.2926 43.871C50.2701 43.871 48.7881 42.2592 45.8242 42.2592C42.8603 42.2592 41.3784 43.871 38.3705 43.871C35.3626 43.871 33.866 42.2592 30.9021 42.2592C27.9382 42.2592 26.4563 43.871 23.4484 43.871C20.4405 43.871 18.9439 42.2592 15.98 42.2592C13.0161 42.2592 11.5342 43.871 8.51159 43.871C5.48901 43.871 4.02175 42.2305 1.05786 42.2305C-1.90602 42.2305 -3.38796 43.871 -6.43988 43.871C-9.4918 43.871 -10.8417 42.2305 -13.8643 42.2305V45.5978C-10.8417 45.5978 -9.37442 47.2096 -6.43988 47.2096C-3.50534 47.2096 -1.84733 45.5978 1.05786 45.5978C3.96306 45.5978 5.59172 47.2096 8.51159 47.2096C11.4315 47.2096 13.0895 45.5978 15.98 45.5978C18.8705 45.5978 20.5285 47.2096 23.4484 47.2096C26.3682 47.2096 28.0116 45.5978 30.9021 45.5978C33.7926 45.5978 35.4506 47.2096 38.3705 47.2096C41.2904 47.2096 42.9337 45.5978 45.8242 45.5978C48.7147 45.5978 50.3728 47.2096 53.2926 47.2096C56.2125 47.2096 57.8558 45.5978 60.761 45.5978C63.6662 45.5978 65.2949 47.2096 68.2148 47.2096V43.871Z" stroke="black" stroke-width="0.5" stroke-miterlimit="3.86"/>
<path d="M45.7653 1.41895H8.02717C4.49405 1.41895 1.62988 4.22803 1.62988 7.69321V44.7056C1.62988 48.1708 4.49405 50.9799 8.02717 50.9799H45.7653C49.2984 50.9799 52.1626 48.1708 52.1626 44.7056V7.69321C52.1626 4.22803 49.2984 1.41895 45.7653 1.41895Z" stroke="black" stroke-miterlimit="3.86"/>
</g>
<defs>
<clipPath id="clip0">
<rect width="52" height="51" fill="white" transform="translate(0.896484 0.699463)"/>
</clipPath>
</defs>
</svg>
