<svg width="53" height="53" viewBox="0 0 53 53" fill="none" xmlns="http://www.w3.org/2000/svg">
<g clip-path="url(#clip0)">
<path d="M26.8962 7.04892L7.24561 26.6995L26.9065 46.3604L46.5571 26.7098L26.8962 7.04892Z" fill="white"/>
<path d="M26.8962 7.04892L7.24561 26.6995L26.9065 46.3604L46.5571 26.7098L26.8962 7.04892Z" stroke="black" stroke-linecap="round" stroke-linejoin="round"/>
<path d="M15.701 -19.6077C15.701 -16.6731 14.0576 -15.1032 14.0576 -12.1393C14.0576 -9.17539 15.701 -7.73746 15.701 -4.68554C15.701 -1.63363 14.1016 -0.18103 14.1016 2.78285C14.1016 5.74673 15.745 7.18466 15.745 10.2366C15.745 13.2885 14.1016 14.7411 14.1016 17.705C14.1016 20.6689 15.745 22.1068 15.745 25.1734C15.745 28.24 14.1016 29.6632 14.1016 32.6271C14.1016 35.591 15.745 37.0289 15.745 40.0955C15.745 43.1621 14.1016 44.5853 14.1016 47.5492C14.1016 50.5131 15.745 51.951 15.745 55.0176C15.745 58.0842 14.1016 59.5221 14.1016 62.486H17.535C17.535 59.5515 19.1784 57.9375 19.1784 55.0176C19.1784 52.0977 17.535 50.4544 17.535 47.5492C17.535 44.644 19.1784 43.0154 19.1784 40.0955C19.1784 37.1756 17.535 35.5323 17.535 32.6271C17.535 29.7219 19.1784 28.0932 19.1784 25.1734C19.1784 22.2535 17.535 20.5955 17.535 17.705C17.535 14.8145 19.1784 13.1564 19.1784 10.2366C19.1784 7.31671 17.535 5.67337 17.535 2.78285C17.535 -0.107666 19.1784 -1.76568 19.1784 -4.68554C19.1784 -7.60541 17.535 -9.24875 17.535 -12.1393C17.535 -15.0298 19.1784 -16.6878 19.1784 -19.6077H15.701Z" fill="white"/>
<path d="M15.701 -19.6077C15.701 -16.6731 14.0576 -15.1032 14.0576 -12.1393C14.0576 -9.17539 15.701 -7.73746 15.701 -4.68554C15.701 -1.63363 14.1016 -0.18103 14.1016 2.78285C14.1016 5.74674 15.745 7.18466 15.745 10.2366C15.745 13.2885 14.1016 14.7411 14.1016 17.705C14.1016 20.6689 15.745 22.1068 15.745 25.1734C15.745 28.24 14.1016 29.6632 14.1016 32.6271C14.1016 35.591 15.745 37.0289 15.745 40.0955C15.745 43.1621 14.1016 44.5853 14.1016 47.5492C14.1016 50.5131 15.745 51.951 15.745 55.0176C15.745 58.0842 14.1016 59.5221 14.1016 62.486H17.535C17.535 59.5515 19.1784 57.9375 19.1784 55.0176C19.1784 52.0978 17.535 50.4544 17.535 47.5492C17.535 44.644 19.1784 43.0154 19.1784 40.0955C19.1784 37.1756 17.535 35.5323 17.535 32.6271C17.535 29.7219 19.1784 28.0932 19.1784 25.1734C19.1784 22.2535 17.535 20.5955 17.535 17.705C17.535 14.8145 19.1784 13.1564 19.1784 10.2366C19.1784 7.31671 17.535 5.67337 17.535 2.78285C17.535 -0.107666 19.1784 -1.76568 19.1784 -4.68554C19.1784 -7.60541 17.535 -9.24875 17.535 -12.1393C17.535 -15.0298 19.1784 -16.6878 19.1784 -19.6077H15.701Z" stroke="black" stroke-width="0.5" stroke-miterlimit="3.86"/>
<path d="M22.5681 -19.6077C22.5681 -16.6731 20.9248 -15.1032 20.9248 -12.1393C20.9248 -9.17539 22.5681 -7.73746 22.5681 -4.68554C22.5681 -1.63363 20.9248 -0.18103 20.9248 2.78285C20.9248 5.74673 22.5681 7.18466 22.5681 10.2366C22.5681 13.2885 20.9248 14.7411 20.9248 17.705C20.9248 20.6689 22.5681 22.1068 22.5681 25.1734C22.5681 28.24 20.9248 29.6632 20.9248 32.6271C20.9248 35.591 22.5681 37.0289 22.5681 40.0955C22.5681 43.1621 20.9248 44.5853 20.9248 47.5492C20.9248 50.5131 22.5681 51.951 22.5681 55.0176C22.5681 58.0842 20.9248 59.5221 20.9248 62.486H24.3729C24.3729 59.5515 26.0162 57.9375 26.0162 55.0176C26.0162 52.0977 24.3729 50.4544 24.3729 47.5492C24.3729 44.644 26.0162 43.0154 26.0162 40.0955C26.0162 37.1756 24.3729 35.5323 24.3729 32.6271C24.3729 29.7219 26.0162 28.0932 26.0162 25.1734C26.0162 22.2535 24.3729 20.5955 24.3729 17.705C24.3729 14.8145 26.0162 13.1564 26.0162 10.2366C26.0162 7.31671 24.3729 5.67337 24.3729 2.78285C24.3729 -0.107666 26.0162 -1.76568 26.0162 -4.68554C26.0162 -7.60541 24.3729 -9.24875 24.3729 -12.1393C24.3729 -15.0298 26.0309 -16.6878 26.0309 -19.6077H22.5681Z" fill="white"/>
<path d="M22.5681 -19.6077C22.5681 -16.6731 20.9248 -15.1032 20.9248 -12.1393C20.9248 -9.17539 22.5681 -7.73746 22.5681 -4.68554C22.5681 -1.63363 20.9248 -0.18103 20.9248 2.78285C20.9248 5.74674 22.5681 7.18466 22.5681 10.2366C22.5681 13.2885 20.9248 14.7411 20.9248 17.705C20.9248 20.6689 22.5681 22.1068 22.5681 25.1734C22.5681 28.24 20.9248 29.6632 20.9248 32.6271C20.9248 35.591 22.5681 37.0289 22.5681 40.0955C22.5681 43.1621 20.9248 44.5853 20.9248 47.5492C20.9248 50.5131 22.5681 51.951 22.5681 55.0176C22.5681 58.0842 20.9248 59.5221 20.9248 62.486H24.3729C24.3729 59.5515 26.0162 57.9375 26.0162 55.0176C26.0162 52.0978 24.3729 50.4544 24.3729 47.5492C24.3729 44.644 26.0162 43.0154 26.0162 40.0955C26.0162 37.1756 24.3729 35.5323 24.3729 32.6271C24.3729 29.7219 26.0162 28.0932 26.0162 25.1734C26.0162 22.2535 24.3729 20.5955 24.3729 17.705C24.3729 14.8145 26.0162 13.1564 26.0162 10.2366C26.0162 7.31671 24.3729 5.67337 24.3729 2.78285C24.3729 -0.107666 26.0162 -1.76568 26.0162 -4.68554C26.0162 -7.60541 24.3729 -9.24875 24.3729 -12.1393C24.3729 -15.0298 26.0309 -16.6878 26.0309 -19.6077H22.5681Z" stroke="black" stroke-width="0.5" stroke-miterlimit="3.86"/>
<path d="M29.4348 -19.6077C29.4348 -16.6731 27.7915 -15.1032 27.7915 -12.1393C27.7915 -9.17539 29.4348 -7.73746 29.4348 -4.68554C29.4348 -1.63363 27.7915 -0.18103 27.7915 2.78285C27.7915 5.74673 29.4348 7.18466 29.4348 10.2366C29.4348 13.2885 27.7915 14.7411 27.7915 17.705C27.7915 20.6689 29.4348 22.1068 29.4348 25.1734C29.4348 28.24 27.7915 29.6632 27.7915 32.6271C27.7915 35.591 29.4348 37.0289 29.4348 40.0955C29.4348 43.1621 27.7915 44.5853 27.7915 47.5492C27.7915 50.5131 29.4348 51.951 29.4348 55.0176C29.4348 58.0842 27.7915 59.5221 27.7915 62.486H31.2249C31.2249 59.5515 32.8683 57.9375 32.8683 55.0176C32.8683 52.0977 31.2249 50.4544 31.2249 47.5492C31.2249 44.644 32.8683 43.0154 32.8683 40.0955C32.8683 37.1756 31.2249 35.5323 31.2249 32.6271C31.2249 29.7219 32.8683 28.0932 32.8683 25.1734C32.8683 22.2535 31.2249 20.5955 31.2249 17.705C31.2249 14.8145 32.8683 13.1564 32.8683 10.2366C32.8683 7.31671 31.2249 5.67337 31.2249 2.78285C31.2249 -0.107666 32.8683 -1.76568 32.8683 -4.68554C32.8683 -7.60541 31.2249 -9.24875 31.2249 -12.1393C31.2249 -15.0298 32.8683 -16.6878 32.8683 -19.6077H29.4348Z" fill="white"/>
<path d="M29.4348 -19.6077C29.4348 -16.6731 27.7915 -15.1032 27.7915 -12.1393C27.7915 -9.17539 29.4348 -7.73746 29.4348 -4.68554C29.4348 -1.63363 27.7915 -0.18103 27.7915 2.78285C27.7915 5.74674 29.4348 7.18466 29.4348 10.2366C29.4348 13.2885 27.7915 14.7411 27.7915 17.705C27.7915 20.6689 29.4348 22.1068 29.4348 25.1734C29.4348 28.24 27.7915 29.6632 27.7915 32.6271C27.7915 35.591 29.4348 37.0289 29.4348 40.0955C29.4348 43.1621 27.7915 44.5853 27.7915 47.5492C27.7915 50.5131 29.4348 51.951 29.4348 55.0176C29.4348 58.0842 27.7915 59.5221 27.7915 62.486H31.2249C31.2249 59.5515 32.8683 57.9375 32.8683 55.0176C32.8683 52.0978 31.2249 50.4544 31.2249 47.5492C31.2249 44.644 32.8683 43.0154 32.8683 40.0955C32.8683 37.1756 31.2249 35.5323 31.2249 32.6271C31.2249 29.7219 32.8683 28.0932 32.8683 25.1734C32.8683 22.2535 31.2249 20.5955 31.2249 17.705C31.2249 14.8145 32.8683 13.1564 32.8683 10.2366C32.8683 7.31671 31.2249 5.67337 31.2249 2.78285C31.2249 -0.107666 32.8683 -1.76568 32.8683 -4.68554C32.8683 -7.60541 31.2249 -9.24875 31.2249 -12.1393C31.2249 -15.0298 32.8683 -16.6878 32.8683 -19.6077H29.4348Z" stroke="black" stroke-width="0.5" stroke-miterlimit="3.86"/>
<path d="M36.3016 -19.6077C36.3016 -16.6731 34.6582 -15.1032 34.6582 -12.1393C34.6582 -9.17539 36.3016 -7.73746 36.3016 -4.68554C36.3016 -1.63363 34.6436 -0.18103 34.6436 2.78285C34.6436 5.74673 36.2869 7.18466 36.2869 10.2366C36.2869 13.2885 34.6436 14.7411 34.6436 17.705C34.6436 20.6689 36.2869 22.1068 36.2869 25.1734C36.2869 28.24 34.6436 29.6632 34.6436 32.6271C34.6436 35.591 36.2869 37.0289 36.2869 40.0955C36.2869 43.1621 34.6436 44.5853 34.6436 47.5492C34.6436 50.5131 36.2869 51.951 36.2869 55.0176C36.2869 58.0842 34.6436 59.5221 34.6436 62.486H38.077C38.077 59.5515 39.7203 57.9375 39.7203 55.0176C39.7203 52.0977 38.077 50.4544 38.077 47.5492C38.077 44.644 39.7203 43.0154 39.7203 40.0955C39.7203 37.1756 38.077 35.5323 38.077 32.6271C38.077 29.7219 39.7203 28.0932 39.7203 25.1734C39.7203 22.2535 38.077 20.5955 38.077 17.705C38.077 14.8145 39.7203 13.1564 39.7203 10.2366C39.7203 7.31671 38.077 5.67337 38.077 2.78285C38.077 -0.107666 39.7203 -1.76568 39.7203 -4.68554C39.7203 -7.60541 38.077 -9.24875 38.077 -12.1393C38.077 -15.0298 39.7203 -16.6878 39.7203 -19.6077H36.3016Z" fill="white"/>
<path d="M36.3016 -19.6077C36.3016 -16.6731 34.6582 -15.1032 34.6582 -12.1393C34.6582 -9.17539 36.3016 -7.73746 36.3016 -4.68554C36.3016 -1.63363 34.6436 -0.18103 34.6436 2.78285C34.6436 5.74674 36.2869 7.18466 36.2869 10.2366C36.2869 13.2885 34.6436 14.7411 34.6436 17.705C34.6436 20.6689 36.2869 22.1068 36.2869 25.1734C36.2869 28.24 34.6436 29.6632 34.6436 32.6271C34.6436 35.591 36.2869 37.0289 36.2869 40.0955C36.2869 43.1621 34.6436 44.5853 34.6436 47.5492C34.6436 50.5131 36.2869 51.951 36.2869 55.0176C36.2869 58.0842 34.6436 59.5221 34.6436 62.486H38.077C38.077 59.5515 39.7203 57.9375 39.7203 55.0176C39.7203 52.0978 38.077 50.4544 38.077 47.5492C38.077 44.644 39.7203 43.0154 39.7203 40.0955C39.7203 37.1756 38.077 35.5323 38.077 32.6271C38.077 29.7219 39.7203 28.0932 39.7203 25.1734C39.7203 22.2535 38.077 20.5955 38.077 17.705C38.077 14.8145 39.7203 13.1564 39.7203 10.2366C39.7203 7.31671 38.077 5.67337 38.077 2.78285C38.077 -0.107666 39.7203 -1.76568 39.7203 -4.68554C39.7203 -7.60541 38.077 -9.24875 38.077 -12.1393C38.077 -15.0298 39.7203 -16.6878 39.7203 -19.6077H36.3016Z" stroke="black" stroke-width="0.5" stroke-miterlimit="3.86"/>
<path d="M45.7653 1.43311H8.02717C4.49405 1.43311 1.62988 4.29727 1.62988 7.8304V45.5685C1.62988 49.1017 4.49405 51.9658 8.02717 51.9658H45.7653C49.2984 51.9658 52.1626 49.1017 52.1626 45.5685V7.8304C52.1626 4.29727 49.2984 1.43311 45.7653 1.43311Z" stroke="black" stroke-miterlimit="3.86"/>
</g>
<defs>
<clipPath id="clip0">
<rect width="52" height="52" fill="white" transform="translate(0.896484 0.699463)"/>
</clipPath>
</defs>
</svg>
