<svg width="53" height="52" viewBox="0 0 53 52" fill="none" xmlns="http://www.w3.org/2000/svg">
<g clip-path="url(#clip0)">
<path d="M50.3288 28.2716L43.2565 27.8543C43.0867 27.8625 42.9169 27.8358 42.7583 27.7758C42.5996 27.7158 42.4555 27.6239 42.3352 27.5059C42.215 27.388 42.1212 27.2466 42.06 27.091C41.9989 26.9354 41.9716 26.7689 41.98 26.6023V25.6957C41.978 25.5364 42.0086 25.3784 42.0698 25.2309C42.1311 25.0833 42.2218 24.9493 42.3366 24.8367C42.4515 24.724 42.5881 24.6351 42.7385 24.575C42.889 24.5149 43.0501 24.485 43.2125 24.4869L50.2847 24.084L50.3288 28.2716Z" fill="white"/>
<path d="M50.3288 28.2716L43.2565 27.8543C43.0867 27.8625 42.9169 27.8358 42.7583 27.7758C42.5996 27.7158 42.4555 27.6239 42.3352 27.5059C42.215 27.388 42.1212 27.2466 42.06 27.091C41.9989 26.9354 41.9716 26.7689 41.98 26.6023V25.6957C41.978 25.5364 42.0086 25.3784 42.0698 25.2309C42.1311 25.0833 42.2218 24.9493 42.3366 24.8367C42.4515 24.724 42.5881 24.6351 42.7385 24.575C42.889 24.5149 43.0501 24.485 43.2125 24.4869L50.2847 24.084L50.3288 28.2716Z" stroke="black" stroke-linecap="square" stroke-linejoin="round"/>
<path d="M51.4878 24.1416H47.6436V28.2717H51.4878V24.1416Z" fill="black"/>
<path d="M52.1777 24.1416H47.7466V28.2717H52.1777V24.1416Z" fill="white"/>
<path d="M52.1777 24.1416H47.7466V28.2717H52.1777V24.1416Z" stroke="black" stroke-linecap="round" stroke-linejoin="round"/>
<path d="M22.7732 15.2771H16.1265V37.1219H22.7732V15.2771Z" fill="white"/>
<path d="M22.7732 15.2771H16.1265V37.1219H22.7732V15.2771Z" stroke="black" stroke-linecap="square" stroke-linejoin="round"/>
<path d="M19.6923 26.4441V27.7249H19.2081V26.4441H17.9902V25.9692H19.2081V24.6741H19.6923V25.9692H20.9101V26.4441H19.6923Z" fill="black"/>
<path d="M19.6923 19.7237V21.0188H19.2081V19.7237H17.9902V19.2488H19.2081V17.968H19.6923V19.2488H20.9101V19.7237H19.6923Z" fill="black"/>
<path d="M19.6923 33.1502V34.4453H19.2081V33.1502H17.9902V32.6753H19.2081V31.3801H19.6923V32.6753H20.9101V33.1502H19.6923Z" fill="black"/>
<path d="M37.6371 23.1055L25.8989 12.989" stroke="black" stroke-width="0.38" stroke-miterlimit="3.86" stroke-linecap="round" stroke-dasharray="1.93 1.93"/>
<path d="M15.5693 10.8735C14.397 11.6267 13.478 12.7032 12.9282 13.9675" stroke="black" stroke-width="0.38" stroke-miterlimit="3.86" stroke-linecap="round" stroke-dasharray="1.89 1.89"/>
<path d="M40.8354 25.8542L39.7643 24.9332M14.4833 21.5371C14.9236 21.9607 15.4165 22.3281 15.9505 22.6307L14.4833 21.5371ZM12.5318 15.2772C12.4429 15.7179 12.3986 16.1662 12.3998 16.6155C12.3935 17.2228 12.4725 17.8281 12.6345 18.4143L12.5318 15.2772ZM20.6018 9.78C20.2232 9.72195 19.8405 9.69308 19.4573 9.69366C18.9943 9.69188 18.5323 9.73527 18.0781 9.82317L20.6018 9.78ZM24.8422 12.0681L23.7711 11.1471C23.4631 10.9193 23.1396 10.7126 22.8027 10.5283L24.8422 12.0681Z" stroke="black" stroke-width="0.38" stroke-miterlimit="3.86" stroke-linecap="round"/>
<path d="M38.385 21.7961L28.7891 11.2478" stroke="black" stroke-width="0.38" stroke-miterlimit="3.86" stroke-linecap="round" stroke-dasharray="1.78 1.78"/>
<path d="M15.3784 6.98828C13.8747 7.60383 12.5348 8.54906 11.4615 9.75142C10.3881 10.9538 9.60991 12.3813 9.18652 13.9245" stroke="black" stroke-width="0.38" stroke-miterlimit="3.86" stroke-linecap="round" stroke-dasharray="1.9 1.9"/>
<path d="M10.0083 21.3931C10.7657 22.8907 11.8837 24.1848 13.2656 25.1634" stroke="black" stroke-width="0.38" stroke-miterlimit="3.86" stroke-linecap="round" stroke-dasharray="2.29 2.29"/>
<path d="M41.0117 24.6741L40.1313 23.7099M14.7035 25.9548C15.2079 26.2007 15.7333 26.4029 16.2735 26.5592L14.7035 25.9548ZM8.93716 15.2627C8.87815 15.7113 8.84875 16.1631 8.84912 16.6154C8.8512 17.169 8.89042 17.7218 8.96651 18.2703L8.93716 15.2627ZM21.5557 6.45569C20.8661 6.31056 20.1627 6.2382 19.4575 6.23983C18.9664 6.23321 18.4756 6.2669 17.9902 6.34056L21.5557 6.45569ZM27.8503 10.3411L27.0433 9.33379C26.5529 8.83946 26.0121 8.39582 25.4293 8.00986L27.8503 10.3411Z" stroke="black" stroke-width="0.38" stroke-miterlimit="3.86" stroke-linecap="round"/>
<path d="M37.6371 30.1711L25.8989 40.2877" stroke="black" stroke-width="0.38" stroke-miterlimit="3.86" stroke-linecap="round" stroke-dasharray="1.93 1.93"/>
<path d="M15.5693 42.4321C14.389 41.6688 13.4691 40.576 12.9282 39.2949" stroke="black" stroke-width="0.38" stroke-miterlimit="3.86" stroke-linecap="round" stroke-dasharray="1.89 1.89"/>
<path d="M40.8355 27.4226L39.7644 28.3436M14.4834 31.7398C14.9195 31.3115 15.4131 30.9436 15.9506 30.6461L14.4834 31.7398ZM12.5319 37.9996C12.4448 37.5635 12.4006 37.1201 12.3998 36.6757C12.3929 36.0589 12.4719 35.444 12.6346 34.8481L12.5319 37.9996ZM20.6019 43.4824C20.2233 43.5405 19.8406 43.5694 19.4574 43.5688C18.9944 43.5705 18.5324 43.5272 18.0782 43.4393L20.6019 43.4824ZM24.8423 41.2087L23.7712 42.1153C23.467 42.3526 23.1431 42.5644 22.8028 42.7485L24.8423 41.2087Z" stroke="black" stroke-width="0.38" stroke-miterlimit="3.86" stroke-linecap="round"/>
<path d="M38.385 31.4807L28.7891 42.0146" stroke="black" stroke-width="0.38" stroke-miterlimit="3.86" stroke-linecap="round" stroke-dasharray="1.78 1.78"/>
<path d="M15.3784 46.2888C13.8747 45.6732 12.5348 44.728 11.4615 43.5256C10.3881 42.3233 9.60991 40.8957 9.18652 39.3525" stroke="black" stroke-width="0.38" stroke-miterlimit="3.86" stroke-linecap="round" stroke-dasharray="1.9 1.9"/>
<path d="M10.0083 31.8837C10.7788 30.4104 11.8952 29.1378 13.2656 28.1709" stroke="black" stroke-width="0.38" stroke-miterlimit="3.86" stroke-linecap="round" stroke-dasharray="2.29 2.29"/>
<path d="M41.0117 28.6027L40.1313 29.5668M14.7035 27.3219C15.2104 27.0775 15.7352 26.8707 16.2735 26.7031L14.7035 27.3219ZM8.93718 38.0141C8.87452 37.5705 8.84022 37.1235 8.83447 36.6758C8.83656 36.127 8.87577 35.5789 8.95185 35.0352L8.93718 38.0141ZM21.5557 46.893C20.8656 47.0333 20.1622 47.1009 19.4575 47.0945C18.967 47.098 18.4768 47.0691 17.9902 47.0081L21.5557 46.893ZM27.8503 43.0076L26.9699 43.9717C26.4795 44.4661 25.9387 44.9097 25.3559 45.2957L27.8503 43.0076Z" stroke="black" stroke-width="0.38" stroke-miterlimit="3.86" stroke-linecap="round"/>
<path d="M38.7669 25.854L25.312 17.9392" stroke="black" stroke-width="0.38" stroke-miterlimit="3.86" stroke-linecap="round" stroke-dasharray="2.14 2.14"/>
<path d="M24.8862 35.4956L38.3411 27.5808" stroke="black" stroke-width="0.38" stroke-miterlimit="3.86" stroke-linecap="round" stroke-dasharray="2.14 2.14"/>
<path d="M24.8862 26.5737H38.3411" stroke="black" stroke-width="0.38" stroke-miterlimit="3.86" stroke-linecap="round" stroke-dasharray="1.83 1.83"/>
<path d="M45.7653 1.41895H8.02717C4.49405 1.41895 1.62988 4.22803 1.62988 7.69321V44.7056C1.62988 48.1708 4.49405 50.9799 8.02717 50.9799H45.7653C49.2984 50.9799 52.1626 48.1708 52.1626 44.7056V7.69321C52.1626 4.22803 49.2984 1.41895 45.7653 1.41895Z" stroke="black" stroke-miterlimit="3.86"/>
<path d="M5.13672 26.1995C5.13672 25.7014 5.28731 25.2145 5.56946 24.8004C5.8516 24.3862 6.25263 24.0635 6.72181 23.8729C7.191 23.6822 7.70729 23.6324 8.20538 23.7295C8.70346 23.8267 9.16099 24.0666 9.52009 24.4188C9.87919 24.771 10.1237 25.2197 10.2228 25.7082C10.3219 26.1967 10.271 26.7031 10.0767 27.1632C9.88236 27.6234 9.55325 28.0167 9.13099 28.2934C8.70873 28.5701 8.21229 28.7178 7.70444 28.7178C7.02344 28.7178 6.37033 28.4525 5.88879 27.9802C5.40725 27.5079 5.13672 26.8674 5.13672 26.1995Z" fill="white"/>
<path d="M5.13672 26.1995C5.13672 25.7014 5.28731 25.2145 5.56946 24.8004C5.8516 24.3862 6.25263 24.0635 6.72181 23.8729C7.191 23.6822 7.70729 23.6324 8.20538 23.7295C8.70346 23.8267 9.16099 24.0666 9.52009 24.4188C9.87919 24.771 10.1237 25.2197 10.2228 25.7082C10.3219 26.1967 10.271 26.7031 10.0767 27.1632C9.88236 27.6234 9.55325 28.0167 9.13099 28.2934C8.70873 28.5701 8.21229 28.7178 7.70444 28.7178C7.02344 28.7178 6.37033 28.4525 5.88879 27.9802C5.40725 27.5079 5.13672 26.8674 5.13672 26.1995V26.1995Z" stroke="black" stroke-width="0.2" stroke-miterlimit="3.86"/>
<path d="M8.74661 25.9404H6.66309V26.4729H8.74661V25.9404Z" fill="black"/>
<path d="M5.13672 14.615C5.13672 14.1169 5.28731 13.63 5.56946 13.2159C5.8516 12.8018 6.25263 12.479 6.72181 12.2884C7.191 12.0978 7.70729 12.0479 8.20538 12.1451C8.70346 12.2422 9.16099 12.4821 9.52009 12.8343C9.87919 13.1865 10.1237 13.6352 10.2228 14.1237C10.3219 14.6122 10.271 15.1186 10.0767 15.5787C9.88236 16.0389 9.55325 16.4322 9.13099 16.7089C8.70873 16.9857 8.21229 17.1334 7.70444 17.1334C7.02344 17.1334 6.37033 16.868 5.88879 16.3958C5.40725 15.9235 5.13672 15.2829 5.13672 14.615Z" fill="white"/>
<path d="M5.13672 14.615C5.13672 14.1169 5.28731 13.63 5.56946 13.2159C5.8516 12.8018 6.25263 12.479 6.72181 12.2884C7.191 12.0978 7.70729 12.0479 8.20538 12.1451C8.70346 12.2422 9.16099 12.4821 9.52009 12.8343C9.87919 13.1865 10.1237 13.6352 10.2228 14.1237C10.3219 14.6122 10.271 15.1186 10.0767 15.5787C9.88236 16.0389 9.55325 16.4322 9.13099 16.7089C8.70873 16.9857 8.21229 17.1334 7.70444 17.1334C7.02344 17.1334 6.37033 16.868 5.88879 16.3958C5.40725 15.9235 5.13672 15.2829 5.13672 14.615V14.615Z" stroke="black" stroke-width="0.2" stroke-miterlimit="3.86"/>
<path d="M8.74661 14.3416H6.66309V14.874H8.74661V14.3416Z" fill="black"/>
<path d="M5.13672 37.7981C5.13672 37.3 5.28731 36.8132 5.56946 36.399C5.8516 35.9849 6.25263 35.6621 6.72181 35.4715C7.191 35.2809 7.70729 35.231 8.20538 35.3282C8.70346 35.4253 9.16099 35.6652 9.52009 36.0174C9.87919 36.3696 10.1237 36.8183 10.2228 37.3068C10.3219 37.7953 10.271 38.3017 10.0767 38.7619C9.88236 39.222 9.55325 39.6153 9.13099 39.8921C8.70873 40.1688 8.21229 40.3165 7.70444 40.3165C7.02344 40.3165 6.37033 40.0511 5.88879 39.5789C5.40725 39.1066 5.13672 38.466 5.13672 37.7981Z" fill="white"/>
<path d="M5.13672 37.7981C5.13672 37.3 5.28731 36.8132 5.56946 36.399C5.8516 35.9849 6.25263 35.6621 6.72181 35.4715C7.191 35.2809 7.70729 35.231 8.20538 35.3282C8.70346 35.4253 9.16099 35.6652 9.52009 36.0174C9.87919 36.3696 10.1237 36.8183 10.2228 37.3068C10.3219 37.7953 10.271 38.3017 10.0767 38.7619C9.88236 39.222 9.55325 39.6153 9.13099 39.8921C8.70873 40.1688 8.21229 40.3165 7.70444 40.3165C7.02344 40.3165 6.37033 40.0511 5.88879 39.5789C5.40725 39.1066 5.13672 38.466 5.13672 37.7981V37.7981Z" stroke="black" stroke-width="0.2" stroke-miterlimit="3.86"/>
<path d="M8.74661 37.5249H6.66309V38.0574H8.74661V37.5249Z" fill="black"/>
<path d="M27.146 26.1995C27.146 25.7014 27.2966 25.2145 27.5787 24.8004C27.8609 24.3862 28.2619 24.0635 28.7311 23.8729C29.2003 23.6822 29.7166 23.6324 30.2147 23.7295C30.7127 23.8267 31.1703 24.0666 31.5294 24.4188C31.8885 24.771 32.133 25.2197 32.2321 25.7082C32.3312 26.1967 32.2803 26.7031 32.086 27.1632C31.8916 27.6234 31.5625 28.0167 31.1403 28.2934C30.718 28.5701 30.2216 28.7178 29.7137 28.7178C29.0327 28.7178 28.3796 28.4525 27.8981 27.9802C27.4165 27.5079 27.146 26.8674 27.146 26.1995Z" fill="white"/>
<path d="M27.146 26.1995C27.146 25.7014 27.2966 25.2145 27.5787 24.8004C27.8609 24.3862 28.2619 24.0635 28.7311 23.8729C29.2003 23.6822 29.7166 23.6324 30.2147 23.7295C30.7127 23.8267 31.1703 24.0666 31.5294 24.4188C31.8885 24.771 32.133 25.2197 32.2321 25.7082C32.3312 26.1967 32.2803 26.7031 32.086 27.1632C31.8916 27.6234 31.5625 28.0167 31.1403 28.2934C30.718 28.5701 30.2216 28.7178 29.7137 28.7178C29.0327 28.7178 28.3796 28.4525 27.8981 27.9802C27.4165 27.5079 27.146 26.8674 27.146 26.1995Z" stroke="black" stroke-width="0.2" stroke-miterlimit="3.86"/>
<path d="M30.7554 25.9404H28.6719V26.4729H30.7554V25.9404Z" fill="black"/>
<path d="M27.146 14.615C27.146 14.1169 27.2966 13.63 27.5787 13.2159C27.8609 12.8018 28.2619 12.479 28.7311 12.2884C29.2003 12.0978 29.7166 12.0479 30.2147 12.1451C30.7127 12.2422 31.1703 12.4821 31.5294 12.8343C31.8885 13.1865 32.133 13.6352 32.2321 14.1237C32.3312 14.6122 32.2803 15.1186 32.086 15.5787C31.8916 16.0389 31.5625 16.4322 31.1403 16.7089C30.718 16.9857 30.2216 17.1334 29.7137 17.1334C29.0327 17.1334 28.3796 16.868 27.8981 16.3958C27.4165 15.9235 27.146 15.2829 27.146 14.615Z" fill="white"/>
<path d="M27.146 14.615C27.146 14.1169 27.2966 13.63 27.5787 13.2159C27.8609 12.8018 28.2619 12.479 28.7311 12.2884C29.2003 12.0978 29.7166 12.0479 30.2147 12.1451C30.7127 12.2422 31.1703 12.4821 31.5294 12.8343C31.8885 13.1865 32.133 13.6352 32.2321 14.1237C32.3312 14.6122 32.2803 15.1186 32.086 15.5787C31.8916 16.0389 31.5625 16.4322 31.1403 16.7089C30.718 16.9857 30.2216 17.1334 29.7137 17.1334C29.0327 17.1334 28.3796 16.868 27.8981 16.3958C27.4165 15.9235 27.146 15.2829 27.146 14.615V14.615Z" stroke="black" stroke-width="0.2" stroke-miterlimit="3.86"/>
<path d="M30.7554 14.3416H28.6719V14.874H30.7554V14.3416Z" fill="black"/>
<path d="M27.146 37.7981C27.146 37.3 27.2966 36.8132 27.5787 36.399C27.8609 35.9849 28.2619 35.6621 28.7311 35.4715C29.2003 35.2809 29.7166 35.231 30.2147 35.3282C30.7127 35.4253 31.1703 35.6652 31.5294 36.0174C31.8885 36.3696 32.133 36.8183 32.2321 37.3068C32.3312 37.7953 32.2803 38.3017 32.086 38.7619C31.8916 39.222 31.5625 39.6153 31.1403 39.8921C30.718 40.1688 30.2216 40.3165 29.7137 40.3165C29.0327 40.3165 28.3796 40.0511 27.8981 39.5789C27.4165 39.1066 27.146 38.466 27.146 37.7981Z" fill="white"/>
<path d="M27.146 37.7981C27.146 37.3 27.2966 36.8132 27.5787 36.399C27.8609 35.9849 28.2619 35.6621 28.7311 35.4715C29.2003 35.2809 29.7166 35.231 30.2147 35.3282C30.7127 35.4253 31.1703 35.6652 31.5294 36.0174C31.8885 36.3696 32.133 36.8183 32.2321 37.3068C32.3312 37.7953 32.2803 38.3017 32.086 38.7619C31.8916 39.222 31.5625 39.6153 31.1403 39.8921C30.718 40.1688 30.2216 40.3165 29.7137 40.3165C29.0327 40.3165 28.3796 40.0511 27.8981 39.5789C27.4165 39.1066 27.146 38.466 27.146 37.7981V37.7981Z" stroke="black" stroke-width="0.2" stroke-miterlimit="3.86"/>
<path d="M30.7554 37.5249H28.6719V38.0574H30.7554V37.5249Z" fill="black"/>
</g>
<defs>
<clipPath id="clip0">
<rect width="52" height="51" fill="white" transform="translate(0.896484 0.699463)"/>
</clipPath>
</defs>
</svg>
