<svg width="53" height="53" viewBox="0 0 53 53" fill="none" xmlns="http://www.w3.org/2000/svg">
<g clip-path="url(#clip0)">
<path d="M-1.0698 60.0211C-1.0698 59.4489 -4.47387 52.7875 -4.47387 51.0854C-2.02529 48.3941 0.978436 46.2664 4.32975 44.8495C10.683 42.1498 19.0024 41.152 24.9449 43.529L37.3433 48.2829C37.3433 48.2829 36.6097 16.3258 36.6097 15.4308C27.2191 10.8823 14.6006 10.6915 4.02162 14.3597C-0.929199 16.3917 -5.69586 18.8462 -10.2256 21.696L-12.3091 2.94435C-12.3091 2.94435 7.4697 -4.89087 9.0837 -4.89087C10.6977 -4.89087 43.7846 -3.15949 43.7846 -3.15949C43.7846 -3.15949 52.8963 -2.01502 53.718 -0.767845C55.6097 3.54064 57.2653 7.94897 58.6774 12.4376C58.6774 12.4376 58.6774 12.6723 58.5893 12.9071H59.367V57.3653H52.0306L43.7553 64.2908L9.42117 64.5256C9.42117 64.5256 -1.0698 60.5933 -1.0698 60.0211Z" fill="#D5D5D5"/>
<path d="M-1.0698 60.0211C-1.0698 59.4489 -4.47387 52.7875 -4.47387 51.0854C-2.02529 48.3941 0.978435 46.2664 4.32975 44.8495C10.683 42.1498 19.0024 41.152 24.9449 43.529L37.3433 48.2829C37.3433 48.2829 36.6097 16.3258 36.6097 15.4308C27.2191 10.8823 14.6006 10.6915 4.02162 14.3597C-0.929199 16.3917 -5.69586 18.8462 -10.2256 21.696L-12.3091 2.94435C-12.3091 2.94435 7.4697 -4.89087 9.0837 -4.89087C10.6977 -4.89087 43.7846 -3.15949 43.7846 -3.15949C43.7846 -3.15949 52.8963 -2.01502 53.718 -0.767844C55.6097 3.54064 57.2653 7.94897 58.6774 12.4376C58.6774 12.4376 58.6774 12.6723 58.5893 12.9071H59.367V57.3653H52.0306L43.7553 64.2908L9.42117 64.5256C9.42117 64.5256 -1.0698 60.5933 -1.0698 60.0211Z" stroke="black" stroke-linecap="round" stroke-linejoin="round"/>
<path d="M38.1061 16.2231C30.1095 12.2321 20 17.8664 16.0971 18.512C15.0858 18.6196 14.1569 19.1192 13.5095 19.9037C12.8622 20.6882 12.548 21.695 12.6344 22.7084C12.7958 25.1294 15.8183 26.6113 14.4978 28.5775C13.1772 30.5436 11.5632 31.3359 11.9594 33.4928C12.1061 34.2998 13.0305 34.3879 13.1479 35.1949C13.368 36.8675 12.4583 38.5842 13.9109 39.4206C14.9673 40.0662 15.921 39.6407 16.8454 40.4477C17.4617 40.9465 18.5621 41.0933 19.1784 41.6068C20.5136 42.7513 23.5802 42.9274 24.4018 41.2693C24.4018 41.2693 33.6456 40.1542 40.0723 38.731C42.7574 39.7874 45.2957 36.9409 45.6039 34.9748C48.3917 31.6734 47.7901 27.389 45.4278 23.7502C43.9605 21.4025 42.1118 22.2829 41.026 20.4928C39.9402 18.7028 41.026 17.9985 38.0034 16.1937" fill="black"/>
<path d="M38.1061 16.2231C30.1095 12.2321 20 17.8664 16.0971 18.512C15.0858 18.6196 14.1569 19.1192 13.5095 19.9037C12.8622 20.6882 12.548 21.695 12.6344 22.7084C12.7958 25.1294 15.8183 26.6113 14.4978 28.5775C13.1772 30.5436 11.5632 31.3359 11.9594 33.4928C12.1061 34.2998 13.0305 34.3879 13.1479 35.1949C13.368 36.8675 12.4583 38.5842 13.9109 39.4206C14.9673 40.0662 15.921 39.6407 16.8454 40.4477C17.4617 40.9465 18.5621 41.0933 19.1784 41.6068C20.5136 42.7513 23.5802 42.9274 24.4018 41.2693C24.4018 41.2693 33.6456 40.1542 40.0723 38.731C42.7574 39.7874 45.2958 36.9409 45.6039 34.9748C48.3917 31.6734 47.7901 27.389 45.4278 23.7502C43.9605 21.4025 42.1118 22.2829 41.026 20.4928C39.9402 18.7028 41.1581 18.0278 38.1061 16.2231Z" stroke="black" stroke-width="1.24" stroke-miterlimit="3.86"/>
<path d="M39.3829 57.2332V40.0515L40.8502 24.7185C40.8851 24.4261 40.8576 24.1297 40.7695 23.8487C40.6815 23.5677 40.5349 23.3086 40.3394 23.0884C40.144 22.8682 39.904 22.692 39.6355 22.5713C39.3669 22.4506 39.0758 22.3881 38.7813 22.3881C38.4869 22.3881 38.1958 22.4506 37.9272 22.5713C37.6587 22.692 37.4187 22.8682 37.2232 23.0884C37.0278 23.3086 36.8812 23.5677 36.7931 23.8487C36.7051 24.1297 36.6776 24.4261 36.7125 24.7185V21.4758C36.7367 21.1885 36.7009 20.8993 36.6076 20.6265C36.5142 20.3537 36.3652 20.1033 36.1701 19.891C35.9749 19.6787 35.7379 19.5093 35.4739 19.3934C35.2098 19.2775 34.9246 19.2176 34.6363 19.2176C34.348 19.2176 34.0628 19.2775 33.7988 19.3934C33.5347 19.5093 33.2977 19.6787 33.1025 19.891C32.9074 20.1033 32.7584 20.3537 32.665 20.6265C32.5717 20.8993 32.5359 21.1885 32.5601 21.4758V19.5684C32.595 19.276 32.5675 18.9796 32.4795 18.6986C32.3914 18.4176 32.2449 18.1585 32.0494 17.9383C31.8539 17.7181 31.614 17.5419 31.3454 17.4212C31.0768 17.3004 30.7857 17.238 30.4913 17.238C30.1968 17.238 29.9057 17.3004 29.6372 17.4212C29.3686 17.5419 29.1287 17.7181 28.9332 17.9383C28.7377 18.1585 28.5911 18.4176 28.5031 18.6986C28.415 18.9796 28.3875 19.276 28.4224 19.5684V28.1519V20.977C28.4573 20.6846 28.4298 20.3882 28.3418 20.1072C28.2537 19.8262 28.1072 19.5671 27.9117 19.3469C27.7162 19.1267 27.4763 18.9504 27.2077 18.8297C26.9391 18.709 26.648 18.6466 26.3536 18.6466C26.0591 18.6466 25.768 18.709 25.4995 18.8297C25.2309 18.9504 24.991 19.1267 24.7955 19.3469C24.6 19.5671 24.4534 19.8262 24.3654 20.1072C24.2773 20.3882 24.2498 20.6846 24.2847 20.977V31.9815L22.8175 27.2129C22.7298 26.9412 22.5895 26.6894 22.4045 26.472C22.2195 26.2545 21.9935 26.0756 21.7394 25.9455C21.4853 25.8154 21.2081 25.7366 20.9235 25.7136C20.639 25.6906 20.3527 25.7239 20.081 25.8116C19.8093 25.8993 19.5576 26.0396 19.3401 26.2246C19.1226 26.4095 18.9438 26.6355 18.8136 26.8896C18.6835 27.1437 18.6047 27.421 18.5818 27.7055C18.5588 27.9901 18.5921 28.2764 18.6798 28.5481L22.2159 40.2862L22.6267 57.1745L39.3829 57.2332Z" fill="white"/>
<path d="M39.3829 57.2332V40.0515L40.8502 24.7185C40.8851 24.4261 40.8576 24.1297 40.7695 23.8487C40.6815 23.5677 40.5349 23.3086 40.3394 23.0884C40.144 22.8682 39.904 22.692 39.6355 22.5713C39.3669 22.4506 39.0758 22.3881 38.7813 22.3881C38.4869 22.3881 38.1958 22.4506 37.9272 22.5713C37.6587 22.692 37.4187 22.8682 37.2232 23.0884C37.0278 23.3086 36.8812 23.5677 36.7931 23.8487C36.7051 24.1297 36.6776 24.4261 36.7125 24.7185V21.4758C36.7367 21.1885 36.7009 20.8993 36.6076 20.6265C36.5142 20.3537 36.3652 20.1033 36.1701 19.891C35.9749 19.6787 35.7379 19.5093 35.4739 19.3934C35.2098 19.2775 34.9246 19.2176 34.6363 19.2176C34.348 19.2176 34.0628 19.2775 33.7988 19.3934C33.5347 19.5093 33.2977 19.6787 33.1025 19.891C32.9074 20.1033 32.7584 20.3537 32.665 20.6265C32.5717 20.8993 32.5359 21.1885 32.5601 21.4758V19.5684C32.595 19.276 32.5675 18.9796 32.4795 18.6986C32.3914 18.4176 32.2449 18.1585 32.0494 17.9383C31.8539 17.7181 31.614 17.5419 31.3454 17.4212C31.0768 17.3004 30.7857 17.238 30.4913 17.238C30.1968 17.238 29.9057 17.3004 29.6372 17.4212C29.3686 17.5419 29.1287 17.7181 28.9332 17.9383C28.7377 18.1585 28.5911 18.4176 28.5031 18.6986C28.415 18.9796 28.3875 19.276 28.4224 19.5684C28.4224 19.5684 28.4224 28.1519 28.4224 28.1519V20.977C28.4573 20.6846 28.4298 20.3882 28.3418 20.1072C28.2537 19.8262 28.1072 19.5671 27.9117 19.3469C27.7162 19.1267 27.4763 18.9504 27.2077 18.8297C26.9391 18.709 26.648 18.6466 26.3536 18.6466C26.0591 18.6466 25.768 18.709 25.4995 18.8297C25.2309 18.9504 24.991 19.1267 24.7955 19.3469C24.6 19.5671 24.4534 19.8262 24.3654 20.1072C24.2773 20.3882 24.2498 20.6846 24.2847 20.977V31.9815L22.8175 27.2129C22.7298 26.9412 22.5895 26.6894 22.4045 26.472C22.2195 26.2545 21.9935 26.0756 21.7394 25.9455C21.4853 25.8154 21.2081 25.7366 20.9235 25.7136C20.639 25.6906 20.3527 25.7239 20.081 25.8116C19.8093 25.8993 19.5576 26.0396 19.3401 26.2246C19.1226 26.4095 18.9438 26.6355 18.8136 26.8896C18.6835 27.1437 18.6047 27.421 18.5818 27.7055C18.5588 27.9901 18.5921 28.2764 18.6798 28.5481L22.2159 40.2862L22.6267 57.1745L39.3829 57.2332Z" stroke="black" stroke-linecap="round" stroke-linejoin="round"/>
<path d="M45.7653 1.43311H8.02717C4.49405 1.43311 1.62988 4.29727 1.62988 7.8304V45.5685C1.62988 49.1017 4.49405 51.9658 8.02717 51.9658H45.7653C49.2984 51.9658 52.1626 49.1017 52.1626 45.5685V7.8304C52.1626 4.29727 49.2984 1.43311 45.7653 1.43311Z" stroke="black" stroke-miterlimit="3.86"/>
</g>
<defs>
<clipPath id="clip0">
<rect width="52" height="52" fill="white" transform="translate(0.896484 0.699463)"/>
</clipPath>
</defs>
</svg>
