<svg width="37" height="37" viewBox="0 0 37 37" fill="none" xmlns="http://www.w3.org/2000/svg">
<g clip-path="url(#clip0)">
<path d="M35.8096 23.7589H33.9219C33.7101 23.7589 33.5368 23.9321 33.5368 24.1439V32.5556H2.85233V24.1439C2.85233 23.9321 2.67907 23.7589 2.46731 23.7589H0.579607C0.367842 23.7589 0.19458 23.9321 0.19458 24.1439V33.6733C0.19458 34.5252 0.882815 35.2134 1.73469 35.2134H34.6545C35.5063 35.2134 36.1946 34.5252 36.1946 33.6733V24.1439C36.1946 23.9321 36.0213 23.7589 35.8096 23.7589Z" fill="#5C87AF"/>
<path d="M17.4133 25.985L17.0595 1.69105C17.0595 1.51436 17.2042 1.3698 17.3811 1.3698L19.6324 1.3698C19.8093 1.3698 19.954 1.51436 19.954 1.69105L20.0905 22.6671L22.7238 20.5759C22.7801 20.5317 22.8525 20.5076 22.9208 20.5076C23.0977 20.5076 23.2424 20.6522 23.2424 20.8289L23.2424 23.7442C23.2424 23.941 23.15 24.1257 22.9972 24.2502L19.4957 27.0009C19.2706 27.1776 18.9892 27.274 18.6997 27.274C17.9882 27.27 17.4133 26.6957 17.4133 25.985Z" fill="#808080"/>
<path d="M19.7969 25.985L19.7969 1.73631C19.7969 1.55962 19.6522 1.41505 19.4753 1.41505L17.2241 1.41505C17.0472 1.41505 16.9024 1.55962 16.9024 1.73631L17.1197 22.6671L14.4864 20.5759C14.4301 20.5317 14.3577 20.5076 14.2894 20.5076C14.1125 20.5076 13.9678 20.6522 13.9678 20.8289L13.9678 23.7442C13.9678 23.941 14.0602 24.1257 14.213 24.2502L17.7145 27.0009C17.9396 27.1776 18.221 27.274 18.5105 27.274C19.222 27.27 19.7969 26.6958 19.7969 25.985Z" fill="#808080"/>
</g>
<defs>
<clipPath id="clip0">
<rect width="36" height="36" fill="white" transform="translate(0.19458 0.272217)"/>
</clipPath>
</defs>
</svg>
