<svg width="73" height="73" viewBox="0 0 73 73" fill="none" xmlns="http://www.w3.org/2000/svg">
<g clip-path="url(#clip0)">
<path d="M62.948 1.65625H10.6952C5.80317 1.65625 1.8374 5.62202 1.8374 10.514V62.7669C1.8374 67.6589 5.80317 71.6246 10.6952 71.6246H62.948C67.84 71.6246 71.8058 67.6589 71.8058 62.7669V10.514C71.8058 5.62202 67.84 1.65625 62.948 1.65625Z" stroke="#3F3F3F" stroke-width="2" stroke-miterlimit="3.86"/>
<path d="M2.36572 60.0449H70.8917" stroke="#3F3F3F" stroke-width="2" stroke-miterlimit="3.86" stroke-linecap="round"/>
<path d="M11.6953 50.8166V29.4531H61.9685V50.8166H11.6953Z" fill="white" stroke="#3F3F3F" stroke-width="2"/>
<path d="M62.9685 28.4531H10.6953V51.8166H62.9685V28.4531Z" stroke="#3F3F3F" stroke-width="2" stroke-linejoin="round"/>
<path d="M25.8306 51.5327V28.8193M48.9096 51.5327V28.8193V51.5327Z" stroke="#3F3F3F" stroke-width="2" stroke-miterlimit="3.86" stroke-linecap="round"/>
<mask id="path-6-inside-1" fill="white">
<path d="M29.2642 32.2115C29.2642 32.0186 29.3214 31.8301 29.4285 31.6697C29.5357 31.5094 29.688 31.3844 29.8661 31.3106C30.0443 31.2367 30.2404 31.2174 30.4296 31.2551C30.6187 31.2927 30.7925 31.3856 30.9289 31.5219C31.0653 31.6583 31.1581 31.8321 31.1958 32.0212C31.2334 32.2104 31.2141 32.4065 31.1403 32.5847C31.0665 32.7629 30.9415 32.9152 30.7811 33.0223C30.6207 33.1295 30.4322 33.1867 30.2393 33.1867C29.9807 33.1867 29.7327 33.0839 29.5498 32.901C29.3669 32.7182 29.2642 32.4701 29.2642 32.2115Z"/>
</mask>
<path d="M29.2642 32.2115C29.2642 32.0186 29.3214 31.8301 29.4285 31.6697C29.5357 31.5094 29.688 31.3844 29.8661 31.3106C30.0443 31.2367 30.2404 31.2174 30.4296 31.2551C30.6187 31.2927 30.7925 31.3856 30.9289 31.5219C31.0653 31.6583 31.1581 31.8321 31.1958 32.0212C31.2334 32.2104 31.2141 32.4065 31.1403 32.5847C31.0665 32.7629 30.9415 32.9152 30.7811 33.0223C30.6207 33.1295 30.4322 33.1867 30.2393 33.1867C29.9807 33.1867 29.7327 33.0839 29.5498 32.901C29.3669 32.7182 29.2642 32.4701 29.2642 32.2115Z" fill="black"/>
<path d="M31.2642 32.2115C31.2642 32.4142 31.2041 32.6123 31.0914 32.7809L27.7656 30.5586C27.4386 31.0478 27.2642 31.6231 27.2642 32.2115H31.2642ZM31.0914 32.7809C30.9788 32.9494 30.8188 33.0808 30.6315 33.1583L29.1008 29.4628C28.5571 29.688 28.0925 30.0693 27.7656 30.5586L31.0914 32.7809ZM30.6315 33.1583C30.4442 33.2359 30.2382 33.2562 30.0394 33.2166L30.8198 29.2935C30.2426 29.1787 29.6444 29.2376 29.1008 29.4628L30.6315 33.1583ZM30.0394 33.2166C29.8406 33.1771 29.658 33.0795 29.5147 32.9362L32.3431 30.1077C31.927 29.6917 31.3969 29.4083 30.8198 29.2935L30.0394 33.2166ZM29.5147 32.9362C29.3713 32.7928 29.2737 32.6102 29.2342 32.4114L33.1573 31.6311C33.0425 31.0539 32.7592 30.5238 32.3431 30.1077L29.5147 32.9362ZM29.2342 32.4114C29.1946 32.2126 29.2149 32.0066 29.2925 31.8193L32.988 33.35C33.2132 32.8064 33.2721 32.2082 33.1573 31.6311L29.2342 32.4114ZM29.2925 31.8193C29.3701 31.632 29.5014 31.472 29.67 31.3594L31.8922 34.6853C32.3815 34.3583 32.7628 33.8937 32.988 33.35L29.2925 31.8193ZM29.67 31.3594C29.8385 31.2468 30.0366 31.1867 30.2393 31.1867V35.1867C30.8278 35.1867 31.403 35.0122 31.8922 34.6853L29.67 31.3594ZM30.2393 31.1867C30.5111 31.1867 30.7718 31.2946 30.964 31.4868L28.1356 34.3153C28.6935 34.8732 29.4503 35.1867 30.2393 35.1867V31.1867ZM30.964 31.4868C31.1562 31.679 31.2642 31.9397 31.2642 32.2115H27.2642C27.2642 33.0006 27.5776 33.7573 28.1356 34.3153L30.964 31.4868Z" fill="#3F3F3F" mask="url(#path-6-inside-1)"/>
<path d="M11.4673 36.7832H25.4853M49.5802 36.7832H62.7653H49.5802Z" stroke="#3F3F3F" stroke-width="2" stroke-miterlimit="3.86" stroke-linecap="round"/>
<mask id="path-9-inside-2" fill="white">
<path d="M17.1763 32.2115C17.1763 32.0186 17.2335 31.8301 17.3406 31.6697C17.4478 31.5094 17.6001 31.3844 17.7783 31.3106C17.9564 31.2367 18.1525 31.2174 18.3417 31.2551C18.5308 31.2927 18.7046 31.3856 18.841 31.5219C18.9774 31.6583 19.0702 31.8321 19.1079 32.0212C19.1455 32.2104 19.1262 32.4065 19.0524 32.5847C18.9786 32.7629 18.8536 32.9152 18.6932 33.0223C18.5328 33.1295 18.3443 33.1867 18.1514 33.1867C17.8944 33.1815 17.6494 33.0771 17.4676 32.8953C17.2859 32.7135 17.1815 32.4685 17.1763 32.2115Z"/>
</mask>
<path d="M17.1763 32.2115C17.1763 32.0186 17.2335 31.8301 17.3406 31.6697C17.4478 31.5094 17.6001 31.3844 17.7783 31.3106C17.9564 31.2367 18.1525 31.2174 18.3417 31.2551C18.5308 31.2927 18.7046 31.3856 18.841 31.5219C18.9774 31.6583 19.0702 31.8321 19.1079 32.0212C19.1455 32.2104 19.1262 32.4065 19.0524 32.5847C18.9786 32.7629 18.8536 32.9152 18.6932 33.0223C18.5328 33.1295 18.3443 33.1867 18.1514 33.1867C17.8944 33.1815 17.6494 33.0771 17.4676 32.8953C17.2859 32.7135 17.1815 32.4685 17.1763 32.2115Z" fill="black"/>
<path d="M18.1514 33.1867L18.111 35.1863L18.1312 35.1867H18.1514V33.1867ZM19.1763 32.2115C19.1763 32.4142 19.1162 32.6123 19.0036 32.7809L15.6777 30.5586C15.3508 31.0478 15.1763 31.6231 15.1763 32.2115H19.1763ZM19.0036 32.7809C18.8909 32.9494 18.7309 33.0807 18.5436 33.1583L17.0129 29.4628C16.4692 29.688 16.0046 30.0693 15.6777 30.5586L19.0036 32.7809ZM18.5436 33.1583C18.3564 33.2359 18.1503 33.2562 17.9515 33.2166L18.7319 29.2935C18.1547 29.1787 17.5565 29.2376 17.0129 29.4628L18.5436 33.1583ZM17.9515 33.2166C17.7527 33.1771 17.5701 33.0795 17.4268 32.9362L20.2552 30.1077C19.8391 29.6916 19.309 29.4083 18.7319 29.2935L17.9515 33.2166ZM17.4268 32.9362C17.2834 32.7928 17.1858 32.6102 17.1463 32.4114L21.0694 31.6311C20.9546 31.0539 20.6713 30.5238 20.2552 30.1077L17.4268 32.9362ZM17.1463 32.4114C17.1068 32.2126 17.1271 32.0066 17.2046 31.8193L20.9001 33.35C21.1253 32.8064 21.1842 32.2082 21.0694 31.6311L17.1463 32.4114ZM17.2046 31.8193C17.2822 31.632 17.4135 31.472 17.5821 31.3594L19.8044 34.6853C20.2936 34.3583 20.6749 33.8937 20.9001 33.35L17.2046 31.8193ZM17.5821 31.3594C17.7506 31.2468 17.9487 31.1867 18.1514 31.1867V35.1867C18.7399 35.1867 19.3151 35.0122 19.8044 34.6853L17.5821 31.3594ZM18.1918 31.1871C18.4512 31.1923 18.6984 31.2977 18.8818 31.4811L16.0534 34.3095C16.6004 34.8564 17.3377 35.1706 18.111 35.1863L18.1918 31.1871ZM18.8818 31.4811C19.0653 31.6645 19.1706 31.9118 19.1759 32.1711L15.1767 32.2519C15.1923 33.0252 15.5065 33.7626 16.0534 34.3095L18.8818 31.4811Z" fill="#3F3F3F" mask="url(#path-9-inside-2)"/>
<mask id="path-11-inside-3" fill="white">
<path d="M54.436 32.2115C54.436 32.0186 54.4932 31.8301 54.6004 31.6697C54.7075 31.5094 54.8598 31.3844 55.038 31.3106C55.2162 31.2367 55.4123 31.2174 55.6015 31.2551C55.7906 31.2927 55.9644 31.3856 56.1008 31.5219C56.2371 31.6583 56.33 31.8321 56.3676 32.0212C56.4053 32.2104 56.386 32.4065 56.3121 32.5847C56.2383 32.7629 56.1133 32.9152 55.953 33.0223C55.7926 33.1295 55.6041 33.1867 55.4112 33.1867C55.1526 33.1867 54.9045 33.0839 54.7217 32.901C54.5388 32.7182 54.436 32.4701 54.436 32.2115Z"/>
</mask>
<path d="M54.436 32.2115C54.436 32.0186 54.4932 31.8301 54.6004 31.6697C54.7075 31.5094 54.8598 31.3844 55.038 31.3106C55.2162 31.2367 55.4123 31.2174 55.6015 31.2551C55.7906 31.2927 55.9644 31.3856 56.1008 31.5219C56.2371 31.6583 56.33 31.8321 56.3676 32.0212C56.4053 32.2104 56.386 32.4065 56.3121 32.5847C56.2383 32.7629 56.1133 32.9152 55.953 33.0223C55.7926 33.1295 55.6041 33.1867 55.4112 33.1867C55.1526 33.1867 54.9045 33.0839 54.7217 32.901C54.5388 32.7182 54.436 32.4701 54.436 32.2115Z" fill="black"/>
<path d="M54.436 32.2115H52.436H54.436ZM56.436 32.2115C56.436 32.4142 56.3759 32.6123 56.2633 32.7809L52.9374 30.5586C52.6105 31.0478 52.436 31.6231 52.436 32.2115H56.436ZM56.2633 32.7809C56.1507 32.9494 55.9906 33.0808 55.8034 33.1583L54.2727 29.4628C53.729 29.688 53.2644 30.0693 52.9374 30.5586L56.2633 32.7809ZM55.8034 33.1583C55.6161 33.2359 55.4101 33.2562 55.2113 33.2166L55.9916 29.2935C55.4145 29.1787 54.8163 29.2376 54.2727 29.4628L55.8034 33.1583ZM55.2113 33.2166C55.0125 33.1771 54.8299 33.0795 54.6865 32.9362L57.515 30.1077C57.0989 29.6917 56.5688 29.4083 55.9916 29.2935L55.2113 33.2166ZM54.6865 32.9362C54.5432 32.7928 54.4456 32.6102 54.4061 32.4114L58.3292 31.6311C58.2144 31.0539 57.9311 30.5238 57.515 30.1077L54.6865 32.9362ZM54.4061 32.4114C54.3665 32.2126 54.3868 32.0066 54.4644 31.8193L58.1599 33.35C58.3851 32.8064 58.444 32.2082 58.3292 31.6311L54.4061 32.4114ZM54.4644 31.8193C54.542 31.632 54.6733 31.472 54.8418 31.3594L57.0641 34.6853C57.5534 34.3583 57.9347 33.8937 58.1599 33.35L54.4644 31.8193ZM54.8418 31.3594C55.0104 31.2468 55.2085 31.1867 55.4112 31.1867V35.1867C55.9997 35.1867 56.5749 35.0122 57.0641 34.6853L54.8418 31.3594ZM55.4112 31.1867C55.683 31.1867 55.9437 31.2946 56.1359 31.4868L53.3074 34.3153C53.8654 34.8732 54.6222 35.1867 55.4112 35.1867V31.1867ZM56.1359 31.4868C56.3281 31.679 56.436 31.9397 56.436 32.2115H52.436C52.436 33.0006 52.7495 33.7573 53.3074 34.3153L56.1359 31.4868Z" fill="#3F3F3F" mask="url(#path-11-inside-3)"/>
<path d="M60.7949 59.8011L58.7633 52.0811M12.7881 59.8011L14.8197 52.0811L12.7881 59.8011Z" stroke="#3F3F3F" stroke-width="2" stroke-miterlimit="3.86" stroke-linecap="round"/>
<path d="M47.4675 1.65625H26.1763V13.3583H47.4675V1.65625Z" stroke="black" stroke-linejoin="round"/>
<path d="M28.0249 20.9563V26.7058H23.4334V20.9563H28.0249ZM20.3048 18.2949V26.7058H14.21V18.2949H20.3048Z" stroke="black" stroke-width="0.71" stroke-linejoin="round"/>
</g>
<defs>
<clipPath id="clip0">
<rect width="72" height="72" fill="white" transform="translate(0.821777 0.640625)"/>
</clipPath>
</defs>
</svg>
