<svg width="25" height="24" viewBox="0 0 25 24" fill="none" xmlns="http://www.w3.org/2000/svg">
<path fill-rule="evenodd" clip-rule="evenodd" d="M2.71436 0C1.60979 0 0.714355 0.89543 0.714355 2V22C0.714355 23.1046 1.60979 24 2.71435 24H22.7143C23.8189 24 24.7143 23.1046 24.7143 22V2C24.7143 0.89543 23.8189 0 22.7143 0H2.71436ZM6.19884 12.3769C6.19884 8.90614 8.99837 6.10661 12.4691 6.10661C15.9399 6.10661 18.7394 8.90614 18.7394 12.3769C18.7394 15.8477 15.9399 18.6472 12.4691 18.6472C8.99837 18.6472 6.19884 15.8477 6.19884 12.3769ZM8.39262 12.3769C8.39262 14.6253 10.2262 16.4534 12.4691 16.4534C14.712 16.4534 16.5456 14.6253 16.5456 12.3769C16.5456 10.1285 14.7175 8.30039 12.4691 8.30039C10.2208 8.30039 8.39262 10.1285 8.39262 12.3769ZM18.9959 7.31264C19.8036 7.31264 20.4584 6.66324 20.4584 5.85012C20.4584 5.04246 19.8036 4.3876 18.9959 4.3876C18.1883 4.3876 17.5334 5.04246 17.5334 5.85012C17.5334 6.65778 18.1828 7.31264 18.9959 7.31264Z" fill="#808080"/>
</svg>
