<svg width="133" height="40" viewBox="0 0 133 40" fill="none" xmlns="http://www.w3.org/2000/svg">
<g clip-path="url(#clip0)">
<path d="M124.688 25.9689H110.402V28.4675H124.688V25.9689ZM19.7986 24.5313C25.0914 24.5313 31.1591 23.2924 33.615 21.612V12.7622H20.6666V16.7215H25.4301V19.2599C23.023 19.8877 22.011 20.0195 19.9891 20.0195C14.7852 20.0195 10.8854 18.5274 9.34412 16.1C8.87524 15.3653 8.62776 14.5139 8.63064 13.6453C8.63064 10.4414 11.7598 6.82532 20.6645 6.82532C24.7082 6.82532 28.7498 7.49078 32.9439 8.8238V4.10487C29.6708 3.05855 24.8987 2.32821 19.9954 2.32821C8.30037 2.32821 0.212902 6.86299 0.212902 13.4611C0.211305 14.3644 0.374834 15.2605 0.69561 16.1062C2.60104 21.1474 9.98138 24.5292 19.8028 24.5292L19.7986 24.5313ZM37.3539 16.1062H45.543V15.0766H60.5133V11.1006H45.543V6.57839H61.2352V2.61281H37.3496L37.3539 16.1062ZM37.3539 24.2425H61.5612V20.279H45.543V16.1083H37.3496L37.3539 24.2425ZM72.4984 16.1062H64.3093V24.255H72.492L72.4984 16.1062ZM90.638 24.255H97.5209V2.61281H89.3381V15.8405L71.8188 2.61281H64.3093V16.1083H72.492V10.3849L79.9846 16.1083L90.638 24.255ZM131.639 4.24089C128.412 2.97275 124.322 2.33867 119.749 2.33867C107.186 2.33867 100.013 7.73144 100.013 13.503C100.014 14.3959 100.175 15.2814 100.489 16.1188C102.183 20.6724 108.382 24.5417 119.12 24.5417C123.989 24.5417 127.449 23.939 132.022 22.3842V17.6485C127.305 19.1385 124.415 20.0258 120.132 20.0258C115.034 20.0258 111.028 18.4919 109.334 16.1062C108.757 15.3185 108.444 14.3712 108.441 13.3983C108.441 9.56042 113.351 6.8316 120.331 6.8316C124.375 6.8316 128.033 7.72098 131.643 9.0519L131.639 4.24089ZM130.711 1.75692H130.464V1.27979H130.777C130.938 1.27979 131.111 1.30909 131.111 1.50998C131.111 1.74645 130.919 1.75692 130.711 1.75692ZM131.382 2.59398L130.946 1.93061C131.001 1.93196 131.056 1.92188 131.107 1.90101C131.157 1.88014 131.203 1.84896 131.241 1.80949C131.278 1.77002 131.307 1.72314 131.326 1.6719C131.344 1.62066 131.351 1.56621 131.346 1.51208C131.346 1.22538 131.177 1.08308 130.815 1.08308H130.229V2.5856H130.464V1.93898H130.713L131.137 2.5856L131.382 2.59398ZM131.838 1.84062C131.838 2.05726 131.773 2.26915 131.652 2.44946C131.53 2.62976 131.357 2.77036 131.155 2.85346C130.953 2.93655 130.73 2.9584 130.515 2.91624C130.3 2.87408 130.102 2.7698 129.947 2.61661C129.792 2.46342 129.687 2.26822 129.644 2.05572C129.602 1.84322 129.624 1.62299 129.708 1.42291C129.792 1.22284 129.934 1.05193 130.116 0.931832C130.299 0.811731 130.513 0.747842 130.732 0.748256C131.025 0.748809 131.306 0.864076 131.513 1.06881C131.72 1.27355 131.837 1.55108 131.838 1.84062ZM132.024 1.84062C132.024 1.58765 131.948 1.34036 131.806 1.13005C131.663 0.919735 131.461 0.755852 131.225 0.659139C130.988 0.562426 130.728 0.537229 130.477 0.586734C130.226 0.63624 129.996 0.758222 129.815 0.937248C129.634 1.11627 129.511 1.3443 129.461 1.59246C129.412 1.84063 129.438 2.09778 129.536 2.33138C129.634 2.56498 129.8 2.76452 130.013 2.90476C130.226 3.04501 130.476 3.11965 130.732 3.11923C130.902 3.11923 131.07 3.08615 131.227 3.02186C131.384 2.95758 131.526 2.86337 131.646 2.74461C131.766 2.62585 131.861 2.48488 131.926 2.32977C131.991 2.17465 132.024 2.00843 132.024 1.84062Z" fill="black"/>
<path d="M108.149 33.9605V39.6965H109.148V32.2969H108.181L105.454 36.4822L104.497 37.9638H104.423V32.3136H103.421V39.7132H104.368L106.987 35.6953L108.073 33.9773L108.149 33.9605ZM95.7954 39.6965V36.3336H97.0127C97.1515 36.3337 97.2899 36.3485 97.4256 36.3776C97.5651 36.4068 97.6979 36.4614 97.8172 36.5387C97.9537 36.631 98.0697 36.75 98.1581 36.8882C98.278 37.072 98.368 37.2732 98.4249 37.4846L99.0769 39.6965H100.121L99.403 37.3109C99.3102 36.9824 99.1674 36.6698 98.9795 36.3838C98.8064 36.1286 98.549 35.9408 98.2512 35.8523C98.5026 35.7576 98.7183 35.5888 98.8694 35.3689C99.0682 35.0904 99.2191 34.7814 99.3162 34.4544L99.9894 32.2969H99.0325L98.3486 34.4021C98.2862 34.6087 98.1912 34.8044 98.0671 34.9818C97.9712 35.1117 97.8512 35.2225 97.7135 35.3082C97.5951 35.3798 97.4645 35.4294 97.3282 35.4547C97.2057 35.4749 97.0818 35.4854 96.9577 35.4861H95.7954V32.2969H94.7961V39.6965H95.7954ZM88.5717 33.6508L89.1242 35.3689L89.7234 37.1288H87.3945L87.9937 35.3689L88.5209 33.6508H88.5717ZM91.6775 39.6965L89.0607 32.2969H88.0487L85.4425 39.6965H86.4863L87.0621 38.0224H90.0388L90.6253 39.6965H91.6775ZM81.2379 33.1988V39.6965H82.2584V32.2969H77.6536V35.4756C77.6595 35.9746 77.6284 36.4733 77.5604 36.9677C77.5147 37.3159 77.4199 37.6561 77.2788 37.9784C77.1661 38.2297 77.0034 38.4561 76.8004 38.6439C76.5984 38.8224 76.3734 38.9737 76.1313 39.0938L76.5675 39.9434C76.89 39.813 77.19 39.6336 77.4567 39.4119C77.7296 39.1783 77.9533 38.8938 78.1151 38.5748C78.3114 38.1783 78.447 37.7552 78.5174 37.3192C78.6145 36.7299 78.6599 36.1334 78.6529 35.5363V33.1988H81.2379Z" fill="#00AEEF"/>
<path d="M72.8901 36.2059C72.8164 36.0401 72.7107 35.8901 72.5789 35.7644C72.4471 35.6373 72.2928 35.5351 72.1237 35.463C71.9485 35.3885 71.7598 35.3501 71.569 35.3501C71.3783 35.3501 71.1895 35.3885 71.0143 35.463C70.8452 35.5351 70.691 35.6373 70.5591 35.7644C70.4275 35.8905 70.3236 36.0423 70.2543 36.2101C70.1112 36.5612 70.1112 36.9534 70.2543 37.3046C70.3236 37.4724 70.4275 37.6241 70.5591 37.7503C70.691 37.8774 70.8452 37.9795 71.0143 38.0516C71.1895 38.1261 71.3783 38.1646 71.569 38.1646C71.7598 38.1646 71.9485 38.1261 72.1237 38.0516C72.2928 37.9795 72.4471 37.8774 72.5789 37.7503C72.7829 37.5552 72.9219 37.3033 72.9775 37.0282C73.0331 36.753 73.0026 36.4677 72.8901 36.2101" fill="#939598"/>
<path d="M65.3001 33.9605V39.6965H66.2909V32.2968H65.3255L62.5986 36.4822L61.6417 37.9638H61.5654V32.3136H60.5746V39.7132H61.521L64.1378 35.6953L65.2239 33.9773L65.3001 33.9605ZM55.8703 33.1988V39.6965H56.8929V32.2968H52.286V35.4756C52.292 35.9745 52.2608 36.4732 52.1929 36.9677C52.1471 37.3159 52.0524 37.6561 51.9113 37.9784C51.7994 38.2301 51.6365 38.4566 51.4328 38.6439C51.2309 38.8224 51.0059 38.9736 50.7638 39.0938L51.1999 39.9434C51.5224 39.8129 51.8224 39.6336 52.0891 39.4119C52.3624 39.1786 52.5862 38.8941 52.7476 38.5748C52.9439 38.1783 53.0794 37.7551 53.1498 37.3192C53.247 36.7299 53.2923 36.1333 53.2853 35.5363V33.1988H55.8703ZM45.1809 33.6508L45.7356 35.3689L46.3326 37.1288H44.0038L44.6008 35.3689L45.1428 33.6508H45.1809ZM48.2952 39.6965L45.67 32.2968H44.6601L42.0518 39.6965H43.0955L43.6714 38.0224H46.6481L47.2345 39.6965H48.2952ZM35.5098 37.2795L34.5634 35.3145L33.0518 32.2968H32.0949V39.6965H33.0963V34.6595H33.1492L33.9643 36.2917L35.1605 38.5936H35.9099L37.1696 36.0825L37.8535 34.6553H37.9085V39.6923H38.9078V32.2968H37.9847L36.5027 35.3145L35.5797 37.2795H35.5098ZM24.7378 32.3826C24.3906 32.4876 24.0676 32.659 23.7872 32.887L24.2868 33.6613C24.4949 33.4881 24.7351 33.3566 24.994 33.2741C25.2664 33.1811 25.5526 33.1337 25.8408 33.1339C26.2735 33.1116 26.6987 33.2522 27.0307 33.5273C27.3228 33.791 27.4689 34.2305 27.4689 34.8499V35.4442H24.615V36.3127H27.4499V37.1497C27.4566 37.4155 27.4106 37.68 27.3143 37.9282C27.2358 38.1306 27.1112 38.3125 26.9502 38.4597C26.7978 38.5978 26.6163 38.7007 26.4188 38.7611C26.2134 38.8256 25.9991 38.858 25.7837 38.8573C25.4917 38.8566 25.2012 38.8172 24.9199 38.7401C24.6322 38.6632 24.3639 38.5278 24.1323 38.3425L23.6475 39.1126C23.9186 39.3199 24.2236 39.4799 24.5494 39.5856C24.9374 39.718 25.3456 39.7838 25.7561 39.7802C26.1089 39.7813 26.4594 39.7247 26.7935 39.6128C27.1101 39.5093 27.4039 39.3473 27.6594 39.1356C27.9099 38.9258 28.112 38.6653 28.2522 38.3718C28.3999 38.0523 28.4723 37.7039 28.464 37.3527V34.6385C28.4718 34.2702 28.4086 33.9037 28.2777 33.5587C28.164 33.2709 27.9834 33.0135 27.7505 32.8075C27.5121 32.6046 27.2328 32.4541 26.9311 32.3659C26.5819 32.2654 26.2194 32.2167 25.8556 32.2215C25.4714 32.2189 25.0889 32.2732 24.7209 32.3826" fill="#6DCFF6"/>
</g>
<defs>
<clipPath id="clip0">
<rect width="131.815" height="39.39" fill="white" transform="translate(0.208496 0.55127)"/>
</clipPath>
</defs>
</svg>
