<svg width="97" height="22" viewBox="0 0 97 22" fill="none" xmlns="http://www.w3.org/2000/svg">
<g clip-path="url(#clip0)">
<path d="M91.0768 19.6684H80.6721V21.5432H91.0768V19.6684ZM14.6866 18.5905C18.5429 18.5905 22.9604 17.6633 24.7475 16.4019V12.2758V9.76869H15.3188V12.2758V12.7402H18.7896V14.6432C17.0364 15.1186 16.301 15.2143 14.8285 15.2143C11.0369 15.2143 8.19522 14.0957 7.0758 12.2758C6.73658 11.722 6.55618 11.1054 6.55618 10.4355C6.55618 8.03351 8.8351 5.32248 15.3203 5.32248C18.2653 5.32248 21.2104 5.82138 24.2602 6.82076V3.27665C21.8765 2.49221 18.4057 1.94467 14.83 1.94467C6.30948 1.94624 0.419434 5.34601 0.419434 10.2927C0.419434 10.9846 0.539701 11.6482 0.770986 12.2758H3.56336H0.770986C2.15869 16.0568 7.53374 18.5905 14.6866 18.5905ZM27.4689 12.2758H33.4283V11.5039H44.3311V8.53241H33.4283V5.13264H44.8569V2.15961H27.4689V12.2758ZM27.4689 18.3772H45.102V15.4041H33.4283V12.2758H27.4689V18.3772ZM53.0629 12.2758H47.1034V18.3756H53.0629V12.2758ZM66.2785 18.3772H71.2912V12.2758V2.15961H65.3317V12.075L52.571 2.15961H47.1019V12.2773H53.0613V7.98487L58.5181 12.2758L66.2785 18.3772ZM96.1388 3.37236C93.7905 2.42161 90.81 1.94624 87.4795 1.94624C78.3299 1.94624 73.106 5.98925 73.106 10.3162C73.106 10.9767 73.2216 11.6357 73.4529 12.2773H74.5446H73.4529C74.6849 15.6912 79.2011 18.5921 87.0231 18.5921C90.5633 18.5921 93.0874 18.1403 96.4179 16.9746V13.4305C92.9826 14.5475 90.8794 15.2143 87.7586 15.2143C84.0457 15.2143 81.1331 14.0643 79.8919 12.2758C79.4694 11.6655 79.2412 10.9814 79.2412 10.2456C79.2412 7.3683 82.8168 5.32405 87.9005 5.32405C90.8455 5.32405 93.5099 5.98925 96.1388 6.98863V3.37236ZM95.4635 1.50852H95.2846V1.15082H95.5128C95.6284 1.15082 95.7564 1.17435 95.7564 1.32339C95.7549 1.50225 95.6146 1.50852 95.4635 1.50852ZM95.9522 2.13451L95.6362 1.63717C95.8011 1.61834 95.9276 1.53362 95.9276 1.33124C95.9276 1.11473 95.8042 1.00962 95.5406 1.00962H95.1135V2.13451H95.2861V1.65129H95.4681L95.7688 2.13608H95.9522V2.13451ZM96.2838 1.57128C96.2838 2.02468 95.923 2.39023 95.4789 2.39023C95.0348 2.39023 94.674 2.02312 94.674 1.57128C94.674 1.11944 95.0348 0.75232 95.4789 0.75232C95.923 0.75232 96.2838 1.11944 96.2838 1.57128ZM96.4194 1.57128C96.4194 1.04256 95.9985 0.614258 95.4789 0.614258C94.9593 0.614258 94.5383 1.04256 94.5383 1.57128C94.5383 2.09999 94.9593 2.5283 95.4789 2.5283C95.9985 2.5283 96.4194 2.09999 96.4194 1.57128Z" fill="black"/>
</g>
<defs>
<clipPath id="clip0">
<rect width="96" height="20.9289" fill="white" transform="translate(0.419434 0.614258)"/>
</clipPath>
</defs>
</svg>
