<svg width="117" height="26" viewBox="0 0 117 26" fill="none" xmlns="http://www.w3.org/2000/svg">
<g clip-path="url(#clip0)">
<path d="M109.6 22.9617H97.0281V25.2012H109.6V22.9617ZM17.2956 21.6742C21.9553 21.6742 27.2932 20.5666 29.4525 19.0599V14.1311V11.1363H18.0595V14.1311V14.6858H22.2534V16.959C20.135 17.5269 19.2463 17.6412 17.4671 17.6412C12.8856 17.6412 9.45189 16.305 8.09926 14.1311C7.68937 13.4695 7.47139 12.733 7.47139 11.9328C7.47139 9.06362 10.2251 5.82523 18.0614 5.82523C21.62 5.82523 25.1785 6.42119 28.8638 7.61497V3.38146C25.9834 2.44443 21.7895 1.79038 17.4689 1.79038C7.17329 1.79225 0.0561523 5.85335 0.0561523 11.7623C0.0561523 12.5887 0.201476 13.3815 0.480945 14.1311H3.85506H0.480945C2.15776 18.6476 8.65261 21.6742 17.2956 21.6742ZM32.7409 14.1311H39.9419V13.209H53.1161V9.65957H39.9419V5.59847H53.7514V2.04712H32.7409V14.1311ZM32.7409 21.4193H54.0476V17.868H39.9419V14.1311H32.7409V21.4193ZM63.667 14.1311H56.466V21.4174H63.667V14.1311ZM79.6358 21.4193H85.6928V14.1311V2.04712H78.4918V13.8912L63.0726 2.04712H56.4641V14.133H63.6651V9.00552L70.2587 14.1311L79.6358 21.4193ZM115.717 3.49577C112.88 2.36009 109.278 1.79225 105.254 1.79225C94.198 1.79225 87.8857 6.62171 87.8857 11.7904C87.8857 12.5794 88.0254 13.3665 88.3049 14.133H89.624H88.3049C89.7936 18.2109 95.2506 21.6761 104.702 21.6761C108.98 21.6761 112.03 21.1363 116.054 19.7439V15.5104C111.903 16.8447 109.362 17.6412 105.591 17.6412C101.105 17.6412 97.5851 16.2675 96.0853 14.1311C95.5748 13.4021 95.2991 12.585 95.2991 11.706C95.2991 8.26901 99.6197 5.82711 105.762 5.82711C109.321 5.82711 112.54 6.62171 115.717 7.81549V3.49577ZM114.901 1.26939H114.685V0.842101H114.961C115.1 0.842101 115.255 0.870212 115.255 1.04825C115.253 1.26189 115.084 1.26939 114.901 1.26939ZM115.492 2.01714L115.11 1.42306C115.309 1.40057 115.462 1.29937 115.462 1.05762C115.462 0.798998 115.313 0.673436 114.994 0.673436H114.478V2.01714H114.687V1.43993H114.907L115.27 2.01901H115.492V2.01714ZM115.892 1.34435C115.892 1.88595 115.456 2.32261 114.92 2.32261C114.383 2.32261 113.947 1.88408 113.947 1.34435C113.947 0.80462 114.383 0.366089 114.92 0.366089C115.456 0.366089 115.892 0.80462 115.892 1.34435ZM116.056 1.34435C116.056 0.712791 115.548 0.201172 114.92 0.201172C114.292 0.201172 113.783 0.712791 113.783 1.34435C113.783 1.97591 114.292 2.48753 114.92 2.48753C115.548 2.48753 116.056 1.97591 116.056 1.34435Z" fill="#6DCFF6"/>
</g>
<defs>
<clipPath id="clip0">
<rect width="116" height="25" fill="white" transform="translate(0.0561523 0.201172)"/>
</clipPath>
</defs>
</svg>
