<svg width="25" height="24" viewBox="0 0 25 24" fill="none" xmlns="http://www.w3.org/2000/svg">
<path d="M21.786 0H2.92885C1.50921 0 0.357422 1.15179 0.357422 2.57143V21.4286C0.357422 22.8482 1.50921 24 2.92885 24H21.786C23.2056 24 24.3574 22.8482 24.3574 21.4286V2.57143C24.3574 1.15179 23.2056 0 21.786 0ZM19.1664 8.50714C19.1771 8.65714 19.1771 8.8125 19.1771 8.9625C19.1771 13.6071 15.6414 18.9589 9.18064 18.9589C7.18778 18.9589 5.33956 18.3804 3.78599 17.3839C4.06992 17.4161 4.34314 17.4268 4.63242 17.4268C6.27706 17.4268 7.78778 16.8696 8.99314 15.9268C7.45028 15.8946 6.15385 14.8821 5.70921 13.4893C6.25028 13.5696 6.73778 13.5696 7.29492 13.425C5.68778 13.0982 4.48242 11.6839 4.48242 9.975V9.93214C4.94849 10.1946 5.49492 10.3554 6.06814 10.3768C5.58622 10.0562 5.19116 9.62136 4.91821 9.11098C4.64526 8.60059 4.5029 8.03057 4.50385 7.45179C4.50385 6.79821 4.67528 6.19821 4.98064 5.67857C6.71099 7.81071 9.30921 9.20357 12.2235 9.35357C11.7253 6.96964 13.5092 5.03571 15.6521 5.03571C16.6646 5.03571 17.5753 5.45893 18.2181 6.14464C19.011 5.99464 19.7717 5.7 20.4467 5.29821C20.1842 6.1125 19.6324 6.79821 18.9039 7.23214C19.611 7.15714 20.2967 6.95893 20.9289 6.68571C20.4521 7.3875 19.8521 8.00893 19.1664 8.50714Z" fill="#808080"/>
</svg>
