<svg width="37" height="37" viewBox="0 0 37 37" fill="none" xmlns="http://www.w3.org/2000/svg">
<g clip-path="url(#clip0)">
<path fill-rule="evenodd" clip-rule="evenodd" d="M0.304932 11.8839C0.304932 10.6853 0.781079 9.53574 1.62863 8.6882C2.47617 7.84065 3.62569 7.3645 4.82431 7.3645H21.772C22.8681 7.36437 23.927 7.76264 24.7513 8.48514C25.5757 9.20765 26.1093 10.2051 26.2529 11.2918L33.2806 8.16895C33.6245 8.01568 34.0014 7.95081 34.3768 7.98023C34.7522 8.00966 35.1144 8.13245 35.4303 8.33744C35.7462 8.54243 36.0059 8.82312 36.1857 9.154C36.3655 9.48488 36.4598 9.85546 36.4599 10.232V27.0938C36.4596 27.4701 36.3653 27.8404 36.1856 28.171C36.0059 28.5016 35.7465 28.7821 35.4309 28.987C35.1153 29.192 34.7535 29.3148 34.3784 29.3445C34.0033 29.3742 33.6267 29.3097 33.2828 29.1569L26.2529 26.034C26.1093 27.1208 25.5757 28.1182 24.7513 28.8407C23.927 29.5632 22.8681 29.9615 21.772 29.9614H4.82431C3.62569 29.9614 2.47617 29.4852 1.62863 28.6377C0.781079 27.7901 0.304932 26.6406 0.304932 25.442V11.8839ZM26.2913 23.5778L34.2002 27.0938V10.232L26.2913 13.7481V23.5778ZM4.82431 9.62419C4.225 9.62419 3.65024 9.86226 3.22647 10.286C2.80269 10.7098 2.56462 11.2846 2.56462 11.8839V25.442C2.56462 26.0413 2.80269 26.6161 3.22647 27.0398C3.65024 27.4636 4.225 27.7017 4.82431 27.7017H21.772C22.3713 27.7017 22.946 27.4636 23.3698 27.0398C23.7936 26.6161 24.0317 26.0413 24.0317 25.442V11.8839C24.0317 11.2846 23.7936 10.7098 23.3698 10.286C22.946 9.86226 22.3713 9.62419 21.772 9.62419H4.82431Z" fill="#5C87AF"/>
</g>
<defs>
<clipPath id="clip0">
<rect width="36" height="36" fill="white" transform="translate(0.304932 0.662842)"/>
</clipPath>
</defs>
</svg>
